<?xml version="1.0" encoding="UTF-8"?>
<!DOCTYPE svg PUBLIC "-//W3C//DTD SVG 1.1//EN" "http://www.w3.org/Graphics/SVG/1.1/DTD/svg11.dtd">
<!-- Creator: CorelDRAW -->
<svg xmlns="http://www.w3.org/2000/svg" xml:space="preserve" width="27.0234mm" height="25.3212mm" version="1.1" style="shape-rendering:geometricPrecision; text-rendering:geometricPrecision; image-rendering:optimizeQuality; fill-rule:evenodd; clip-rule:evenodd"
viewBox="0 0 128.03 119.97"
 xmlns:xlink="http://www.w3.org/1999/xlink"
 xmlns:xodm="http://www.corel.com/coreldraw/odm/2003">
 <defs>
  <style type="text/css">
   <![CDATA[
    .fil2 {fill:#1EAE7D;fill-rule:nonzero}
    .fil3 {fill:#208C68;fill-rule:nonzero}
    .fil0 {fill:#1EAE7D;fill-rule:nonzero;fill-opacity:0.270588}
    .fil1 {fill:#1EAE7D;fill-rule:nonzero;fill-opacity:0.631373}
   ]]>
  </style>
 </defs>
 <g id="Layer_x0020_1">
  <metadata id="CorelCorpID_0Corel-Layer"/>
  <g id="_105553159114592">
   <path class="fil0" d="M-0 59.98c0,33.13 28.66,59.98 64.01,59.98 35.35,0 64.01,-26.86 64.01,-59.98 0,-33.13 -28.66,-59.98 -64.01,-59.98 -35.35,0 -64.01,26.85 -64.01,59.98z"/>
   <path class="fil1" d="M8.07 59.98c0,28.67 25.05,51.92 55.95,51.92 30.9,0 55.95,-23.24 55.95,-51.92 0,-28.67 -25.05,-51.92 -55.95,-51.92 -30.9,0 -55.95,23.24 -55.95,51.92z"/>
   <path class="fil2" d="M15.53 59.56c0,24.86 21.56,45.02 48.15,45.02 26.6,0 48.16,-20.16 48.16,-45.02 0,-24.86 -21.56,-45.02 -48.16,-45.02 -26.6,0 -48.15,20.16 -48.15,45.02z"/>
   <path class="fil3" d="M95.44 56.07c-0.45,0.98 -1.21,1.8 -1.73,2.74 -1.87,3.4 -0.42,7.58 -0.56,11.46 -0.15,4.19 -2.41,8.3 -5.99,10.47 -3.58,2.17 -8.41,2.23 -11.92,-0.05 -1.77,-1.15 -3.17,-2.82 -4.26,-4.63 -5.03,-8.33 -3.36,-19.9 3.33,-26.96 2.67,-2.81 6.19,-5.02 10.05,-5.3 5.31,-0.38 13.88,6.16 11.08,12.27z"/>
   <path class="fil3" d="M62.45 24.94c0.87,0.61 2.1,0.18 2.92,-0.5 0.82,-0.68 1.45,-1.59 2.37,-2.11 2.22,-1.26 5.27,0.51 5.91,2.98 0.63,2.47 -0.65,5.11 -2.55,6.8 -1.92,1.71 -4.69,2.67 -7.11,1.81 -2.36,-0.84 -3.9,-3.26 -4.28,-5.74 -0.16,-1.05 -0.11,-2.21 0.55,-3.04 0.66,-0.83 2.1,-1.06 2.75,-0.23l-0.55 0.01z"/>
   <path class="fil3" d="M38.42 36.17c2.16,0.99 3.04,3.75 2.61,6.09 -0.43,2.34 -1.85,4.36 -3.24,6.29 -0.46,0.64 -0.94,1.3 -1.63,1.68 -1.17,0.64 -2.66,0.3 -3.81,-0.38 -2.8,-1.67 -4.15,-5.17 -3.97,-8.43 0.07,-1.15 0.32,-2.34 1.03,-3.26 0.91,-1.17 2.41,-1.69 3.83,-2.15 1.19,-0.39 2.42,-0.78 3.67,-0.7 1.25,0.08 2.55,0.75 3,1.91l-1.47 -1.06z"/>
   <path class="fil3" d="M45.68 69.38c0.46,2.21 0.88,4.71 -0.39,6.58 -0.71,1.05 -1.85,1.73 -2.98,2.31 -1.9,0.98 -4.07,1.82 -6.13,1.26 -1.04,-0.28 -1.96,-0.91 -2.76,-1.63 -3.01,-2.75 -4.32,-7.43 -2.63,-11.14 3.71,-8.11 13.35,-4.68 14.88,2.63z"/>
  </g>
 </g>
</svg>
