      <svg
          xmlns="http://www.w3.org/2000/svg"
          xmlns:xlink="http://www.w3.org/1999/xlink"
          viewBox="0 0 334 334"
          width="334"
          height="334"
          preserveAspectRatio="xMidYMid meet"
          style="width: 100%; height: 100%; transform: translate3d(0px, 0px, 0px); content-visibility: visible;"
        >
          <defs>
            <clipPath id="__lottie_element_2">
              <rect width="334" height="334" x="0" y="0"></rect>
            </clipPath>
            <clipPath id="__lottie_element_4">
              <path d="M0,0 L1000,0 L1000,1000 L0,1000z"></path>
            </clipPath>
            <g id="__lottie_element_53">
              <g
                transform="matrix(-1,-0.00014587257464881986,0.00014587257464881986,-1,488.9930114746094,497.68902587890625)"
                opacity="1"
                style="display: block;"
              >
                <g opacity="1" transform="matrix(1,0,0,1,0,0)">
                  <path
                    fill="rgb(226,226,226)"
                    fill-opacity="1"
                    d=" M118.50199890136719,-112 C155.70199584960938,-154.39999389648438 164.16900634765625,-215.66700744628906 163.0019989013672,-242.5 C163.0019989013672,-242.5 -163.0019989013672,-242.5 -163.0019989013672,-242.5 C-164.16900634765625,-215.66700744628906 -155.70199584960938,-154.39999389648438 -118.50199890136719,-112 C-72.00199890136719,-59 -29.00200080871582,-51.5 -29.00200080871582,0 C-29.00200080871582,51.5 -72.00199890136719,59 -118.50199890136719,112 C-155.70199584960938,154.39999389648438 -164.16900634765625,215.66700744628906 -163.0019989013672,242.5 C-163.0019989013672,242.5 163.0019989013672,242.5 163.0019989013672,242.5 C164.16900634765625,215.66700744628906 155.70199584960938,154.39999389648438 118.50199890136719,112 C72.00199890136719,59 29.00200080871582,51.5 29.00200080871582,0 C29.00200080871582,-51.5 72.00199890136719,-59 118.50199890136719,-112z"
                  ></path>
                </g>
              </g>
            </g>
            <mask id="__lottie_element_53_1" mask-type="alpha">
              <use xlink:href="#__lottie_element_53"></use>
            </mask>
            <g id="__lottie_element_59">
              <g
                transform="matrix(-1,-0.00014587257464881986,0.00014587257464881986,-1,488.9930114746094,497.68902587890625)"
                opacity="1"
                style="display: block;"
              >
                <g opacity="1" transform="matrix(1,0,0,1,0,0)">
                  <path
                    fill="rgb(226,226,226)"
                    fill-opacity="1"
                    d=" M118.50199890136719,-112 C155.70199584960938,-154.39999389648438 164.16900634765625,-215.66700744628906 163.0019989013672,-242.5 C163.0019989013672,-242.5 -163.0019989013672,-242.5 -163.0019989013672,-242.5 C-164.16900634765625,-215.66700744628906 -155.70199584960938,-154.39999389648438 -118.50199890136719,-112 C-72.00199890136719,-59 -29.00200080871582,-51.5 -29.00200080871582,0 C-29.00200080871582,51.5 -72.00199890136719,59 -118.50199890136719,112 C-155.70199584960938,154.39999389648438 -164.16900634765625,215.66700744628906 -163.0019989013672,242.5 C-163.0019989013672,242.5 163.0019989013672,242.5 163.0019989013672,242.5 C164.16900634765625,215.66700744628906 155.70199584960938,154.39999389648438 118.50199890136719,112 C72.00199890136719,59 29.00200080871582,51.5 29.00200080871582,0 C29.00200080871582,-51.5 72.00199890136719,-59 118.50199890136719,-112z"
                  ></path>
                </g>
              </g>
            </g>
            <mask id="__lottie_element_59_1" mask-type="alpha">
              <use xlink:href="#__lottie_element_59"></use>
            </mask>
            <g id="__lottie_element_65">
              <g
                transform="matrix(-1,-0.00014587257464881986,0.00014587257464881986,-1,488.9930114746094,497.68902587890625)"
                opacity="1"
                style="display: block;"
              >
                <g opacity="1" transform="matrix(1,0,0,1,0,0)">
                  <path
                    fill="rgb(226,226,226)"
                    fill-opacity="1"
                    d=" M118.50199890136719,-112 C155.70199584960938,-154.39999389648438 164.16900634765625,-215.66700744628906 163.0019989013672,-242.5 C163.0019989013672,-242.5 -163.0019989013672,-242.5 -163.0019989013672,-242.5 C-164.16900634765625,-215.66700744628906 -155.70199584960938,-154.39999389648438 -118.50199890136719,-112 C-72.00199890136719,-59 -29.00200080871582,-51.5 -29.00200080871582,0 C-29.00200080871582,51.5 -72.00199890136719,59 -118.50199890136719,112 C-155.70199584960938,154.39999389648438 -164.16900634765625,215.66700744628906 -163.0019989013672,242.5 C-163.0019989013672,242.5 163.0019989013672,242.5 163.0019989013672,242.5 C164.16900634765625,215.66700744628906 155.70199584960938,154.39999389648438 118.50199890136719,112 C72.00199890136719,59 29.00200080871582,51.5 29.00200080871582,0 C29.00200080871582,-51.5 72.00199890136719,-59 118.50199890136719,-112z"
                  ></path>
                </g>
              </g>
            </g>
            <mask id="__lottie_element_65_1" mask-type="alpha">
              <use xlink:href="#__lottie_element_65"></use>
            </mask>
          </defs>
          <g clip-path="url(#__lottie_element_2)">
            <g
              clip-path="url(#__lottie_element_4)"
              transform="matrix(0.47999998927116394,0,0,0.47999998927116394,-73,-73)"
              opacity="1"
              style="display: block;"
            >
              <g
                transform="matrix(-1,-0.00014587257464881986,0.00014587257464881986,-1,488.9930114746094,497.68902587890625)"
                opacity="1"
                style="display: block;"
              >
                <g opacity="1" transform="matrix(1,0,0,1,0,0)">
                  <path
                    fill="rgb(226,226,226)"
                    fill-opacity="1"
                    d=" M118.50199890136719,-112 C155.70199584960938,-154.39999389648438 164.16900634765625,-215.66700744628906 163.0019989013672,-242.5 C163.0019989013672,-242.5 -163.0019989013672,-242.5 -163.0019989013672,-242.5 C-164.16900634765625,-215.66700744628906 -155.70199584960938,-154.39999389648438 -118.50199890136719,-112 C-72.00199890136719,-59 -29.00200080871582,-51.5 -29.00200080871582,0 C-29.00200080871582,51.5 -72.00199890136719,59 -118.50199890136719,112 C-155.70199584960938,154.39999389648438 -164.16900634765625,215.66700744628906 -163.0019989013672,242.5 C-163.0019989013672,242.5 163.0019989013672,242.5 163.0019989013672,242.5 C164.16900634765625,215.66700744628906 155.70199584960938,154.39999389648438 118.50199890136719,112 C72.00199890136719,59 29.00200080871582,51.5 29.00200080871582,0 C29.00200080871582,-51.5 72.00199890136719,-59 118.50199890136719,-112z"
                  ></path>
                </g>
              </g>
              <g mask="url(#__lottie_element_65_1)" style="display: block;">
                <g
                  transform="matrix(1,0.00014587257464881986,-0.00014587257464881986,1,510.99871826171875,499.6922302246094)"
                  opacity="1"
                >
                  <g opacity="1" transform="matrix(1,0,0,1,0,0)">
                    <path
                      fill="rgb(243,93,2)"
                      fill-opacity="1"
                      d=" M-48.507999420166016,146.4340057373047 C-48.23099899291992,171.9669952392578 -41.88100051879883,181.5 -38.96500015258789,187.9669952392578 C-30.801000595092773,206.07400512695312 -16.698999404907227,211.5 -7.685999870300293,181.9669952392578 C-3.6700000762939453,168.80799865722656 0.531000018119812,157.52699279785156 0.531000018119812,138.9669952392578 C0.531000018119812,108.5 3.5,84.125 -37.63999938964844,93.46700286865234 C-55.400001525878906,97.5 -48.77299880981445,121.96700286865234 -48.507999420166016,146.4340057373047z"
                    ></path>
                  </g>
                </g>
              </g>
              <g mask="url(#__lottie_element_59_1)" style="display: block;">
                <g
                  transform="matrix(1,0.00014587257464881986,-0.00014587257464881986,1,489.1206359863281,623.654052734375)"
                  opacity="1"
                >
                  <g opacity="1" transform="matrix(1,0,0,1,0,38)">
                    <path
                      fill="rgb(244,94,3)"
                      fill-opacity="1"
                      d=" M-178.25,75.50873565673828 C-207.13900756835938,-42.9212646484375 -140.49981689453125,-46.41978073120117 -111.49981689453125,-69.91978454589844 C-54.38881301879883,-104.91978454589844 -13.231409072875977,-137.90213012695312 -1.5024092197418213,-137.90013122558594 C11.997591018676758,-137.89813232421875 68.50129699707031,-100.81659698486328 114.00129699707031,-69.66959381103516 C135.5012969970703,-54.951595306396484 194.86099243164062,-36.9212646484375 193.25,70.50873565673828 C193.25,70.50873565673828 -178.25,75.50873565673828 -178.25,75.50873565673828z"
                    ></path>
                  </g>
                </g>
              </g>
              <g mask="url(#__lottie_element_53_1)" style="display: block;">
                <g
                  transform="matrix(2.439725637435913,0.0003558890603017062,-0.0003558890603017062,2.439725637435913,509.3048400878906,799.7501831054688)"
                  opacity="1"
                >
                  <g opacity="1" transform="matrix(1,0,0,1,0,0)">
                    <path
                      fill="rgb(243,93,2)"
                      fill-opacity="1"
                      d=" M17.75,-82.75 C15.529999732971191,-105.22899627685547 -32.75,-104.5 -34.25,-81.75 C-35.75,-59 -56.25,-41.25 -61.25,-2.75 C-64.92900085449219,25.579999923706055 -49.027000427246094,47.54399871826172 -54.25,73.5 C-62.5,114.5 -87,122.25 -89.5,160.25 C-90.91300201416016,181.73399353027344 -85.75,183.75 -81.5,226 C-77.25,268.25 -33.5,260.75 -23.75,258 C-14,255.25 -4.5,248 27,248.25 C58.5,248.5 56,234.5 57.25,218.25 C58.5,202 72,194.75 66.75,153.5 C61.5,112.25 36.5,108.75 35,65.25 C33.895999908447266,33.244998931884766 46.25,34.5 45.75,-1.25 C45.25,-37 21.75,-42.25 17.75,-82.75z"
                    ></path>
                  </g>
                </g>
              </g>
              <g
                transform="matrix(-1,-0.00014587257464881986,0.00014587257464881986,-1,488.9930114746094,497.68902587890625)"
                opacity="1"
                style="display: block;"
              >
                <g opacity="1" transform="matrix(1,0,0,1,0,0)">
                  <path
                    stroke-linecap="butt"
                    stroke-linejoin="miter"
                    fill-opacity="0"
                    stroke-miterlimit="4"
                    stroke="rgb(38,50,56)"
                    stroke-opacity="1"
                    stroke-width="2"
                    d=" M118.50199890136719,-112 C155.70199584960938,-154.39999389648438 164.16900634765625,-215.66700744628906 163.0019989013672,-242.5 C163.0019989013672,-242.5 -163.0019989013672,-242.5 -163.0019989013672,-242.5 C-164.16900634765625,-215.66700744628906 -155.70199584960938,-154.39999389648438 -118.50199890136719,-112 C-72.00199890136719,-59 -29.00200080871582,-51.5 -29.00200080871582,0 C-29.00200080871582,51.5 -72.00199890136719,59 -118.50199890136719,112 C-155.70199584960938,154.39999389648438 -164.1640625,211.71144104003906 -162.99705505371094,238.54444885253906 C-162.99705505371094,238.54444885253906 163.00694274902344,238.54444885253906 163.00694274902344,238.54444885253906 C164.1739501953125,211.71144104003906 155.70199584960938,154.39999389648438 118.50199890136719,112 C72.00199890136719,59 29.00200080871582,51.5 29.00200080871582,0 C29.00200080871582,-51.5 72.00199890136719,-59 118.50199890136719,-112z"
                  ></path>
                </g>
              </g>
              <g
                transform="matrix(-1,-0.00014587257464881986,0.00014587257464881986,-1,488.1632385253906,731.4384155273438)"
                opacity="1"
                style="display: block;"
              >
                <g opacity="1" transform="matrix(1,0,0,1,0,0)">
                  <path
                    fill="rgb(217,217,217)"
                    fill-opacity="1"
                    d=" M-160.5,-11.5 C-160.5,-11.5 160.5,-11.5 160.5,-11.5 C166.0229949951172,-11.5 170.5,-7.0229997634887695 170.5,-1.5 C170.5,-1.5 170.5,1.5 170.5,1.5 C170.5,7.0229997634887695 166.0229949951172,11.5 160.5,11.5 C160.5,11.5 -160.5,11.5 -160.5,11.5 C-166.0229949951172,11.5 -170.5,7.0229997634887695 -170.5,1.5 C-170.5,1.5 -170.5,-1.5 -170.5,-1.5 C-170.5,-7.0229997634887695 -166.0229949951172,-11.5 -160.5,-11.5z"
                  ></path>
                  <path
                    stroke-linecap="butt"
                    stroke-linejoin="miter"
                    fill-opacity="0"
                    stroke-miterlimit="4"
                    stroke="rgb(38,50,56)"
                    stroke-opacity="1"
                    stroke-width="2"
                    d=" M-160.5,-11.5 C-160.5,-11.5 160.5,-11.5 160.5,-11.5 C166.0229949951172,-11.5 170.5,-7.0229997634887695 170.5,-1.5 C170.5,-1.5 170.5,1.5 170.5,1.5 C170.5,7.0229997634887695 166.0229949951172,11.5 160.5,11.5 C160.5,11.5 -160.5,11.5 -160.5,11.5 C-166.0229949951172,11.5 -170.5,7.0229997634887695 -170.5,1.5 C-170.5,1.5 -170.5,-1.5 -170.5,-1.5 C-170.5,-7.0229997634887695 -166.0229949951172,-11.5 -160.5,-11.5z"
                  ></path>
                </g>
              </g>
              <g
                transform="matrix(-1,-0.00014587257464881986,0.00014587257464881986,-1,488.2310485839844,266.43841552734375)"
                opacity="1"
                style="display: block;"
              >
                <g opacity="1" transform="matrix(1,0,0,1,0,0)">
                  <path
                    fill="rgb(217,217,217)"
                    fill-opacity="1"
                    d=" M-160.5,-11.5 C-160.5,-11.5 160.5,-11.5 160.5,-11.5 C166.0229949951172,-11.5 170.5,-7.0229997634887695 170.5,-1.5 C170.5,-1.5 170.5,1.5 170.5,1.5 C170.5,7.0229997634887695 166.0229949951172,11.5 160.5,11.5 C160.5,11.5 -160.5,11.5 -160.5,11.5 C-166.0229949951172,11.5 -170.5,7.0229997634887695 -170.5,1.5 C-170.5,1.5 -170.5,-1.5 -170.5,-1.5 C-170.5,-7.0229997634887695 -166.0229949951172,-11.5 -160.5,-11.5z"
                  ></path>
                  <path
                    stroke-linecap="butt"
                    stroke-linejoin="miter"
                    fill-opacity="0"
                    stroke-miterlimit="4"
                    stroke="rgb(38,50,56)"
                    stroke-opacity="1"
                    stroke-width="2"
                    d=" M-160.5,-11.5 C-160.5,-11.5 160.5,-11.5 160.5,-11.5 C166.0229949951172,-11.5 170.5,-7.0229997634887695 170.5,-1.5 C170.5,-1.5 170.5,1.5 170.5,1.5 C170.5,7.0229997634887695 166.0229949951172,11.5 160.5,11.5 C160.5,11.5 -160.5,11.5 -160.5,11.5 C-166.0229949951172,11.5 -170.5,7.0229997634887695 -170.5,1.5 C-170.5,1.5 -170.5,-1.5 -170.5,-1.5 C-170.5,-7.0229997634887695 -166.0229949951172,-11.5 -160.5,-11.5z"
                  ></path>
                </g>
              </g>
              <g
                transform="matrix(1,0.00014587257464881986,-0.00014587257464881986,1,0.07166805118322372,-0.38230499625205994)"
                opacity="1"
                style="display: block;"
              >
                <g
                  opacity="1"
                  transform="matrix(1,0,0,1,369.60101318359375,322.0639953613281)"
                >
                  <g opacity="1" transform="matrix(1,0,0,1,0,0)">
                    <path
                      fill="rgb(255,255,255)"
                      fill-opacity="1"
                      d=" M-12.475000381469727,5.982999801635742 C-20.735000610351562,-11.241000175476074 -21.847000122070312,-27.882999420166016 -14.956999778747559,-31.187000274658203 C-8.067000389099121,-34.49100112915039 4.215000152587891,-23.207000732421875 12.475000381469727,-5.982999801635742 C20.735000610351562,11.241000175476074 21.847000122070312,27.882999420166016 14.956999778747559,31.187000274658203 C8.067000389099121,34.49100112915039 -4.215000152587891,23.207000732421875 -12.475000381469727,5.982999801635742z"
                    ></path>
                  </g>
                </g>
                <g
                  opacity="1"
                  transform="matrix(1,0,0,1,395.06201171875,371.6629943847656)"
                >
                  <g opacity="1" transform="matrix(1,0,0,1,0,0)">
                    <path
                      fill="rgb(255,255,255)"
                      fill-opacity="1"
                      d=" M-7.995999813079834,3.8350000381469727 C-10.406999588012695,-1.1929999589920044 -8.781999588012695,-6.986000061035156 -4.366000175476074,-9.104000091552734 C0.05000000074505806,-11.222000122070312 5.585000038146973,-8.86299991607666 7.995999813079834,-3.8350000381469727 C10.406999588012695,1.1929999589920044 8.781999588012695,6.986000061035156 4.366000175476074,9.104000091552734 C-0.05000000074505806,11.222000122070312 -5.585000038146973,8.86299991607666 -7.995999813079834,3.8350000381469727z"
                    ></path>
                  </g>
                </g>
              </g>
              <g
                transform="matrix(-1,-0.00014587257464881986,0.00014587257464881986,-1,616.5022583007812,688.015625)"
                opacity="1"
                style="display: block;"
              >
                <g opacity="1" transform="matrix(1,0,0,1,0,0)">
                  <path
                    fill="rgb(255,255,255)"
                    fill-opacity="1"
                    d=" M0,-7 C3.865999937057495,-7 7,-3.865999937057495 7,0 C7,3.865999937057495 3.865999937057495,7 0,7 C-3.865999937057495,7 -7,3.865999937057495 -7,0 C-7,-3.865999937057495 -3.865999937057495,-7 0,-7z"
                  ></path>
                  <path
                    stroke-linecap="butt"
                    stroke-linejoin="miter"
                    fill-opacity="0"
                    stroke-miterlimit="4"
                    stroke="rgb(38,50,56)"
                    stroke-opacity="1"
                    stroke-width="2"
                    d=" M0,-7 C3.865999937057495,-7 7,-3.865999937057495 7,0 C7,3.865999937057495 3.865999937057495,7 0,7 C-3.865999937057495,7 -7,3.865999937057495 -7,0 C-7,-3.865999937057495 -3.865999937057495,-7 0,-7z"
                  ></path>
                </g>
              </g>
              <g
                transform="matrix(-1,-0.00014587257464881986,0.00014587257464881986,-1,356.132080078125,689.0966796875)"
                opacity="1"
                style="display: block;"
              >
                <g opacity="1" transform="matrix(1,0,0,1,0,0)">
                  <path
                    fill="rgb(255,255,255)"
                    fill-opacity="1"
                    d=" M0,-4.552000045776367 C2.5139999389648438,-4.552000045776367 4.552000045776367,-2.5139999389648438 4.552000045776367,0 C4.552000045776367,2.5139999389648438 2.5139999389648438,4.552000045776367 0,4.552000045776367 C-2.5139999389648438,4.552000045776367 -4.552000045776367,2.5139999389648438 -4.552000045776367,0 C-4.552000045776367,-2.5139999389648438 -2.5139999389648438,-4.552000045776367 0,-4.552000045776367z"
                  ></path>
                  <path
                    stroke-linecap="butt"
                    stroke-linejoin="miter"
                    fill-opacity="0"
                    stroke-miterlimit="4"
                    stroke="rgb(38,50,56)"
                    stroke-opacity="1"
                    stroke-width="2"
                    d=" M0,-4.552000045776367 C2.5139999389648438,-4.552000045776367 4.552000045776367,-2.5139999389648438 4.552000045776367,0 C4.552000045776367,2.5139999389648438 2.5139999389648438,4.552000045776367 0,4.552000045776367 C-2.5139999389648438,4.552000045776367 -4.552000045776367,2.5139999389648438 -4.552000045776367,0 C-4.552000045776367,-2.5139999389648438 -2.5139999389648438,-4.552000045776367 0,-4.552000045776367z"
                  ></path>
                </g>
              </g>
              <g
                transform="matrix(-1,-0.00014587257464881986,0.00014587257464881986,-1,564.3914794921875,659.0280151367188)"
                opacity="1"
                style="display: block;"
              >
                <g opacity="1" transform="matrix(1,0,0,1,0,0)">
                  <path
                    fill="rgb(255,255,255)"
                    fill-opacity="1"
                    d=" M0,-4.5 C2.484999895095825,-4.5 4.5,-2.484999895095825 4.5,0 C4.5,2.484999895095825 2.484999895095825,4.5 0,4.5 C-2.484999895095825,4.5 -4.5,2.484999895095825 -4.5,0 C-4.5,-2.484999895095825 -2.484999895095825,-4.5 0,-4.5z"
                  ></path>
                  <path
                    stroke-linecap="butt"
                    stroke-linejoin="miter"
                    fill-opacity="0"
                    stroke-miterlimit="4"
                    stroke="rgb(38,50,56)"
                    stroke-opacity="1"
                    stroke-width="2"
                    d=" M0,-4.5 C2.484999895095825,-4.5 4.5,-2.484999895095825 4.5,0 C4.5,2.484999895095825 2.484999895095825,4.5 0,4.5 C-2.484999895095825,4.5 -4.5,2.484999895095825 -4.5,0 C-4.5,-2.484999895095825 -2.484999895095825,-4.5 0,-4.5z"
                  ></path>
                </g>
              </g>
              <g
                transform="matrix(-1,-0.00014587257464881986,0.00014587257464881986,-1,454.3853759765625,700.886962890625)"
                opacity="1"
                style="display: block;"
              >
                <g opacity="1" transform="matrix(1,0,0,1,0,0)">
                  <path
                    fill="rgb(255,255,255)"
                    fill-opacity="1"
                    d=" M0,-6.665999889373779 C3.680999994277954,-6.665999889373779 6.665999889373779,-3.680999994277954 6.665999889373779,0 C6.665999889373779,3.680999994277954 3.680999994277954,6.665999889373779 0,6.665999889373779 C-3.680999994277954,6.665999889373779 -6.665999889373779,3.680999994277954 -6.665999889373779,0 C-6.665999889373779,-3.680999994277954 -3.680999994277954,-6.665999889373779 0,-6.665999889373779z"
                  ></path>
                  <path
                    stroke-linecap="butt"
                    stroke-linejoin="miter"
                    fill-opacity="0"
                    stroke-miterlimit="4"
                    stroke="rgb(38,50,56)"
                    stroke-opacity="1"
                    stroke-width="2"
                    d=" M0,-6.665999889373779 C3.680999994277954,-6.665999889373779 6.665999889373779,-3.680999994277954 6.665999889373779,0 C6.665999889373779,3.680999994277954 3.680999994277954,6.665999889373779 0,6.665999889373779 C-3.680999994277954,6.665999889373779 -6.665999889373779,3.680999994277954 -6.665999889373779,0 C-6.665999889373779,-3.680999994277954 -3.680999994277954,-6.665999889373779 0,-6.665999889373779z"
                  ></path>
                </g>
              </g>
              <g
                style="display: block;"
                transform="matrix(-1,-0.00014587257464881986,0.00014587257464881986,-1,475.0157775878906,663.8900146484375)"
                opacity="1"
              >
                <g opacity="1" transform="matrix(1,0,0,1,0,0)">
                  <path
                    fill="rgb(255,255,255)"
                    fill-opacity="1"
                    d=" M0,-4.540999889373779 C2.507999897003174,-4.540999889373779 4.540999889373779,-2.507999897003174 4.540999889373779,0 C4.540999889373779,2.507999897003174 2.507999897003174,4.540999889373779 0,4.540999889373779 C-2.507999897003174,4.540999889373779 -4.540999889373779,2.507999897003174 -4.540999889373779,0 C-4.540999889373779,-2.507999897003174 -2.507999897003174,-4.540999889373779 0,-4.540999889373779z"
                  ></path>
                  <path
                    stroke-linecap="butt"
                    stroke-linejoin="miter"
                    fill-opacity="0"
                    stroke-miterlimit="4"
                    stroke="rgb(38,50,56)"
                    stroke-opacity="1"
                    stroke-width="2"
                    d=" M0,-4.540999889373779 C2.507999897003174,-4.540999889373779 4.540999889373779,-2.507999897003174 4.540999889373779,0 C4.540999889373779,2.507999897003174 2.507999897003174,4.540999889373779 0,4.540999889373779 C-2.507999897003174,4.540999889373779 -4.540999889373779,2.507999897003174 -4.540999889373779,0 C-4.540999889373779,-2.507999897003174 -2.507999897003174,-4.540999889373779 0,-4.540999889373779z"
                  ></path>
                </g>
              </g>
              <g
                transform="matrix(-1,-0.00014587257464881986,0.00014587257464881986,-1,513.320556640625,603.8155517578125)"
                opacity="1"
                style="display: block;"
              >
                <g opacity="1" transform="matrix(1,0,0,1,0,0)">
                  <path
                    fill="rgb(255,255,255)"
                    fill-opacity="1"
                    d=" M0,-7 C3.865999937057495,-7 7,-3.865999937057495 7,0 C7,3.865999937057495 3.865999937057495,7 0,7 C-3.865999937057495,7 -7,3.865999937057495 -7,0 C-7,-3.865999937057495 -3.865999937057495,-7 0,-7z"
                  ></path>
                  <path
                    stroke-linecap="butt"
                    stroke-linejoin="miter"
                    fill-opacity="0"
                    stroke-miterlimit="4"
                    stroke="rgb(38,50,56)"
                    stroke-opacity="1"
                    stroke-width="2"
                    d=" M0,-7 C3.865999937057495,-7 7,-3.865999937057495 7,0 C7,3.865999937057495 3.865999937057495,7 0,7 C-3.865999937057495,7 -7,3.865999937057495 -7,0 C-7,-3.865999937057495 -3.865999937057495,-7 0,-7z"
                  ></path>
                </g>
              </g>
              <g
                transform="matrix(0.5166582465171814,-0.8561917543411255,0.8561917543411255,0.5166582465171814,-321.4299621582031,687.1543579101562)"
                opacity="1"
                style="display: block;"
              >
                <g
                  opacity="1"
                  transform="matrix(1,0,0,1,456.2720031738281,605.1640014648438)"
                >
                  <path
                    fill="rgb(155,155,155)"
                    fill-opacity="1"
                    d=" M31.64900016784668,4.486000061035156 C31.958999633789062,19.836000442504883 19.474000930786133,29.95400047302246 10.951000213623047,29.908000946044922 C10.951000213623047,29.908000946044922 -0.7400000095367432,29.868000030517578 -0.7400000095367432,29.868000030517578 C-0.7400000095367432,29.868000030517578 -0.4560000002384186,-22.131000518798828 -0.4560000002384186,-22.131000518798828 C-0.4560000002384186,-22.131000518798828 11.234999656677246,-22.091999053955078 11.234999656677246,-22.091999053955078 C19.759000778198242,-22.045000076293945 31.29199981689453,-13.16100025177002 31.64900016784668,4.486000061035156z"
                  ></path>
                  <path
                    stroke-linecap="butt"
                    stroke-linejoin="miter"
                    fill-opacity="0"
                    stroke-miterlimit="4"
                    stroke="rgb(38,50,56)"
                    stroke-opacity="1"
                    stroke-width="2"
                    d=" M31.64900016784668,4.486000061035156 C31.958999633789062,19.836000442504883 19.474000930786133,29.95400047302246 10.951000213623047,29.908000946044922 C10.951000213623047,29.908000946044922 -0.7400000095367432,29.868000030517578 -0.7400000095367432,29.868000030517578 C-0.7400000095367432,29.868000030517578 -0.4560000002384186,-22.131000518798828 -0.4560000002384186,-22.131000518798828 C-0.4560000002384186,-22.131000518798828 11.234999656677246,-22.091999053955078 11.234999656677246,-22.091999053955078 C19.759000778198242,-22.045000076293945 31.29199981689453,-13.16100025177002 31.64900016784668,4.486000061035156z"
                  ></path>
                </g>
                <g
                  opacity="1"
                  transform="matrix(1,0,0,1,453.7969970703125,612.5479736328125)"
                >
                  <path
                    fill="rgb(255,255,255)"
                    fill-opacity="1"
                    d=" M26.802000045776367,-3.4040000438690186 C26.93400001525879,-17.82699966430664 15.626999855041504,-29.555999755859375 1.5479999780654907,-29.601999282836914 C-12.531000137329102,-29.648000717163086 -24.052000045776367,-17.993000030517578 -24.18400001525879,-3.569999933242798 C-24.31599998474121,10.852999687194824 -13.008999824523926,22.58300018310547 1.0700000524520874,22.628999710083008 C15.14900016784668,22.674999237060547 26.670000076293945,11.019000053405762 26.802000045776367,-3.4040000438690186z"
                  ></path>
                  <path
                    stroke-linecap="butt"
                    stroke-linejoin="miter"
                    fill-opacity="0"
                    stroke-miterlimit="4"
                    stroke="rgb(38,50,56)"
                    stroke-opacity="1"
                    stroke-width="2"
                    d=" M26.802000045776367,-3.4040000438690186 C26.93400001525879,-17.82699966430664 15.626999855041504,-29.555999755859375 1.5479999780654907,-29.601999282836914 C-12.531000137329102,-29.648000717163086 -24.052000045776367,-17.993000030517578 -24.18400001525879,-3.569999933242798 C-24.31599998474121,10.852999687194824 -13.008999824523926,22.58300018310547 1.0700000524520874,22.628999710083008 C15.14900016784668,22.674999237060547 26.670000076293945,11.019000053405762 26.802000045776367,-3.4040000438690186z"
                  ></path>
                </g>
                <g
                  opacity="1"
                  transform="matrix(1,0,0,1,453.7959899902344,612.5499877929688)"
                >
                  <path
                    fill="rgb(226,226,226)"
                    fill-opacity="1"
                    d=" M20.84000015258789,-3.431999921798706 C20.961999893188477,-15.309000015258789 11.602999687194824,-23.839000701904297 1.9839999675750732,-23.8700008392334 C-7.635000228881836,-23.900999069213867 -18.106000900268555,-15.42300033569336 -18.22800064086914,-3.5460000038146973 C-18.350000381469727,8.331000328063965 -8.46500015258789,16.861000061035156 1.1540000438690186,16.892000198364258 C10.77299976348877,16.92300033569336 20.718000411987305,8.444999694824219 20.84000015258789,-3.431999921798706z"
                  ></path>
                  <path
                    stroke-linecap="butt"
                    stroke-linejoin="miter"
                    fill-opacity="0"
                    stroke-miterlimit="4"
                    stroke="rgb(38,50,56)"
                    stroke-opacity="1"
                    stroke-width="2"
                    d=" M20.84000015258789,-3.431999921798706 C20.961999893188477,-15.309000015258789 11.602999687194824,-23.839000701904297 1.9839999675750732,-23.8700008392334 C-7.635000228881836,-23.900999069213867 -18.106000900268555,-15.42300033569336 -18.22800064086914,-3.5460000038146973 C-18.350000381469727,8.331000328063965 -8.46500015258789,16.861000061035156 1.1540000438690186,16.892000198364258 C10.77299976348877,16.92300033569336 20.718000411987305,8.444999694824219 20.84000015258789,-3.431999921798706z"
                  ></path>
                </g>
              </g>
              <g
                transform="matrix(0.9291843175888062,-0.36961671710014343,0.36961671710014343,0.9291843175888062,-273.1085205078125,430.0506896972656)"
                opacity="1"
                style="display: block;"
              >
                <g
                  opacity="1"
                  transform="matrix(1,0,0,1,537.2340087890625,661.7139892578125)"
                >
                  <g opacity="1" transform="matrix(1,0,0,1,0,0)">
                    <path
                      fill="rgb(155,155,155)"
                      fill-opacity="1"
                      d=" M150.3443603515625,-96.07699584960938 C125.66394805908203,-96.10399627685547 105.6810531616211,-117.88300323486328 105.71105194091797,-144.72300720214844 C105.73304748535156,-164.68800354003906 116.82288360595703,-181.8260040283203 132.65921020507812,-189.28700256347656 C138.11264038085938,-191.8560028076172 144.12901306152344,-193.2779998779297 150.4513397216797,-193.27099609375 C150.4513397216797,-193.27099609375 160.0229949951172,-193.26100158691406 160.0229949951172,-193.26100158691406 C160.0229949951172,-193.26100158691406 159.9149932861328,-96.06700134277344 159.9149932861328,-96.06700134277344 C159.9149932861328,-96.06700134277344 150.3443603515625,-96.07699584960938 150.3443603515625,-96.07699584960938z"
                    ></path>
                    <path
                      stroke-linecap="butt"
                      stroke-linejoin="miter"
                      fill-opacity="0"
                      stroke-miterlimit="4"
                      stroke="rgb(38,42,51)"
                      stroke-opacity="1"
                      stroke-width="2"
                      d=" M150.3443603515625,-96.07699584960938 C125.66394805908203,-96.10399627685547 105.6810531616211,-117.88300323486328 105.71105194091797,-144.72300720214844 C105.73304748535156,-164.68800354003906 116.82288360595703,-181.8260040283203 132.65921020507812,-189.28700256347656 C138.11264038085938,-191.8560028076172 144.12901306152344,-193.2779998779297 150.4513397216797,-193.27099609375 C150.4513397216797,-193.27099609375 160.0229949951172,-193.26100158691406 160.0229949951172,-193.26100158691406 C160.0229949951172,-193.26100158691406 159.9149932861328,-96.06700134277344 159.9149932861328,-96.06700134277344 C159.9149932861328,-96.06700134277344 150.3443603515625,-96.07699584960938 150.3443603515625,-96.07699584960938z"
                    ></path>
                  </g>
                </g>
                <g
                  opacity="1"
                  transform="matrix(1,0,0,1,552.0789794921875,657.197998046875)"
                >
                  <g opacity="1" transform="matrix(1,0,0,1,0,0)">
                    <path
                      fill="rgb(255,255,255)"
                      fill-opacity="1"
                      d=" M144.5489959716797,-188.7429962158203 C119.86862182617188,-188.77000427246094 99.83875274658203,-167.03500366210938 99.80875396728516,-140.1959991455078 C99.77875518798828,-113.35700225830078 119.76163482666016,-91.5770034790039 144.44200134277344,-91.55000305175781 C169.12237548828125,-91.52300262451172 189.15225219726562,-113.25800323486328 189.1822509765625,-140.0970001220703 C189.21224975585938,-166.93600463867188 169.2293701171875,-188.71600341796875 144.5489959716797,-188.7429962158203z"
                    ></path>
                    <path
                      stroke-linecap="butt"
                      stroke-linejoin="miter"
                      fill-opacity="0"
                      stroke-miterlimit="4"
                      stroke="rgb(38,42,51)"
                      stroke-opacity="1"
                      stroke-width="2"
                      d=" M144.5489959716797,-188.7429962158203 C119.86862182617188,-188.77000427246094 99.83875274658203,-167.03500366210938 99.80875396728516,-140.1959991455078 C99.77875518798828,-113.35700225830078 119.76163482666016,-91.5770034790039 144.44200134277344,-91.55000305175781 C169.12237548828125,-91.52300262451172 189.15225219726562,-113.25800323486328 189.1822509765625,-140.0970001220703 C189.21224975585938,-166.93600463867188 169.2293701171875,-188.71600341796875 144.5489959716797,-188.7429962158203z"
                    ></path>
                  </g>
                </g>
                <g
                  opacity="1"
                  transform="matrix(1,0,0,1,551.7960205078125,657.3510131835938)"
                >
                  <g opacity="1" transform="matrix(1,0,0,1,0,0)">
                    <path
                      fill="rgb(155,155,155)"
                      fill-opacity="1"
                      d=" M144.5020294189453,-180.76800537109375 C123.88322448730469,-180.79100036621094 107.14800262451172,-162.69200134277344 107.12300872802734,-140.3419952392578 C107.09800720214844,-117.99199676513672 123.7932357788086,-99.85600280761719 144.4120330810547,-99.83300018310547 C165.0308380126953,-99.80999755859375 181.7660675048828,-117.90899658203125 181.7910614013672,-140.25900268554688 C181.81605529785156,-162.60899353027344 165.12083435058594,-180.7449951171875 144.5020294189453,-180.76800537109375z"
                    ></path>
                  </g>
                </g>
                <g opacity="1" transform="matrix(1,0,0,1,0,0)">
                  <g
                    opacity="1"
                    transform="matrix(1,0,0,1,551.8109741210938,653.8880004882812)"
                  >
                    <path
                      stroke-linecap="round"
                      stroke-linejoin="round"
                      fill-opacity="0"
                      stroke="rgb(38,42,51)"
                      stroke-opacity="1"
                      stroke-width="2"
                      d=" M156.05279541015625,-138.50999450683594 C152.0292205810547,-137.58099365234375 142.4322509765625,-136.84500122070312 136.23190307617188,-141.33399963378906"
                    ></path>
                  </g>
                  <g
                    opacity="1"
                    transform="matrix(1,0,0,1,570.3599853515625,645.083984375)"
                  >
                    <path
                      stroke-linecap="round"
                      stroke-linejoin="round"
                      fill-opacity="0"
                      stroke="rgb(38,42,51)"
                      stroke-opacity="1"
                      stroke-width="2"
                      d=" M153.6650848388672,-129.9010009765625 C152.08424377441406,-129.11300659179688 147.62872314453125,-128.00999450683594 142.4592742919922,-129.91299438476562"
                    ></path>
                  </g>
                  <g
                    opacity="1"
                    transform="matrix(1,0,0,1,553.0750122070312,662.802978515625)"
                  >
                    <path
                      fill="rgb(226,226,226)"
                      fill-opacity="1"
                      d=" M156.54461669921875,-176.7270050048828 C151.0281982421875,-177.76800537109375 146.91763305664062,-175.4459991455078 145.55178833007812,-174.1540069580078 C143.75697326660156,-175.80799865722656 140.7303009033203,-178.8179931640625 135.21287536621094,-178.47999572753906 C128.31661987304688,-178.05799865722656 116.58885955810547,-167.84500122070312 106.21696472167969,-141.12899780273438 C113.86515045166016,-98.67900085449219 149.61834716796875,-105.25299835205078 152.4720458984375,-106.427001953125 C164.48776245117188,-111.37200164794922 170.02218627929688,-122.88400268554688 171.57601928710938,-129.2989959716797 C174.1637420654297,-130.80999755859375 174.81466674804688,-133.8260040283203 173.09185791015625,-135.5469970703125 C176.54348754882812,-138.56500244140625 175.4696044921875,-142.4459991455078 171.59400939941406,-145.89300537109375 C173.10484313964844,-147.39999389648438 175.52259826660156,-152.531005859375 173.11685180664062,-158.39599609375 C171.08206176757812,-163.35499572753906 166.8775177001953,-166.80799865722656 164.50875854492188,-168.31399536132812 C164.15280151367188,-170.68600463867188 162.06002807617188,-175.68600463867188 156.54461669921875,-176.7270050048828z"
                    ></path>
                    <path
                      stroke-linecap="round"
                      stroke-linejoin="round"
                      fill-opacity="0"
                      stroke="rgb(38,42,51)"
                      stroke-opacity="1"
                      stroke-width="2"
                      d=" M156.54461669921875,-176.7270050048828 C151.0281982421875,-177.76800537109375 146.91763305664062,-175.4459991455078 145.55178833007812,-174.1540069580078 C143.75697326660156,-175.80799865722656 140.7303009033203,-178.8179931640625 135.21287536621094,-178.47999572753906 C128.31661987304688,-178.05799865722656 116.58885955810547,-167.84500122070312 106.21696472167969,-141.12899780273438 C113.86515045166016,-98.67900085449219 149.61834716796875,-105.25299835205078 152.4720458984375,-106.427001953125 C164.48776245117188,-111.37200164794922 170.02218627929688,-122.88400268554688 171.57601928710938,-129.2989959716797 C174.1637420654297,-130.80999755859375 174.81466674804688,-133.8260040283203 173.09185791015625,-135.5469970703125 C176.54348754882812,-138.56500244140625 175.4696044921875,-142.4459991455078 171.59400939941406,-145.89300537109375 C173.10484313964844,-147.39999389648438 175.52259826660156,-152.531005859375 173.11685180664062,-158.39599609375 C171.08206176757812,-163.35499572753906 166.8775177001953,-166.80799865722656 164.50875854492188,-168.31399536132812 C164.15280151367188,-170.68600463867188 162.06002807617188,-175.68600463867188 156.54461669921875,-176.7270050048828z"
                    ></path>
                  </g>
                  <g
                    opacity="1"
                    transform="matrix(1,0,0,1,562.864013671875,659.3380126953125)"
                  >
                    <path
                      fill="rgb(255,255,255)"
                      fill-opacity="1"
                      d=" M154.6817626953125,-131.87899780273438 C161.25306701660156,-131.8719940185547 163.8807830810547,-136.53799438476562 164.38673400878906,-139.19500732421875 C166.3235321044922,-137.03799438476562 165.02166748046875,-133.24099731445312 163.51182556152344,-132.09300231933594 C164.37173461914062,-130.8260040283203 164.72869873046875,-128.23199462890625 163.21885681152344,-126.94000244140625 C162.0609893798828,-125.9489974975586 159.84622192382812,-123.68299865722656 150.14724731445312,-123.69400024414062 C126.22779846191406,-123.72100067138672 114.60303497314453,-133.86199951171875 117.4077377319336,-137.0919952392578 C120.21243286132812,-140.32200622558594 133.77999877929688,-131.90199279785156 154.6817626953125,-131.87899780273438z"
                    ></path>
                    <path
                      stroke-linecap="round"
                      stroke-linejoin="round"
                      fill-opacity="0"
                      stroke="rgb(38,42,51)"
                      stroke-opacity="1"
                      stroke-width="2"
                      d=" M154.6817626953125,-131.87899780273438 C161.25306701660156,-131.8719940185547 163.8807830810547,-136.53799438476562 164.38673400878906,-139.19500732421875 C166.3235321044922,-137.03799438476562 165.02166748046875,-133.24099731445312 163.51182556152344,-132.09300231933594 C164.37173461914062,-130.8260040283203 164.72869873046875,-128.23199462890625 163.21885681152344,-126.94000244140625 C162.0609893798828,-125.9489974975586 159.84622192382812,-123.68299865722656 150.14724731445312,-123.69400024414062 C126.22779846191406,-123.72100067138672 114.60303497314453,-133.86199951171875 117.4077377319336,-137.0919952392578 C120.21243286132812,-140.32200622558594 133.77999877929688,-131.90199279785156 154.6817626953125,-131.87899780273438z"
                    ></path>
                  </g>
                  <g
                    opacity="1"
                    transform="matrix(1,0,0,1,546.364990234375,647.5640258789062)"
                  >
                    <path
                      stroke-linecap="round"
                      stroke-linejoin="round"
                      fill-opacity="0"
                      stroke="rgb(38,42,51)"
                      stroke-opacity="1"
                      stroke-width="2"
                      d=" M162.72067260742188,-140.1820068359375 C160.137939453125,-143.41700744628906 156.04638671875,-145.8990020751953 150.52197265625,-146.63299560546875 C143.97166442871094,-147.5030059814453 138.3082733154297,-143.98800659179688 136.2944793701172,-142.1230010986328"
                    ></path>
                  </g>
                  <g
                    opacity="1"
                    transform="matrix(1,0,0,1,566.0239868164062,636.7570190429688)"
                  >
                    <path
                      stroke-linecap="round"
                      stroke-linejoin="round"
                      fill-opacity="0"
                      stroke="rgb(38,42,51)"
                      stroke-opacity="1"
                      stroke-width="2"
                      d=" M159.7368927001953,-133.4219970703125 C156.3622589111328,-134.21600341796875 149.06002807617188,-135.57400512695312 145.43141174316406,-128.50900268554688"
                    ></path>
                  </g>
                  <g
                    opacity="1"
                    transform="matrix(1,0,0,1,563.8679809570312,660.7420043945312)"
                  >
                    <path
                      stroke-linecap="round"
                      stroke-linejoin="round"
                      fill-opacity="0"
                      stroke="rgb(38,42,51)"
                      stroke-opacity="1"
                      stroke-width="2"
                      d=" M162.85879516601562,-133.73899841308594 C161.72691345214844,-132.85000610351562 158.0443115234375,-130.0469970703125 150.44610595703125,-130.05599975585938 C140.96412658691406,-130.06700134277344 127.39156341552734,-132.88400268554688 119.8533706665039,-136.12399291992188"
                    ></path>
                  </g>
                  <g
                    opacity="1"
                    transform="matrix(1,0,0,1,547.531982421875,634.9349975585938)"
                  >
                    <path
                      stroke-linecap="round"
                      stroke-linejoin="round"
                      fill-opacity="0"
                      stroke="rgb(38,42,51)"
                      stroke-opacity="1"
                      stroke-width="2"
                      d=" M151.09178161621094,-146.5050048828125 C152.16766357421875,-145.4250030517578 152.5956268310547,-142.62399291992188 152.5956268310547,-142.62399291992188 C154.75039672851562,-142.1909942626953 159.31491088867188,-139.5989990234375 160.341796875,-132.7010040283203"
                    ></path>
                  </g>
                  <g
                    opacity="1"
                    transform="matrix(1,0,0,1,552.3800048828125,631.0709838867188)"
                  >
                    <path
                      stroke-linecap="round"
                      stroke-linejoin="round"
                      fill-opacity="0"
                      stroke="rgb(38,42,51)"
                      stroke-opacity="1"
                      stroke-width="2"
                      d=" M162.10809326171875,-136.80299377441406 C159.95433044433594,-137.5240020751953 155.98175048828125,-138.53399658203125 151.84219360351562,-136.81399536132812"
                    ></path>
                  </g>
                  <g
                    opacity="1"
                    transform="matrix(1,0,0,1,536.9190063476562,638.875)"
                  >
                    <path
                      stroke-linecap="round"
                      stroke-linejoin="round"
                      fill-opacity="0"
                      stroke="rgb(38,42,51)"
                      stroke-opacity="1"
                      stroke-width="2"
                      d=" M163.20962524414062,-146.56199645996094 C159.11605834960938,-147.42799377441406 151.49786376953125,-148.10899353027344 147.0453338623047,-143.77699279785156"
                    ></path>
                  </g>
                  <g
                    opacity="1"
                    transform="matrix(1,0,0,1,548.81201171875,649.3289794921875)"
                  >
                    <path
                      fill="rgb(255,255,255)"
                      fill-opacity="1"
                      d=" M154.75025939941406,-143.00399780273438 C158.02490234375,-142.8280029296875 159.55874633789062,-138.9040069580078 159.91571044921875,-136.96499633789062 C159.19677734375,-136.53399658203125 156.3800811767578,-135.71800231933594 150.86366271972656,-135.89700317382812 C145.34725952148438,-136.0760040283203 138.65696716308594,-140.00599670410156 136.00125122070312,-141.947998046875 C140.88673400878906,-142.37399291992188 151.47560119628906,-143.17999267578125 154.75025939941406,-143.00399780273438z"
                    ></path>
                    <path
                      stroke-linecap="round"
                      stroke-linejoin="round"
                      fill-opacity="0"
                      stroke="rgb(38,42,51)"
                      stroke-opacity="1"
                      stroke-width="2"
                      d=" M154.75025939941406,-143.00399780273438 C158.02490234375,-142.8280029296875 159.55874633789062,-138.9040069580078 159.91571044921875,-136.96499633789062 C159.19677734375,-136.53399658203125 156.3800811767578,-135.71800231933594 150.86366271972656,-135.89700317382812 C145.34725952148438,-136.0760040283203 138.65696716308594,-140.00599670410156 136.00125122070312,-141.947998046875 C140.88673400878906,-142.37399291992188 151.47560119628906,-143.17999267578125 154.75025939941406,-143.00399780273438z"
                    ></path>
                  </g>
                  <g
                    opacity="1"
                    transform="matrix(1,0,0,1,568.864013671875,640.958984375)"
                  >
                    <path
                      fill="rgb(255,255,255)"
                      fill-opacity="1"
                      d=" M149.78065490722656,-134.18800354003906 C153.22727966308594,-134.1840057373047 156.81690979003906,-132.31199645996094 158.18075561523438,-131.3769989013672 C157.31785583496094,-130.22799682617188 154.64413452148438,-127.84500122070312 150.8505401611328,-127.50499725341797 C147.05694580078125,-127.16500091552734 143.5253143310547,-128.23199462890625 142.23245239257812,-128.80799865722656 C143.31234741210938,-130.60299682617188 146.33201599121094,-134.19200134277344 149.78065490722656,-134.18800354003906z"
                    ></path>
                    <path
                      stroke-linecap="round"
                      stroke-linejoin="round"
                      fill-opacity="0"
                      stroke="rgb(38,42,51)"
                      stroke-opacity="1"
                      stroke-width="2"
                      d=" M149.78065490722656,-134.18800354003906 C153.22727966308594,-134.1840057373047 156.81690979003906,-132.31199645996094 158.18075561523438,-131.3769989013672 C157.31785583496094,-130.22799682617188 154.64413452148438,-127.84500122070312 150.8505401611328,-127.50499725341797 C147.05694580078125,-127.16500091552734 143.5253143310547,-128.23199462890625 142.23245239257812,-128.80799865722656 C143.31234741210938,-130.60299682617188 146.33201599121094,-134.19200134277344 149.78065490722656,-134.18800354003906z"
                    ></path>
                  </g>
                  <g
                    opacity="1"
                    transform="matrix(1,0,0,1,547.8679809570312,650.3809814453125)"
                  >
                    <path
                      fill="rgb(38,42,51)"
                      fill-opacity="1"
                      d=" M153.3195037841797,-140.82699584960938 C153.32150268554688,-142.37899780273438 152.46060180664062,-143.48599243164062 152.02964782714844,-143.84500122070312 C152.02964782714844,-143.84500122070312 143.40956115722656,-143.4239959716797 143.40956115722656,-143.4239959716797 C143.40956115722656,-143.4239959716797 142.11370849609375,-140.1929931640625 142.11370849609375,-140.1929931640625 C145.956298828125,-137.8159942626953 148.12606811523438,-137.2519989013672 152.02264404296875,-137.3800048828125 C152.45460510253906,-137.88299560546875 153.3175048828125,-139.27499389648438 153.3195037841797,-140.82699584960938z"
                    ></path>
                  </g>
                  <g
                    opacity="1"
                    transform="matrix(1,0,0,1,567.698974609375,640.801025390625)"
                  >
                    <path
                      fill="rgb(38,42,51)"
                      fill-opacity="1"
                      d=" M154.394287109375,-131.01100158691406 C154.39527893066406,-132.21800231933594 153.53536987304688,-133.3820037841797 153.1044158935547,-133.81399536132812 C150.86465454101562,-135.3679962158203 147.9979705810547,-133.2010040283203 146.34414672851562,-131.69400024414062 C145.83119201660156,-130.23500061035156 145.8651885986328,-129.46099853515625 146.77110290527344,-128.0290069580078 C150.75767517089844,-127.19999694824219 151.2366180419922,-127.18599700927734 153.5293731689453,-127.77899932861328 C153.81634521484375,-128.35299682617188 154.39328002929688,-129.8040008544922 154.394287109375,-131.01100158691406z"
                    ></path>
                    <path
                      stroke-linecap="butt"
                      stroke-linejoin="miter"
                      fill-opacity="0"
                      stroke-miterlimit="4"
                      stroke="rgb(38,42,51)"
                      stroke-opacity="1"
                      stroke-width="2"
                      d=" M154.394287109375,-131.01100158691406 C154.39527893066406,-132.21800231933594 153.53536987304688,-133.3820037841797 153.1044158935547,-133.81399536132812 C150.86465454101562,-135.3679962158203 147.9979705810547,-133.2010040283203 146.34414672851562,-131.69400024414062 C145.83119201660156,-130.23500061035156 145.8651885986328,-129.46099853515625 146.77110290527344,-128.0290069580078 C150.75767517089844,-127.19999694824219 151.2366180419922,-127.18599700927734 153.5293731689453,-127.77899932861328 C153.81634521484375,-128.35299682617188 154.39328002929688,-129.8040008544922 154.394287109375,-131.01100158691406z"
                    ></path>
                  </g>
                </g>
                <g
                  opacity="1"
                  transform="matrix(1,0,0,1,552.0809936523438,657.2000122070312)"
                >
                  <g opacity="1" transform="matrix(1,0,0,1,0,0)">
                    <path
                      stroke-linecap="butt"
                      stroke-linejoin="miter"
                      fill-opacity="0"
                      stroke-miterlimit="4"
                      stroke="rgb(38,42,51)"
                      stroke-opacity="1"
                      stroke-width="2"
                      d=" M144.53900146484375,-180.49899291992188 C123.93218994140625,-180.52200317382812 107.20796966552734,-162.47300720214844 107.18296813964844,-140.18699645996094 C107.18096923828125,-138.1540069580078 107.31695556640625,-136.15699768066406 107.58292388916016,-134.2050018310547 C110.233642578125,-114.75299835205078 125.7229995727539,-99.81400299072266 144.4499969482422,-99.79299926757812 C165.0568084716797,-99.7699966430664 181.78103637695312,-117.81800079345703 181.8060302734375,-140.10400390625 C181.83102416992188,-162.38999938964844 165.1457977294922,-180.4759979248047 144.53900146484375,-180.49899291992188z"
                    ></path>
                  </g>
                </g>
              </g>
              <g
                transform="matrix(0.9735456109046936,0.2284928858280182,-0.2284928858280182,0.9735456109046936,157.07177734375,-79.30062866210938)"
                opacity="1"
                style="display: block;"
              >
                <g
                  opacity="1"
                  transform="matrix(1,0,0,1,417.45599365234375,670.6890258789062)"
                >
                  <path
                    fill="rgb(255,255,255)"
                    fill-opacity="1"
                    d=" M3.2869999408721924,26.607999801635742 C1.7319999933242798,26.597999572753906 0.17399999499320984,26.46299934387207 -1.312000036239624,26.20800018310547 C-14.404999732971191,23.91699981689453 -24.32699966430664,12.432000160217285 -24.238000869750977,-1.3619999885559082 C-24.14900016784668,-15.29800033569336 -13.87600040435791,-26.757999420166016 -0.5580000281333923,-28.695999145507812 C0.8009999990463257,-28.889999389648438 2.2290000915527344,-28.985000610351562 3.6429998874664307,-28.97599983215332 C18.91200065612793,-28.878000259399414 31.207000732421875,-16.354999542236328 31.108999252319336,-1.00600004196167 C31.01099967956543,14.343000411987305 18.55699920654297,26.70599937438965 3.2869999408721924,26.607999801635742z"
                  ></path>
                  <path
                    stroke-linecap="butt"
                    stroke-linejoin="miter"
                    fill-opacity="0"
                    stroke-miterlimit="4"
                    stroke="rgb(38,50,56)"
                    stroke-opacity="1"
                    stroke-width="2"
                    d=" M3.2869999408721924,26.607999801635742 C1.7319999933242798,26.597999572753906 0.17399999499320984,26.46299934387207 -1.312000036239624,26.20800018310547 C-14.404999732971191,23.91699981689453 -24.32699966430664,12.432000160217285 -24.238000869750977,-1.3619999885559082 C-24.14900016784668,-15.29800033569336 -13.87600040435791,-26.757999420166016 -0.5580000281333923,-28.695999145507812 C0.8009999990463257,-28.889999389648438 2.2290000915527344,-28.985000610351562 3.6429998874664307,-28.97599983215332 C18.91200065612793,-28.878000259399414 31.207000732421875,-16.354999542236328 31.108999252319336,-1.00600004196167 C31.01099967956543,14.343000411987305 18.55699920654297,26.70599937438965 3.2869999408721924,26.607999801635742z"
                  ></path>
                </g>
                <g
                  opacity="1"
                  transform="matrix(1,0,0,1,411.4209899902344,668.5250244140625)"
                >
                  <path
                    fill="rgb(255,255,255)"
                    fill-opacity="1"
                    d=" M2.884999990463257,28.72599983215332 C-12.381999969482422,28.628000259399414 -24.679000854492188,16.104999542236328 -24.58099937438965,0.7559999823570251 C-24.482999801635742,-14.593000411987305 -12.027999877929688,-26.95599937438965 3.239000082015991,-26.857999801635742 C18.506000518798828,-26.760000228881836 30.80299949645996,-14.237000465393066 30.704999923706055,1.1119999885559082 C30.60700035095215,16.461000442504883 18.152000427246094,28.823999404907227 2.884999990463257,28.72599983215332z"
                  ></path>
                  <path
                    stroke-linecap="butt"
                    stroke-linejoin="miter"
                    fill-opacity="0"
                    stroke-miterlimit="4"
                    stroke="rgb(38,50,56)"
                    stroke-opacity="1"
                    stroke-width="2"
                    d=" M2.884999990463257,28.72599983215332 C-12.381999969482422,28.628000259399414 -24.679000854492188,16.104999542236328 -24.58099937438965,0.7559999823570251 C-24.482999801635742,-14.593000411987305 -12.027999877929688,-26.95599937438965 3.239000082015991,-26.857999801635742 C18.506000518798828,-26.760000228881836 30.80299949645996,-14.237000465393066 30.704999923706055,1.1119999885559082 C30.60700035095215,16.461000442504883 18.152000427246094,28.823999404907227 2.884999990463257,28.72599983215332z"
                  ></path>
                </g>
                <g
                  opacity="1"
                  transform="matrix(1,0,0,1,411.1990051269531,668.2659912109375)"
                >
                  <path
                    stroke-linecap="butt"
                    stroke-linejoin="miter"
                    fill-opacity="0"
                    stroke-miterlimit="4"
                    stroke="rgb(38,50,56)"
                    stroke-opacity="1"
                    stroke-width="2.5"
                    d=" M19.457000732421875,-7.60699987411499 C19.47100067138672,-9.75 17.75200080871582,-11.50100040435791 15.619999885559082,-11.515000343322754 C15.619999885559082,-11.515000343322754 -9.479000091552734,-11.675999641418457 -9.479000091552734,-11.675999641418457 C-11.611000061035156,-11.6899995803833 -13.35099983215332,-9.961999893188477 -13.364999771118164,-7.818999767303467 C-13.364999771118164,-7.818999767303467 -13.47599983215332,9.651000022888184 -13.47599983215332,9.651000022888184 C-13.489999771118164,11.793000221252441 -11.772000312805176,13.543999671936035 -9.640000343322754,13.557999610900879 C-9.640000343322754,13.557999610900879 15.460000038146973,13.720000267028809 15.460000038146973,13.720000267028809 C17.590999603271484,13.734000205993652 19.332000732421875,12.005999565124512 19.34600067138672,9.86299991607666 C19.34600067138672,9.86299991607666 19.457000732421875,-7.60699987411499 19.457000732421875,-7.60699987411499z"
                  ></path>
                </g>
                <g
                  opacity="1"
                  transform="matrix(1,0,0,1,411.1990051269531,668.2680053710938)"
                >
                  <path
                    stroke-linecap="butt"
                    stroke-linejoin="miter"
                    fill-opacity="0"
                    stroke-miterlimit="4"
                    stroke="rgb(38,50,56)"
                    stroke-opacity="1"
                    stroke-width="2.5"
                    d=" M2.947999954223633,7.815999984741211 C6.679999828338623,7.839000225067139 9.723999977111816,4.817999839782715 9.748000144958496,1.065999984741211 C9.772000312805176,-2.686000108718872 6.765999794006348,-5.749000072479248 3.0339999198913574,-5.771999835968018 C-0.6980000138282776,-5.795000076293945 -3.743000030517578,-2.7739999294281006 -3.7669999599456787,0.9779999852180481 C-3.7909998893737793,4.730000019073486 -0.7839999794960022,7.793000221252441 2.947999954223633,7.815999984741211z"
                  ></path>
                </g>
                <g
                  opacity="1"
                  transform="matrix(1,0,0,1,411.3299865722656,667.969970703125)"
                >
                  <path
                    stroke-linecap="round"
                    stroke-linejoin="miter"
                    fill-opacity="0"
                    stroke-miterlimit="4"
                    stroke="rgb(38,50,56)"
                    stroke-opacity="1"
                    stroke-width="2.5"
                    d=" M4.783999919891357,2.2980000972747803 C4.783999919891357,2.2980000972747803 1.8880000114440918,2.2799999713897705 1.8880000114440918,2.2799999713897705 C1.8880000114440918,2.2799999713897705 1.906999945640564,-0.6320000290870667 1.906999945640564,-0.6320000290870667"
                  ></path>
                </g>
              </g>
              <g
                transform="matrix(0.9920964241027832,0.12547795474529266,-0.12547795474529266,0.9920964241027832,76.33475494384766,-59.73971176147461)"
                opacity="1"
                style="display: block;"
              >
                <g
                  opacity="1"
                  transform="matrix(1,0,0,1,502.0790100097656,565.9099731445312)"
                >
                  <path
                    fill="rgb(255,255,255)"
                    fill-opacity="1"
                    d=" M-2.0899999141693115,17.423999786376953 C-0.5529999732971191,17.426000595092773 0.43700000643730164,17.22100067138672 1.8519999980926514,16.836000442504883 C8.975000381469727,14.89799976348877 14.717000007629395,8.390000343322754 14.727999687194824,0.6520000100135803 C14.73900032043457,-7.209000110626221 9.347000122070312,-13.8149995803833 2.056999921798706,-15.656000137329102 C0.7450000047683716,-15.987000465393066 -0.6290000081062317,-16.163999557495117 -2.0439999103546143,-16.166000366210938 C-11.319999694824219,-16.179000854492188 -18.849000930786133,-8.670000076293945 -18.86199951171875,0.6060000061988831 C-18.875,9.881999969482422 -11.366000175476074,17.410999298095703 -2.0899999141693115,17.423999786376953z"
                  ></path>
                  <path
                    stroke-linecap="butt"
                    stroke-linejoin="miter"
                    fill-opacity="0"
                    stroke-miterlimit="4"
                    stroke="rgb(38,50,56)"
                    stroke-opacity="1"
                    stroke-width="2"
                    d=" M-2.0899999141693115,17.423999786376953 C-0.5529999732971191,17.426000595092773 0.43700000643730164,17.22100067138672 1.8519999980926514,16.836000442504883 C8.975000381469727,14.89799976348877 14.717000007629395,8.390000343322754 14.727999687194824,0.6520000100135803 C14.73900032043457,-7.209000110626221 9.347000122070312,-13.8149995803833 2.056999921798706,-15.656000137329102 C0.7450000047683716,-15.987000465393066 -0.6290000081062317,-16.163999557495117 -2.0439999103546143,-16.166000366210938 C-11.319999694824219,-16.179000854492188 -18.849000930786133,-8.670000076293945 -18.86199951171875,0.6060000061988831 C-18.875,9.881999969482422 -11.366000175476074,17.410999298095703 -2.0899999141693115,17.423999786376953z"
                  ></path>
                </g>
                <g
                  opacity="1"
                  transform="matrix(1,0,0,1,505.8190002441406,566.9219970703125)"
                >
                  <path
                    fill="rgb(255,255,255)"
                    fill-opacity="1"
                    d=" M-1.9559999704360962,16.416000366210938 C7.320000171661377,16.429000854492188 14.848999977111816,8.920000076293945 14.862000465393066,-0.35600000619888306 C14.875,-9.631999969482422 7.366000175476074,-17.160999298095703 -1.909999966621399,-17.173999786376953 C-11.185999870300293,-17.187000274658203 -18.71500015258789,-9.678000450134277 -18.72800064086914,-0.4020000100135803 C-18.740999221801758,8.87399959564209 -11.232000350952148,16.402999877929688 -1.9559999704360962,16.416000366210938z"
                  ></path>
                  <path
                    stroke-linecap="butt"
                    stroke-linejoin="miter"
                    fill-opacity="0"
                    stroke-miterlimit="4"
                    stroke="rgb(38,50,56)"
                    stroke-opacity="1"
                    stroke-width="2"
                    d=" M-1.9559999704360962,16.416000366210938 C7.320000171661377,16.429000854492188 14.848999977111816,8.920000076293945 14.862000465393066,-0.35600000619888306 C14.875,-9.631999969482422 7.366000175476074,-17.160999298095703 -1.909999966621399,-17.173999786376953 C-11.185999870300293,-17.187000274658203 -18.71500015258789,-9.678000450134277 -18.72800064086914,-0.4020000100135803 C-18.740999221801758,8.87399959564209 -11.232000350952148,16.402999877929688 -1.9559999704360962,16.416000366210938z"
                  ></path>
                </g>
                <g
                  opacity="1"
                  transform="matrix(1,0,0,1,507.12701416015625,566.5689697265625)"
                >
                  <path
                    fill="rgb(38,50,56)"
                    fill-opacity="1"
                    d=" M-8.769000053405762,-13.02299976348877 C-8.769000053405762,-13.02299976348877 -9.032999992370605,12.70300006866455 -9.032999992370605,12.70300006866455 C-9.032999992370605,12.70300006866455 -5.5929999351501465,12.638999938964844 -5.5929999351501465,12.638999938964844 C-5.5929999351501465,12.638999938964844 -5.367000102996826,8.159000396728516 -5.367000102996826,8.159000396728516 C-5.367000102996826,8.159000396728516 -3.559999942779541,8.220999717712402 -3.559999942779541,8.220999717712402 C-3.559999942779541,8.220999717712402 -4.004000186920166,12.765999794006348 -4.004000186920166,12.765999794006348 C-4.004000186920166,12.765999794006348 -0.05999999865889549,12.791999816894531 -0.05999999865889549,12.791999816894531 C-0.05999999865889549,12.791999816894531 -0.28600001335144043,8.803999900817871 -0.28600001335144043,8.803999900817871 C2.2709999084472656,8.843000411987305 7.35699987411499,8.022000312805176 7.248000144958496,4.427999973297119 C7.138999938964844,0.8339999914169312 3.190000057220459,-0.41600000858306885 1.2300000190734863,-0.5920000076293945 C2.8929998874664307,-0.8859999775886536 5.894000053405762,-2.0829999446868896 5.890999794006348,-4.59499979019165 C5.885000228881836,-8.633999824523926 1.840000033378601,-9.111000061035156 -0.7559999823570251,-9.416999816894531 C-0.7559999823570251,-9.416999816894531 -0.7850000262260437,-9.420000076293945 -0.7850000262260437,-9.420000076293945 C-0.7850000262260437,-9.420000076293945 -0.6809999942779541,-13.506999969482422 -0.6809999942779541,-13.506999969482422 C-0.6809999942779541,-13.506999969482422 -3.760999917984009,-13.430999755859375 -3.760999917984009,-13.430999755859375 C-3.760999917984009,-13.430999755859375 -3.9089999198913574,-9.092000007629395 -3.9089999198913574,-9.092000007629395 C-3.9089999198913574,-9.092000007629395 -5.9679999351501465,-9.199999809265137 -5.9679999351501465,-9.199999809265137 C-5.9679999351501465,-9.199999809265137 -6.051000118255615,-13.111000061035156 -6.051000118255615,-13.111000061035156 C-6.051000118255615,-13.111000061035156 -8.769000053405762,-13.02299976348877 -8.769000053405762,-13.02299976348877z M-5.52400016784668,-2.0510001182556152 C-5.52400016784668,-2.0510001182556152 -5.614999771118164,-6.796000003814697 -5.614999771118164,-6.796000003814697 C-3.1040000915527344,-7.181000232696533 2.0169999599456787,-7.289000034332275 2.4189999103546143,-4.639999866485596 C2.821000099182129,-1.9910000562667847 -2.7090001106262207,-1.8109999895095825 -5.52400016784668,-2.0510001182556152z M-5.300000190734863,5.1579999923706055 C-5.300000190734863,5.1579999923706055 -5.144000053405762,1.652999997138977 -5.144000053405762,1.652999997138977 C-2.4809999465942383,1.7799999713897705 2.8499999046325684,2.4609999656677246 2.878000020980835,4.171000003814697 C2.9059998989105225,5.880000114440918 -2.562000036239624,5.540999889373779 -5.300000190734863,5.1579999923706055z"
                  ></path>
                </g>
              </g>
            </g>
          </g>
        </svg>