     <svg
          xmlns="http://www.w3.org/2000/svg"
          xmlns:xlink="http://www.w3.org/1999/xlink"
          viewBox="0 0 334 334"
          width="334"
          height="334"
          preserveAspectRatio="xMidYMid meet"
          style="width: 100%;height: 100%;transform: translate3d(0px, 0px, 0px);content-visibility: visible;"
        >
          <defs>
            <clipPath id="__lottie_element_2">
              <rect width="334" height="334" x="0" y="0"></rect>
            </clipPath>
            <clipPath id="__lottie_element_4">
              <path d="M0,0 L1000,0 L1000,1000 L0,1000z"></path>
            </clipPath>
            <g id="__lottie_element_65">
              <g
                transform="matrix(-0.999959409236908,0.00901009887456894,-0.00901009887456894,-0.999959409236908,488.97210693359375,498)"
                opacity="1"
                style="display: block;"
              >
                <g opacity="1" transform="matrix(1,0,0,1,0,0)">
                  <path
                    fill="rgb(226,226,226)"
                    fill-opacity="1"
                    d=" M118.50199890136719,-112 C155.70199584960938,-154.39999389648438 164.16900634765625,-215.66700744628906 163.0019989013672,-242.5 C163.0019989013672,-242.5 -163.0019989013672,-242.5 -163.0019989013672,-242.5 C-164.16900634765625,-215.66700744628906 -155.70199584960938,-154.39999389648438 -118.50199890136719,-112 C-72.00199890136719,-59 -29.00200080871582,-51.5 -29.00200080871582,0 C-29.00200080871582,51.5 -72.00199890136719,59 -118.50199890136719,112 C-155.70199584960938,154.39999389648438 -164.16900634765625,215.66700744628906 -163.0019989013672,242.5 C-163.0019989013672,242.5 163.0019989013672,242.5 163.0019989013672,242.5 C164.16900634765625,215.66700744628906 155.70199584960938,154.39999389648438 118.50199890136719,112 C72.00199890136719,59 29.00200080871582,51.5 29.00200080871582,0 C29.00200080871582,-51.5 72.00199890136719,-59 118.50199890136719,-112z"
                  ></path>
                </g>
              </g>
            </g>
            <mask id="__lottie_element_65_1" mask-type="alpha">
              <use xlink:href="#__lottie_element_65"></use>
            </mask>
            <g id="__lottie_element_71">
              <g
                transform="matrix(-0.999959409236908,0.00901009887456894,-0.00901009887456894,-0.999959409236908,488.97210693359375,498)"
                opacity="1"
                style="display: block;"
              >
                <g opacity="1" transform="matrix(1,0,0,1,0,0)">
                  <path
                    fill="rgb(226,226,226)"
                    fill-opacity="1"
                    d=" M118.50199890136719,-112 C155.70199584960938,-154.39999389648438 164.16900634765625,-215.66700744628906 163.0019989013672,-242.5 C163.0019989013672,-242.5 -163.0019989013672,-242.5 -163.0019989013672,-242.5 C-164.16900634765625,-215.66700744628906 -155.70199584960938,-154.39999389648438 -118.50199890136719,-112 C-72.00199890136719,-59 -29.00200080871582,-51.5 -29.00200080871582,0 C-29.00200080871582,51.5 -72.00199890136719,59 -118.50199890136719,112 C-155.70199584960938,154.39999389648438 -164.16900634765625,215.66700744628906 -163.0019989013672,242.5 C-163.0019989013672,242.5 163.0019989013672,242.5 163.0019989013672,242.5 C164.16900634765625,215.66700744628906 155.70199584960938,154.39999389648438 118.50199890136719,112 C72.00199890136719,59 29.00200080871582,51.5 29.00200080871582,0 C29.00200080871582,-51.5 72.00199890136719,-59 118.50199890136719,-112z"
                  ></path>
                </g>
              </g>
            </g>
            <mask id="__lottie_element_71_1" mask-type="alpha">
              <use xlink:href="#__lottie_element_71"></use>
            </mask>
            <g id="__lottie_element_77">
              <g
                transform="matrix(-0.999959409236908,0.00901009887456894,-0.00901009887456894,-0.999959409236908,488.97210693359375,498)"
                opacity="1"
                style="display: block;"
              >
                <g opacity="1" transform="matrix(1,0,0,1,0,0)">
                  <path
                    fill="rgb(226,226,226)"
                    fill-opacity="1"
                    d=" M118.50199890136719,-112 C155.70199584960938,-154.39999389648438 164.16900634765625,-215.66700744628906 163.0019989013672,-242.5 C163.0019989013672,-242.5 -163.0019989013672,-242.5 -163.0019989013672,-242.5 C-164.16900634765625,-215.66700744628906 -155.70199584960938,-154.39999389648438 -118.50199890136719,-112 C-72.00199890136719,-59 -29.00200080871582,-51.5 -29.00200080871582,0 C-29.00200080871582,51.5 -72.00199890136719,59 -118.50199890136719,112 C-155.70199584960938,154.39999389648438 -164.16900634765625,215.66700744628906 -163.0019989013672,242.5 C-163.0019989013672,242.5 163.0019989013672,242.5 163.0019989013672,242.5 C164.16900634765625,215.66700744628906 155.70199584960938,154.39999389648438 118.50199890136719,112 C72.00199890136719,59 29.00200080871582,51.5 29.00200080871582,0 C29.00200080871582,-51.5 72.00199890136719,-59 118.50199890136719,-112z"
                  ></path>
                </g>
              </g>
            </g>
            <mask id="__lottie_element_77_1" mask-type="alpha">
              <use xlink:href="#__lottie_element_77"></use>
            </mask>
            <g id="__lottie_element_83">
              <g
                transform="matrix(-0.999959409236908,0.00901009887456894,-0.00901009887456894,-0.999959409236908,488.97210693359375,498)"
                opacity="1"
                style="display: block;"
              >
                <g opacity="1" transform="matrix(1,0,0,1,0,0)">
                  <path
                    fill="rgb(226,226,226)"
                    fill-opacity="1"
                    d=" M118.50199890136719,-112 C155.70199584960938,-154.39999389648438 164.16900634765625,-215.66700744628906 163.0019989013672,-242.5 C163.0019989013672,-242.5 -163.0019989013672,-242.5 -163.0019989013672,-242.5 C-164.16900634765625,-215.66700744628906 -155.70199584960938,-154.39999389648438 -118.50199890136719,-112 C-72.00199890136719,-59 -29.00200080871582,-51.5 -29.00200080871582,0 C-29.00200080871582,51.5 -72.00199890136719,59 -118.50199890136719,112 C-155.70199584960938,154.39999389648438 -164.16900634765625,215.66700744628906 -163.0019989013672,242.5 C-163.0019989013672,242.5 163.0019989013672,242.5 163.0019989013672,242.5 C164.16900634765625,215.66700744628906 155.70199584960938,154.39999389648438 118.50199890136719,112 C72.00199890136719,59 29.00200080871582,51.5 29.00200080871582,0 C29.00200080871582,-51.5 72.00199890136719,-59 118.50199890136719,-112z"
                  ></path>
                </g>
              </g>
            </g>
            <mask id="__lottie_element_83_1" mask-type="alpha">
              <use xlink:href="#__lottie_element_83"></use>
            </mask>
          </defs>
          <g clip-path="url(#__lottie_element_2)">
            <g
              clip-path="url(#__lottie_element_4)"
              transform="matrix(0.47999998927116394,0,0,0.47999998927116394,-73,-73)"
              opacity="1"
              style="display: block;"
            >
              <g
                transform="matrix(-0.999959409236908,0.00901009887456894,-0.00901009887456894,-0.999959409236908,488.97210693359375,498)"
                opacity="1"
                style="display: block;"
              >
                <g opacity="1" transform="matrix(1,0,0,1,0,0)">
                  <path
                    fill="rgb(226,226,226)"
                    fill-opacity="1"
                    d=" M118.50199890136719,-112 C155.70199584960938,-154.39999389648438 164.16900634765625,-215.66700744628906 163.0019989013672,-242.5 C163.0019989013672,-242.5 -163.0019989013672,-242.5 -163.0019989013672,-242.5 C-164.16900634765625,-215.66700744628906 -155.70199584960938,-154.39999389648438 -118.50199890136719,-112 C-72.00199890136719,-59 -29.00200080871582,-51.5 -29.00200080871582,0 C-29.00200080871582,51.5 -72.00199890136719,59 -118.50199890136719,112 C-155.70199584960938,154.39999389648438 -164.16900634765625,215.66700744628906 -163.0019989013672,242.5 C-163.0019989013672,242.5 163.0019989013672,242.5 163.0019989013672,242.5 C164.16900634765625,215.66700744628906 155.70199584960938,154.39999389648438 118.50199890136719,112 C72.00199890136719,59 29.00200080871582,51.5 29.00200080871582,0 C29.00200080871582,-51.5 72.00199890136719,-59 118.50199890136719,-112z"
                  ></path>
                </g>
              </g>
              <g mask="url(#__lottie_element_83_1)" style="display: block;">
                <g
                  transform="matrix(0.9994591474533081,0.03288554027676582,-0.03288554027676582,0.9994591474533081,506.0536804199219,501.6855773925781)"
                  opacity="1"
                >
                  <g opacity="1" transform="matrix(1,0,0,1,0,0)">
                    <path
                      fill="rgb(243,93,2)"
                      fill-opacity="1"
                      d=" M-243,-175 C-302,-192 -243,-73 -154,-70 C-65,-67 139,-48 172,-92 C205,-136 220,-131 174,-159 C128,-187 22,-187 -53,-165 C-128,-143 -184,-158 -243,-175z"
                      style="
    fill: #12b66f;
"
                    ></path>
                  </g>
                </g>
              </g>
              <g mask="url(#__lottie_element_77_1)" style="display: block;">
                <g
                  transform="matrix(-0.999959409236908,0.00901009887456894,-0.00901009887456894,-0.999959409236908,487.6911315917969,372.04144287109375)"
                  opacity="1"
                >
                  <g opacity="1" transform="matrix(1,0,0,1,0,0)">
                    <path
                      fill="rgb(244,94,3)"
                      fill-opacity="1"
                      d=" M-176.92100524902344,-0.5270000100135803 C-172.03599548339844,-31.715999603271484 -169.4029998779297,-37.12699890136719 -140.4029998779297,-60.62699890136719 C-84.43599700927734,-124.60700225830078 -22.09000015258789,-140.8300018310547 2.0950000286102295,-140.1699981689453 C24.534000396728516,-139.55799865722656 34.75699996948242,-140.8820037841797 126.25,-96.8010025024414 C149.72300720214844,-85.49199676513672 179.46099853515625,-65.9489974975586 182.57899475097656,-2.5269999504089355 C182.57899475097656,-2.5269999504089355 -176.92100524902344,-0.5270000100135803 -176.92100524902344,-0.5270000100135803z"
                      style="
    fill: #12b66f;
"
                    ></path>
                  </g>
                </g>
              </g>
              <g mask="url(#__lottie_element_71_1)" style="display: block;">
                <g
                  transform="matrix(0.9996855854988098,0.025076664984226227,-0.025076664984226227,0.9996855854988098,490.2530517578125,623.9585571289062)"
                  opacity="1"
                >
                  <g opacity="1" transform="matrix(1,0,0,1,0,38)">
                    <path
                      fill="rgb(244,94,3)"
                      fill-opacity="1"
                      d=" M-178.25,134.46499633789062 C-207.13900756835938,16.03499984741211 -140.25,14.53499984741211 -111.25,-8.96500015258789 C-54.138999938964844,-43.96500015258789 -16.479000091552734,-50.46699905395508 -4.75,-50.46500015258789 C8.75,-50.4630012512207 70.25,-39.61199951171875 115.75,-8.46500015258789 C137.25,6.252999782562256 194.86099243164062,22.03499984741211 193.25,129.46499633789062 C193.25,129.46499633789062 -178.25,134.46499633789062 -178.25,134.46499633789062z"
                      style="
    fill: #12b66f;
"
                    ></path>
                  </g>
                </g>
              </g>
              <g mask="url(#__lottie_element_65_1)" style="display: block;">
                <g
                  transform="matrix(0.999959409236908,-0.00901009887456894,0.00901009887456894,0.999959409236908,496.72747802734375,525.53125)"
                  opacity="1"
                >
                  <g opacity="1" transform="matrix(1,0,0,1,0,0)">
                    <path
                      fill="rgb(243,93,2)"
                      fill-opacity="1"
                      d=" M17.052078247070312,-82.66310119628906 C4.059127330780029,-99.28418731689453 -32.37947082519531,-103.46603393554688 -33.63988494873047,-80.70356750488281 C-35.57619857788086,-58.825294494628906 -57.64493942260742,-56.772647857666016 -59.680355072021484,-1.3550623655319214 C-61.31572341918945,18.37328338623047 -44.47303009033203,35.47966384887695 -55.12172317504883,72.45356750488281 C-72.44108581542969,109.96577453613281 -90.13928985595703,121.9014892578125 -86.79702758789062,160.77320861816406 C-77.54480743408203,201.2791290283203 -86.97023010253906,192.12144470214844 -82.63333129882812,227.74435424804688 C-78.81964874267578,261.5360107421875 -42.04523849487305,260.4014892578125 -30.37708854675293,258.69793701171875 C-17.441755294799805,257.0152893066406 -5.808037281036377,249.74435424804688 25.517255783081055,249.20953369140625 C53.94902801513672,248.86106872558594 58.2225227355957,237.08367919921875 59.7791748046875,220.86607360839844 C62.07560348510742,199.03541564941406 65.49220275878906,191.8638458251953 65.44196319580078,155.76756286621094 C65.33721160888672,109.11071014404297 41.81904983520508,103.69255828857422 35.348506927490234,66.03482055664062 C29.259315490722656,31.50473976135254 43.04683303833008,22.970434188842773 43.65713882446289,0.3196449875831604 C45.424705505371094,-40.31309127807617 24.714582443237305,-65.2714614868164 17.052078247070312,-82.66310119628906z"
                      style="
    fill: #11b66e;
"
                    ></path>
                  </g>
                </g>
              </g>
              <g
                transform="matrix(-0.999959409236908,0.00901009887456894,-0.00901009887456894,-0.999959409236908,488.97210693359375,498)"
                opacity="1"
                style="display: block;"
              >
                <g opacity="1" transform="matrix(1,0,0,1,0,0)">
                  <path
                    stroke-linecap="butt"
                    stroke-linejoin="miter"
                    fill-opacity="0"
                    stroke-miterlimit="4"
                    stroke="rgb(38,50,56)"
                    stroke-opacity="1"
                    stroke-width="2"
                    d=" M118.50199890136719,-112 C155.70199584960938,-154.39999389648438 164.16900634765625,-215.66700744628906 163.0019989013672,-242.5 C163.0019989013672,-242.5 -163.0019989013672,-242.5 -163.0019989013672,-242.5 C-164.16900634765625,-215.66700744628906 -155.70199584960938,-154.39999389648438 -118.50199890136719,-112 C-72.00199890136719,-59 -29.00200080871582,-51.5 -29.00200080871582,0 C-29.00200080871582,51.5 -72.00199890136719,59 -118.50199890136719,112 C-155.70199584960938,154.39999389648438 -164.16900634765625,215.66700744628906 -163.0019989013672,242.5 C-163.0019989013672,242.5 163.0019989013672,242.5 163.0019989013672,242.5 C164.16900634765625,215.66700744628906 155.70199584960938,154.39999389648438 118.50199890136719,112 C72.00199890136719,59 29.00200080871582,51.5 29.00200080871582,0 C29.00200080871582,-51.5 72.00199890136719,-59 118.50199890136719,-112z"
                  ></path>
                </g>
              </g>
              <g
                transform="matrix(-0.999959409236908,0.00901009887456894,-0.00901009887456894,-0.999959409236908,491.6618957519531,729.4851684570312)"
                opacity="1"
                style="display: block;"
              >
                <g opacity="1" transform="matrix(1,0,0,1,0,0)">
                  <path
                    fill="rgb(217,217,217)"
                    fill-opacity="1"
                    d=" M-160.5,-11.5 C-160.5,-11.5 160.5,-11.5 160.5,-11.5 C166.0229949951172,-11.5 170.5,-7.0229997634887695 170.5,-1.5 C170.5,-1.5 170.5,1.5 170.5,1.5 C170.5,7.0229997634887695 166.0229949951172,11.5 160.5,11.5 C160.5,11.5 -160.5,11.5 -160.5,11.5 C-166.0229949951172,11.5 -170.5,7.0229997634887695 -170.5,1.5 C-170.5,1.5 -170.5,-1.5 -170.5,-1.5 C-170.5,-7.0229997634887695 -166.0229949951172,-11.5 -160.5,-11.5z"
                  ></path>
                  <path
                    stroke-linecap="butt"
                    stroke-linejoin="miter"
                    fill-opacity="0"
                    stroke-miterlimit="4"
                    stroke="rgb(38,50,56)"
                    stroke-opacity="1"
                    stroke-width="2"
                    d=" M-160.5,-11.5 C-160.5,-11.5 160.5,-11.5 160.5,-11.5 C166.0229949951172,-11.5 170.5,-7.0229997634887695 170.5,-1.5 C170.5,-1.5 170.5,1.5 170.5,1.5 C170.5,7.0229997634887695 166.0229949951172,11.5 160.5,11.5 C160.5,11.5 -160.5,11.5 -160.5,11.5 C-166.0229949951172,11.5 -170.5,7.0229997634887695 -170.5,1.5 C-170.5,1.5 -170.5,-1.5 -170.5,-1.5 C-170.5,-7.0229997634887695 -166.0229949951172,-11.5 -160.5,-11.5z"
                  ></path>
                </g>
              </g>
              <g
                transform="matrix(-0.999959409236908,0.00901009887456894,-0.00901009887456894,-0.999959409236908,487.4721984863281,264.5040588378906)"
                opacity="1"
                style="display: block;"
              >
                <g opacity="1" transform="matrix(1,0,0,1,0,0)">
                  <path
                    fill="rgb(217,217,217)"
                    fill-opacity="1"
                    d=" M-160.5,-11.5 C-160.5,-11.5 160.5,-11.5 160.5,-11.5 C166.0229949951172,-11.5 170.5,-7.0229997634887695 170.5,-1.5 C170.5,-1.5 170.5,1.5 170.5,1.5 C170.5,7.0229997634887695 166.0229949951172,11.5 160.5,11.5 C160.5,11.5 -160.5,11.5 -160.5,11.5 C-166.0229949951172,11.5 -170.5,7.0229997634887695 -170.5,1.5 C-170.5,1.5 -170.5,-1.5 -170.5,-1.5 C-170.5,-7.0229997634887695 -166.0229949951172,-11.5 -160.5,-11.5z"
                  ></path>
                  <path
                    stroke-linecap="butt"
                    stroke-linejoin="miter"
                    fill-opacity="0"
                    stroke-miterlimit="4"
                    stroke="rgb(38,50,56)"
                    stroke-opacity="1"
                    stroke-width="2"
                    d=" M-160.5,-11.5 C-160.5,-11.5 160.5,-11.5 160.5,-11.5 C166.0229949951172,-11.5 170.5,-7.0229997634887695 170.5,-1.5 C170.5,-1.5 170.5,1.5 170.5,1.5 C170.5,7.0229997634887695 166.0229949951172,11.5 160.5,11.5 C160.5,11.5 -160.5,11.5 -160.5,11.5 C-166.0229949951172,11.5 -170.5,7.0229997634887695 -170.5,1.5 C-170.5,1.5 -170.5,-1.5 -170.5,-1.5 C-170.5,-7.0229997634887695 -166.0229949951172,-11.5 -160.5,-11.5z"
                  ></path>
                </g>
              </g>
              <g style="display: none;">
                <g>
                  <g>
                    <path></path>
                  </g>
                </g>
                <g>
                  <g>
                    <path></path>
                  </g>
                </g>
              </g>
              <g
                transform="matrix(0.999959409236908,-0.00901009887456894,0.00901009887456894,0.999959409236908,-4.489072799682617,4.4261088371276855)"
                opacity="1"
                style="display: block;"
              >
                <g
                  opacity="1"
                  transform="matrix(1,0,0,1,369.60101318359375,322.0639953613281)"
                >
                  <g opacity="1" transform="matrix(1,0,0,1,0,0)">
                    <path
                      fill="rgb(255,255,255)"
                      fill-opacity="1"
                      d=" M-12.475000381469727,5.982999801635742 C-20.735000610351562,-11.241000175476074 -21.847000122070312,-27.882999420166016 -14.956999778747559,-31.187000274658203 C-8.067000389099121,-34.49100112915039 4.215000152587891,-23.207000732421875 12.475000381469727,-5.982999801635742 C20.735000610351562,11.241000175476074 21.847000122070312,27.882999420166016 14.956999778747559,31.187000274658203 C8.067000389099121,34.49100112915039 -4.215000152587891,23.207000732421875 -12.475000381469727,5.982999801635742z"
                    ></path>
                  </g>
                </g>
                <g
                  opacity="1"
                  transform="matrix(1,0,0,1,395.06201171875,371.6629943847656)"
                >
                  <g opacity="1" transform="matrix(1,0,0,1,0,0)">
                    <path
                      fill="rgb(255,255,255)"
                      fill-opacity="1"
                      d=" M-7.995999813079834,3.8350000381469727 C-10.406999588012695,-1.1929999589920044 -8.781999588012695,-6.986000061035156 -4.366000175476074,-9.104000091552734 C0.05000000074505806,-11.222000122070312 5.585000038146973,-8.86299991607666 7.995999813079834,-3.8350000381469727 C10.406999588012695,1.1929999589920044 8.781999588012695,6.986000061035156 4.366000175476074,9.104000091552734 C-0.05000000074505806,11.222000122070312 -5.585000038146973,8.86299991607666 -7.995999813079834,3.8350000381469727z"
                    ></path>
                  </g>
                </g>
              </g>
              <g
                style="display: none;"
                transform="matrix(-0.9987822771072388,-0.049334920942783356,0.049334920942783356,-0.9987822771072388,521.9359130859375,645.642578125)"
                opacity="0.0007192816049132489"
              >
                <g opacity="1" transform="matrix(1,0,0,1,0,0)">
                  <path
                    fill="rgb(255,255,255)"
                    fill-opacity="1"
                    d=" M0,-0.17844070494174957 C0.09879563003778458,-0.17844070494174957 0.17844070494174957,-0.09879563003778458 0.17844070494174957,0 C0.17844070494174957,0.09879563003778458 0.09879563003778458,0.17844070494174957 0,0.17844070494174957 C-0.09879563003778458,0.17844070494174957 -0.17844070494174957,0.09879563003778458 -0.17844070494174957,0 C-0.17844070494174957,-0.09879563003778458 -0.09879563003778458,-0.17844070494174957 0,-0.17844070494174957z"
                  ></path>
                  <path
                    stroke-linecap="butt"
                    stroke-linejoin="miter"
                    fill-opacity="0"
                    stroke-miterlimit="4"
                    stroke="rgb(38,50,56)"
                    stroke-opacity="1"
                    stroke-width="2"
                    d=" M0,-0.17844070494174957 C0.09879563003778458,-0.17844070494174957 0.17844070494174957,-0.09879563003778458 0.17844070494174957,0 C0.17844070494174957,0.09879563003778458 0.09879563003778458,0.17844070494174957 0,0.17844070494174957 C-0.09879563003778458,0.17844070494174957 -0.17844070494174957,0.09879563003778458 -0.17844070494174957,0 C-0.17844070494174957,-0.09879563003778458 -0.09879563003778458,-0.17844070494174957 0,-0.17844070494174957z"
                  ></path>
                </g>
              </g>
              <g
                style="display: none;"
                transform="matrix(-0.9975640773773193,0.06975579261779785,-0.06975579261779785,-0.9975640773773193,472.18756103515625,639.0552978515625)"
                opacity="0.0005565401192316699"
              >
                <g opacity="1" transform="matrix(1,0,0,1,0,0)">
                  <path
                    fill="rgb(255,255,255)"
                    fill-opacity="1"
                    d=" M0,-0.17811903357505798 C0.09861798584461212,-0.17811903357505798 0.17811903357505798,-0.09861798584461212 0.17811903357505798,0 C0.17811903357505798,0.09861798584461212 0.09861798584461212,0.17811903357505798 0,0.17811903357505798 C-0.09861798584461212,0.17811903357505798 -0.17811903357505798,0.09861798584461212 -0.17811903357505798,0 C-0.17811903357505798,-0.09861798584461212 -0.09861798584461212,-0.17811903357505798 0,-0.17811903357505798z"
                  ></path>
                  <path
                    stroke-linecap="butt"
                    stroke-linejoin="miter"
                    fill-opacity="0"
                    stroke-miterlimit="4"
                    stroke="rgb(38,50,56)"
                    stroke-opacity="1"
                    stroke-width="2"
                    d=" M0,-0.17811903357505798 C0.09861798584461212,-0.17811903357505798 0.17811903357505798,-0.09861798584461212 0.17811903357505798,0 C0.17811903357505798,0.09861798584461212 0.09861798584461212,0.17811903357505798 0,0.17811903357505798 C-0.09861798584461212,0.17811903357505798 -0.17811903357505798,0.09861798584461212 -0.17811903357505798,0 C-0.17811903357505798,-0.09861798584461212 -0.09861798584461212,-0.17811903357505798 0,-0.17811903357505798z"
                  ></path>
                </g>
              </g>
              <g
                style="display: block;"
                transform="matrix(-0.999959409236908,0.00901009887456894,-0.00901009887456894,-0.999959409236908,528.1052856445312,642.754638671875)"
                opacity="0.5513913495439552"
              >
                <g opacity="1" transform="matrix(1,0,0,1,0,0)">
                  <path
                    fill="rgb(255,255,255)"
                    fill-opacity="1"
                    d=" M0,-0.7277699708938599 C0.4021625816822052,-0.7277699708938599 0.7277699708938599,-0.4021625816822052 0.7277699708938599,0 C0.7277699708938599,0.4021625816822052 0.4021625816822052,0.7277699708938599 0,0.7277699708938599 C-0.4021625816822052,0.7277699708938599 -0.7277699708938599,0.4021625816822052 -0.7277699708938599,0 C-0.7277699708938599,-0.4021625816822052 -0.4021625816822052,-0.7277699708938599 0,-0.7277699708938599z"
                  ></path>
                  <path
                    stroke-linecap="butt"
                    stroke-linejoin="miter"
                    fill-opacity="0"
                    stroke-miterlimit="4"
                    stroke="rgb(38,50,56)"
                    stroke-opacity="1"
                    stroke-width="2"
                    d=" M0,-0.7277699708938599 C0.4021625816822052,-0.7277699708938599 0.7277699708938599,-0.4021625816822052 0.7277699708938599,0 C0.7277699708938599,0.4021625816822052 0.4021625816822052,0.7277699708938599 0,0.7277699708938599 C-0.4021625816822052,0.7277699708938599 -0.7277699708938599,0.4021625816822052 -0.7277699708938599,0 C-0.7277699708938599,-0.4021625816822052 -0.4021625816822052,-0.7277699708938599 0,-0.7277699708938599z"
                  ></path>
                </g>
              </g>
              <g
                style="display: block;"
                transform="matrix(-0.999959409236908,0.00901009887456894,-0.00901009887456894,-0.999959409236908,495.4139404296875,500.28265380859375)"
                opacity="1"
              >
                <g opacity="1" transform="matrix(1,0,0,1,0,0)">
                  <path
                    fill="rgb(255,255,255)"
                    fill-opacity="1"
                    d=" M0,-7 C3.865999937057495,-7 7,-3.865999937057495 7,0 C7,3.865999937057495 3.865999937057495,7 0,7 C-3.865999937057495,7 -7,3.865999937057495 -7,0 C-7,-3.865999937057495 -3.865999937057495,-7 0,-7z"
                  ></path>
                  <path
                    stroke-linecap="butt"
                    stroke-linejoin="miter"
                    fill-opacity="0"
                    stroke-miterlimit="4"
                    stroke="rgb(38,50,56)"
                    stroke-opacity="1"
                    stroke-width="2"
                    d=" M0,-7 C3.865999937057495,-7 7,-3.865999937057495 7,0 C7,3.865999937057495 3.865999937057495,7 0,7 C-3.865999937057495,7 -7,3.865999937057495 -7,0 C-7,-3.865999937057495 -3.865999937057495,-7 0,-7z"
                  ></path>
                </g>
              </g>
              <g
                transform="matrix(-0.999959409236908,0.00901009887456894,-0.00901009887456894,-0.999959409236908,563.76123046875,700.0828857421875)"
                opacity="1"
                style="display: block;"
              >
                <g opacity="1" transform="matrix(1,0,0,1,0,0)">
                  <path
                    fill="rgb(255,255,255)"
                    fill-opacity="1"
                    d=" M0,-7 C3.865999937057495,-7 7,-3.865999937057495 7,0 C7,3.865999937057495 3.865999937057495,7 0,7 C-3.865999937057495,7 -7,3.865999937057495 -7,0 C-7,-3.865999937057495 -3.865999937057495,-7 0,-7z"
                  ></path>
                  <path
                    stroke-linecap="butt"
                    stroke-linejoin="miter"
                    fill-opacity="0"
                    stroke-miterlimit="4"
                    stroke="rgb(38,50,56)"
                    stroke-opacity="1"
                    stroke-width="2"
                    d=" M0,-7 C3.865999937057495,-7 7,-3.865999937057495 7,0 C7,3.865999937057495 3.865999937057495,7 0,7 C-3.865999937057495,7 -7,3.865999937057495 -7,0 C-7,-3.865999937057495 -3.865999937057495,-7 0,-7z"
                  ></path>
                </g>
              </g>
              <g
                transform="matrix(-0.999959409236908,0.00901009887456894,-0.00901009887456894,-0.999959409236908,459.2757873535156,382.93463134765625)"
                opacity="1"
                style="display: block;"
              >
                <g opacity="1" transform="matrix(1,0,0,1,0,0)">
                  <path
                    fill="rgb(255,255,255)"
                    fill-opacity="1"
                    d=" M0,-7 C3.865999937057495,-7 7,-3.865999937057495 7,0 C7,3.865999937057495 3.865999937057495,7 0,7 C-3.865999937057495,7 -7,3.865999937057495 -7,0 C-7,-3.865999937057495 -3.865999937057495,-7 0,-7z"
                  ></path>
                  <path
                    stroke-linecap="butt"
                    stroke-linejoin="miter"
                    fill-opacity="0"
                    stroke-miterlimit="4"
                    stroke="rgb(38,50,56)"
                    stroke-opacity="1"
                    stroke-width="2"
                    d=" M0,-7 C3.865999937057495,-7 7,-3.865999937057495 7,0 C7,3.865999937057495 3.865999937057495,7 0,7 C-3.865999937057495,7 -7,3.865999937057495 -7,0 C-7,-3.865999937057495 -3.865999937057495,-7 0,-7z"
                  ></path>
                </g>
              </g>
              <g
                transform="matrix(-0.999959409236908,0.00901009887456894,-0.00901009887456894,-0.999959409236908,532.4521484375,682.0592651367188)"
                opacity="1"
                style="display: block;"
              >
                <g opacity="1" transform="matrix(1,0,0,1,0,0)">
                  <path
                    fill="rgb(255,255,255)"
                    fill-opacity="1"
                    d=" M0,-4.5 C2.484999895095825,-4.5 4.5,-2.484999895095825 4.5,0 C4.5,2.484999895095825 2.484999895095825,4.5 0,4.5 C-2.484999895095825,4.5 -4.5,2.484999895095825 -4.5,0 C-4.5,-2.484999895095825 -2.484999895095825,-4.5 0,-4.5z"
                  ></path>
                  <path
                    stroke-linecap="butt"
                    stroke-linejoin="miter"
                    fill-opacity="0"
                    stroke-miterlimit="4"
                    stroke="rgb(38,50,56)"
                    stroke-opacity="1"
                    stroke-width="2"
                    d=" M0,-4.5 C2.484999895095825,-4.5 4.5,-2.484999895095825 4.5,0 C4.5,2.484999895095825 2.484999895095825,4.5 0,4.5 C-2.484999895095825,4.5 -4.5,2.484999895095825 -4.5,0 C-4.5,-2.484999895095825 -2.484999895095825,-4.5 0,-4.5z"
                  ></path>
                </g>
              </g>
              <g
                transform="matrix(-0.999959409236908,0.00901009887456894,-0.00901009887456894,-0.999959409236908,577.8251342773438,376.2777404785156)"
                opacity="1"
                style="display: block;"
              >
                <g opacity="1" transform="matrix(1,0,0,1,0,0)">
                  <path
                    fill="rgb(255,255,255)"
                    fill-opacity="1"
                    d=" M0,-4.5 C2.484999895095825,-4.5 4.5,-2.484999895095825 4.5,0 C4.5,2.484999895095825 2.484999895095825,4.5 0,4.5 C-2.484999895095825,4.5 -4.5,2.484999895095825 -4.5,0 C-4.5,-2.484999895095825 -2.484999895095825,-4.5 0,-4.5z"
                  ></path>
                  <path
                    stroke-linecap="butt"
                    stroke-linejoin="miter"
                    fill-opacity="0"
                    stroke-miterlimit="4"
                    stroke="rgb(38,50,56)"
                    stroke-opacity="1"
                    stroke-width="2"
                    d=" M0,-4.5 C2.484999895095825,-4.5 4.5,-2.484999895095825 4.5,0 C4.5,2.484999895095825 2.484999895095825,4.5 0,4.5 C-2.484999895095825,4.5 -4.5,2.484999895095825 -4.5,0 C-4.5,-2.484999895095825 -2.484999895095825,-4.5 0,-4.5z"
                  ></path>
                </g>
              </g>
              <g
                transform="matrix(-0.999959409236908,0.00901009887456894,-0.00901009887456894,-0.999959409236908,438.9356689453125,630.0587768554688)"
                opacity="1"
                style="display: block;"
              >
                <g opacity="1" transform="matrix(1,0,0,1,0,0)">
                  <path
                    fill="rgb(255,255,255)"
                    fill-opacity="1"
                    d=" M0,-7 C3.865999937057495,-7 7,-3.865999937057495 7,0 C7,3.865999937057495 3.865999937057495,7 0,7 C-3.865999937057495,7 -7,3.865999937057495 -7,0 C-7,-3.865999937057495 -3.865999937057495,-7 0,-7z"
                  ></path>
                  <path
                    stroke-linecap="butt"
                    stroke-linejoin="miter"
                    fill-opacity="0"
                    stroke-miterlimit="4"
                    stroke="rgb(38,50,56)"
                    stroke-opacity="1"
                    stroke-width="2"
                    d=" M0,-7 C3.865999937057495,-7 7,-3.865999937057495 7,0 C7,3.865999937057495 3.865999937057495,7 0,7 C-3.865999937057495,7 -7,3.865999937057495 -7,0 C-7,-3.865999937057495 -3.865999937057495,-7 0,-7z"
                  ></path>
                </g>
              </g>
              <g
                transform="matrix(-0.7056707143783569,0.7085399627685547,-0.7085399627685547,-0.7056707143783569,1232.3892822265625,541.5808715820312)"
                opacity="1"
                style="display: block;"
              >
                <g
                  opacity="1"
                  transform="matrix(1,0,0,1,456.2720031738281,605.1640014648438)"
                >
                  <path
                    fill="rgb(155,155,155)"
                    fill-opacity="1"
                    d=" M26.154207229614258,4.487372875213623 C26.37462615966797,19.60880470275879 16.810691833496094,29.0106143951416 10.228392601013184,29.918087005615234 C10.228392601013184,29.918087005615234 -0.7400000095367432,29.868000030517578 -0.7400000095367432,29.868000030517578 C-0.7400000095367432,29.868000030517578 -0.4560000002384186,-22.131000518798828 -0.4560000002384186,-22.131000518798828 C-0.4560000002384186,-22.131000518798828 10.5123929977417,-22.09459686279297 10.5123929977417,-22.09459686279297 C17.02955436706543,-21.410749435424805 25.89824676513672,-12.398445129394531 26.154207229614258,4.487372875213623z"
                  ></path>
                  <path
                    stroke-linecap="butt"
                    stroke-linejoin="miter"
                    fill-opacity="0"
                    stroke-miterlimit="4"
                    stroke="rgb(38,50,56)"
                    stroke-opacity="1"
                    stroke-width="2"
                    d=" M26.154207229614258,4.487372875213623 C26.37462615966797,19.60880470275879 16.810691833496094,29.0106143951416 10.228392601013184,29.918087005615234 C10.228392601013184,29.918087005615234 -0.7400000095367432,29.868000030517578 -0.7400000095367432,29.868000030517578 C-0.7400000095367432,29.868000030517578 -0.4560000002384186,-22.131000518798828 -0.4560000002384186,-22.131000518798828 C-0.4560000002384186,-22.131000518798828 10.5123929977417,-22.09459686279297 10.5123929977417,-22.09459686279297 C17.02955436706543,-21.410749435424805 25.89824676513672,-12.398445129394531 26.154207229614258,4.487372875213623z"
                  ></path>
                </g>
                <g
                  opacity="1"
                  transform="matrix(1,0,0,1,453.7969970703125,612.5479736328125)"
                >
                  <path
                    fill="rgb(255,255,255)"
                    fill-opacity="1"
                    d=" M20.90382194519043,-3.4040000438690186 C21.004886627197266,-17.82699966430664 12.314159393310547,-29.555999755859375 1.4923241138458252,-29.601999282836914 C-9.329437255859375,-29.648000717163086 -18.184829711914062,-17.993000030517578 -18.28589630126953,-3.569999933242798 C-18.386960983276367,10.852999687194824 -9.696159362792969,22.58300018310547 1.125675916671753,22.628999710083008 C11.947437286376953,22.674999237060547 20.80275535583496,11.019000053405762 20.90382194519043,-3.4040000438690186z"
                  ></path>
                  <path
                    stroke-linecap="butt"
                    stroke-linejoin="miter"
                    fill-opacity="0"
                    stroke-miterlimit="4"
                    stroke="rgb(38,50,56)"
                    stroke-opacity="1"
                    stroke-width="2"
                    d=" M20.90382194519043,-3.4040000438690186 C21.004886627197266,-17.82699966430664 12.314159393310547,-29.555999755859375 1.4923241138458252,-29.601999282836914 C-9.329437255859375,-29.648000717163086 -18.184829711914062,-17.993000030517578 -18.28589630126953,-3.569999933242798 C-18.386960983276367,10.852999687194824 -9.696159362792969,22.58300018310547 1.125675916671753,22.628999710083008 C11.947437286376953,22.674999237060547 20.80275535583496,11.019000053405762 20.90382194519043,-3.4040000438690186z"
                  ></path>
                </g>
                <g
                  opacity="1"
                  transform="matrix(1,0,0,1,453.7959899902344,612.5499877929688)"
                >
                  <path
                    fill="rgb(226,226,226)"
                    fill-opacity="1"
                    d=" M16.320974349975586,-3.431999921798706 C16.414485931396484,-15.309000015258789 9.221487998962402,-24.098651885986328 1.8282837867736816,-24.12965202331543 C-5.564920425415039,-24.16065216064453 -13.61393928527832,-15.42300033569336 -13.707451820373535,-3.5460000038146973 C-13.800965309143066,8.331000328063965 -6.202927589416504,17.120651245117188 1.1902766227722168,17.15165138244629 C8.583480834960938,17.18265151977539 16.227460861206055,8.444999694824219 16.320974349975586,-3.431999921798706z"
                  ></path>
                  <path
                    stroke-linecap="butt"
                    stroke-linejoin="miter"
                    fill-opacity="0"
                    stroke-miterlimit="4"
                    stroke="rgb(38,50,56)"
                    stroke-opacity="1"
                    stroke-width="2"
                    d=" M16.320974349975586,-3.431999921798706 C16.414485931396484,-15.309000015258789 9.221487998962402,-24.098651885986328 1.8282837867736816,-24.12965202331543 C-5.564920425415039,-24.16065216064453 -13.61393928527832,-15.42300033569336 -13.707451820373535,-3.5460000038146973 C-13.800965309143066,8.331000328063965 -6.202927589416504,17.120651245117188 1.1902766227722168,17.15165138244629 C8.583480834960938,17.18265151977539 16.227460861206055,8.444999694824219 16.320974349975586,-3.431999921798706z"
                  ></path>
                </g>
              </g>
              <g
                transform="matrix(-0.41065821051597595,-0.9117893576622009,0.9117893576622009,-0.41065821051597595,266.1951904296875,1515.262939453125)"
                opacity="1"
                style="display: block;"
              >
                <g
                  opacity="1"
                  transform="matrix(1,0,0,1,537.2340087890625,661.7139892578125)"
                >
                  <g opacity="1" transform="matrix(1,0,0,1,0,0)">
                    <path
                      fill="rgb(155,155,155)"
                      fill-opacity="1"
                      d=" M146.61273193359375,-96.06660461425781 C136.90200805664062,-96.0936050415039 129.0452880859375,-117.88300323486328 129.0570831298828,-144.72300720214844 C129.06549072265625,-164.68800354003906 133.42884826660156,-181.8260040283203 139.6602020263672,-189.28700256347656 C141.80587768554688,-191.8560028076172 144.16758728027344,-193.26760864257812 146.6547393798828,-193.26060485839844 C146.6547393798828,-193.26060485839844 160.0229949951172,-193.26100158691406 160.0229949951172,-193.26100158691406 C160.0229949951172,-193.26100158691406 159.9149932861328,-96.06700134277344 159.9149932861328,-96.06700134277344 C159.9149932861328,-96.06700134277344 146.61273193359375,-96.06660461425781 146.61273193359375,-96.06660461425781z"
                    ></path>
                    <path
                      stroke-linecap="butt"
                      stroke-linejoin="miter"
                      fill-opacity="0"
                      stroke-miterlimit="4"
                      stroke="rgb(38,42,51)"
                      stroke-opacity="1"
                      stroke-width="2"
                      d=" M146.61273193359375,-96.06660461425781 C136.90200805664062,-96.0936050415039 129.0452880859375,-117.88300323486328 129.0570831298828,-144.72300720214844 C129.06549072265625,-164.68800354003906 133.42884826660156,-181.8260040283203 139.6602020263672,-189.28700256347656 C141.80587768554688,-191.8560028076172 144.16758728027344,-193.26760864257812 146.6547393798828,-193.26060485839844 C146.6547393798828,-193.26060485839844 160.0229949951172,-193.26100158691406 160.0229949951172,-193.26100158691406 C160.0229949951172,-193.26100158691406 159.9149932861328,-96.06700134277344 159.9149932861328,-96.06700134277344 C159.9149932861328,-96.06700134277344 146.61273193359375,-96.06660461425781 146.61273193359375,-96.06660461425781z"
                    ></path>
                  </g>
                </g>
                <g
                  opacity="1"
                  transform="matrix(1,0,0,1,552.0789794921875,657.197998046875)"
                >
                  <g opacity="1" transform="matrix(1,0,0,1,0,0)">
                    <path
                      fill="rgb(255,255,255)"
                      fill-opacity="1"
                      d=" M144.51620483398438,-188.7429962158203 C134.97206115722656,-188.77000427246094 127.22571563720703,-167.03500366210938 127.21391296386719,-140.1959991455078 C127.20211029052734,-113.35700225830078 134.93064880371094,-91.5770034790039 144.47479248046875,-91.55000305175781 C154.01893615722656,-91.52300262451172 161.76528930664062,-113.25800323486328 161.77708435058594,-140.0970001220703 C161.7888946533203,-166.93600463867188 154.0603485107422,-188.71600341796875 144.51620483398438,-188.7429962158203z"
                    ></path>
                    <path
                      stroke-linecap="butt"
                      stroke-linejoin="miter"
                      fill-opacity="0"
                      stroke-miterlimit="4"
                      stroke="rgb(38,42,51)"
                      stroke-opacity="1"
                      stroke-width="2"
                      d=" M144.51620483398438,-188.7429962158203 C134.97206115722656,-188.77000427246094 127.22571563720703,-167.03500366210938 127.21391296386719,-140.1959991455078 C127.20211029052734,-113.35700225830078 134.93064880371094,-91.5770034790039 144.47479248046875,-91.55000305175781 C154.01893615722656,-91.52300262451172 161.76528930664062,-113.25800323486328 161.77708435058594,-140.0970001220703 C161.7888946533203,-166.93600463867188 154.0603485107422,-188.71600341796875 144.51620483398438,-188.7429962158203z"
                    ></path>
                  </g>
                </g>
                <g
                  opacity="1"
                  transform="matrix(1,0,0,1,551.7960205078125,657.3510131835938)"
                >
                  <g opacity="1" transform="matrix(1,0,0,1,0,0)">
                    <path
                      fill="rgb(155,155,155)"
                      fill-opacity="1"
                      d=" M144.67176818847656,-180.76800537109375 C136.69818115234375,-180.79100036621094 130.22592163085938,-162.69200134277344 130.21652221679688,-140.3419952392578 C130.20712280273438,-117.99199676513672 136.6633758544922,-99.85600280761719 144.636962890625,-99.83300018310547 C152.61056518554688,-99.80999755859375 159.08221435546875,-117.90899658203125 159.09161376953125,-140.25900268554688 C159.1010284423828,-162.60899353027344 152.64537048339844,-180.7449951171875 144.67176818847656,-180.76800537109375z"
                    ></path>
                  </g>
                </g>
                <g opacity="1" transform="matrix(1,0,0,1,0,0)">
                  <g
                    opacity="1"
                    transform="matrix(1,0,0,1,551.8109741210938,653.8880004882812)"
                  >
                    <path
                      stroke-linecap="round"
                      stroke-linejoin="round"
                      fill-opacity="0"
                      stroke="rgb(38,42,51)"
                      stroke-opacity="1"
                      stroke-width="2"
                      d=" M149.12937927246094,-138.50999450683594 C147.57342529296875,-137.58099365234375 143.86180114746094,-136.84500122070312 141.46385192871094,-141.33399963378906"
                    ></path>
                  </g>
                  <g
                    opacity="1"
                    transform="matrix(1,0,0,1,570.3599853515625,645.083984375)"
                  >
                    <path
                      stroke-linecap="round"
                      stroke-linejoin="round"
                      fill-opacity="0"
                      stroke="rgb(38,42,51)"
                      stroke-opacity="1"
                      stroke-width="2"
                      d=" M136.83058166503906,-129.9010009765625 C136.2196502685547,-129.11300659179688 134.49566650390625,-128.00999450683594 132.49661254882812,-129.91299438476562"
                    ></path>
                  </g>
                  <g
                    opacity="1"
                    transform="matrix(1,0,0,1,553.0750122070312,662.802978515625)"
                  >
                    <path
                      fill="rgb(226,226,226)"
                      fill-opacity="1"
                      d=" M148.54412841796875,-176.7270050048828 C146.4110565185547,-177.76800537109375 144.82069396972656,-175.4459991455078 144.29298400878906,-174.1540069580078 C143.59922790527344,-175.80799865722656 142.42835998535156,-178.8179931640625 140.2948760986328,-178.47999572753906 C137.6278839111328,-178.05799865722656 133.09326171875,-167.84500122070312 129.0819549560547,-141.12899780273438 C132.0396270751953,-98.67900085449219 145.86593627929688,-105.25299835205078 146.96937561035156,-106.427001953125 C151.61602783203125,-111.37200164794922 153.7567138671875,-122.88400268554688 154.35743713378906,-129.2989959716797 C155.3578643798828,-130.80999755859375 155.60992431640625,-133.8260040283203 154.94337463378906,-135.5469970703125 C156.2782745361328,-138.56500244140625 155.86297607421875,-142.4459991455078 154.36444091796875,-145.89300537109375 C154.94857788085938,-147.39999389648438 155.8831787109375,-152.531005859375 154.95277404785156,-158.39599609375 C154.16580200195312,-163.35499572753906 152.5398406982422,-166.80799865722656 151.6240234375,-168.31399536132812 C151.48619079589844,-170.68600463867188 150.67721557617188,-175.68600463867188 148.54412841796875,-176.7270050048828z"
                    ></path>
                    <path
                      stroke-linecap="round"
                      stroke-linejoin="round"
                      fill-opacity="0"
                      stroke="rgb(38,42,51)"
                      stroke-opacity="1"
                      stroke-width="2"
                      d=" M148.54412841796875,-176.7270050048828 C146.4110565185547,-177.76800537109375 144.82069396972656,-175.4459991455078 144.29298400878906,-174.1540069580078 C143.59922790527344,-175.80799865722656 142.42835998535156,-178.8179931640625 140.2948760986328,-178.47999572753906 C137.6278839111328,-178.05799865722656 133.09326171875,-167.84500122070312 129.0819549560547,-141.12899780273438 C132.0396270751953,-98.67900085449219 145.86593627929688,-105.25299835205078 146.96937561035156,-106.427001953125 C151.61602783203125,-111.37200164794922 153.7567138671875,-122.88400268554688 154.35743713378906,-129.2989959716797 C155.3578643798828,-130.80999755859375 155.60992431640625,-133.8260040283203 154.94337463378906,-135.5469970703125 C156.2782745361328,-138.56500244140625 155.86297607421875,-142.4459991455078 154.36444091796875,-145.89300537109375 C154.94857788085938,-147.39999389648438 155.8831787109375,-152.531005859375 154.95277404785156,-158.39599609375 C154.16580200195312,-163.35499572753906 152.5398406982422,-166.80799865722656 151.6240234375,-168.31399536132812 C151.48619079589844,-170.68600463867188 150.67721557617188,-175.68600463867188 148.54412841796875,-176.7270050048828z"
                    ></path>
                  </g>
                  <g
                    opacity="1"
                    transform="matrix(1,0,0,1,562.864013671875,659.3380126953125)"
                  >
                    <path
                      fill="rgb(255,255,255)"
                      fill-opacity="1"
                      d=" M141.82041931152344,-131.87899780273438 C144.36180114746094,-131.8719940185547 145.37782287597656,-136.53799438476562 145.57347106933594,-139.19500732421875 C146.3228302001953,-137.03799438476562 145.8185272216797,-133.24099731445312 145.2347869873047,-132.09300231933594 C145.5672607421875,-130.8260040283203 145.70570373535156,-128.23199462890625 145.12196350097656,-126.94000244140625 C144.6736602783203,-125.9489974975586 143.8176727294922,-123.68299865722656 140.06703186035156,-123.69400024414062 C130.81634521484375,-123.72100067138672 126.32113647460938,-133.86199951171875 127.4057846069336,-137.0919952392578 C128.4904327392578,-140.32200622558594 133.73721313476562,-131.90199279785156 141.82041931152344,-131.87899780273438z"
                    ></path>
                    <path
                      stroke-linecap="round"
                      stroke-linejoin="round"
                      fill-opacity="0"
                      stroke="rgb(38,42,51)"
                      stroke-opacity="1"
                      stroke-width="2"
                      d=" M141.82041931152344,-131.87899780273438 C144.36180114746094,-131.8719940185547 145.37782287597656,-136.53799438476562 145.57347106933594,-139.19500732421875 C146.3228302001953,-137.03799438476562 145.8185272216797,-133.24099731445312 145.2347869873047,-132.09300231933594 C145.5672607421875,-130.8260040283203 145.70570373535156,-128.23199462890625 145.12196350097656,-126.94000244140625 C144.6736602783203,-125.9489974975586 143.8176727294922,-123.68299865722656 140.06703186035156,-123.69400024414062 C130.81634521484375,-123.72100067138672 126.32113647460938,-133.86199951171875 127.4057846069336,-137.0919952392578 C128.4904327392578,-140.32200622558594 133.73721313476562,-131.90199279785156 141.82041931152344,-131.87899780273438z"
                    ></path>
                  </g>
                  <g
                    opacity="1"
                    transform="matrix(1,0,0,1,546.364990234375,647.5640258789062)"
                  >
                    <path
                      stroke-linecap="round"
                      stroke-linejoin="round"
                      fill-opacity="0"
                      stroke="rgb(38,42,51)"
                      stroke-opacity="1"
                      stroke-width="2"
                      d=" M155.0476837158203,-140.1820068359375 C154.04905700683594,-143.41700744628906 152.46670532226562,-145.8990020751953 150.329833984375,-146.63299560546875 C147.7964630126953,-147.5030059814453 145.60696411132812,-143.98800659179688 144.82798767089844,-142.1230010986328"
                    ></path>
                  </g>
                  <g
                    opacity="1"
                    transform="matrix(1,0,0,1,566.0239868164062,636.7570190429688)"
                  >
                    <path
                      stroke-linecap="round"
                      stroke-linejoin="round"
                      fill-opacity="0"
                      stroke="rgb(38,42,51)"
                      stroke-opacity="1"
                      stroke-width="2"
                      d=" M141.83734130859375,-133.4219970703125 C140.53204345703125,-134.21600341796875 137.70840454101562,-135.57400512695312 136.30490112304688,-128.50900268554688"
                    ></path>
                  </g>
                  <g
                    opacity="1"
                    transform="matrix(1,0,0,1,563.8679809570312,660.7420043945312)"
                  >
                    <path
                      stroke-linecap="round"
                      stroke-linejoin="round"
                      fill-opacity="0"
                      stroke="rgb(38,42,51)"
                      stroke-opacity="1"
                      stroke-width="2"
                      d=" M144.3668212890625,-133.73899841308594 C143.92892456054688,-132.85000610351562 142.50460815429688,-130.0469970703125 139.56674194335938,-130.05599975585938 C135.89971923828125,-130.06700134277344 130.65093994140625,-132.88400268554688 127.73567962646484,-136.12399291992188"
                    ></path>
                  </g>
                  <g
                    opacity="1"
                    transform="matrix(1,0,0,1,547.531982421875,634.9349975585938)"
                  >
                    <path
                      stroke-linecap="round"
                      stroke-linejoin="round"
                      fill-opacity="0"
                      stroke="rgb(38,42,51)"
                      stroke-opacity="1"
                      stroke-width="2"
                      d=" M149.83457946777344,-146.5050048828125 C150.25086975097656,-145.4250030517578 150.4163055419922,-142.62399291992188 150.4163055419922,-142.62399291992188 C151.24929809570312,-142.1909942626953 153.01568603515625,-139.5989990234375 153.4121856689453,-132.7010040283203"
                    ></path>
                  </g>
                  <g
                    opacity="1"
                    transform="matrix(1,0,0,1,552.3800048828125,631.0709838867188)"
                  >
                    <path
                      stroke-linecap="round"
                      stroke-linejoin="round"
                      fill-opacity="0"
                      stroke="rgb(38,42,51)"
                      stroke-opacity="1"
                      stroke-width="2"
                      d=" M151.12196350097656,-136.80299377441406 C150.28897094726562,-137.5240020751953 148.75282287597656,-138.53399658203125 147.15167236328125,-136.81399536132812"
                    ></path>
                  </g>
                  <g
                    opacity="1"
                    transform="matrix(1,0,0,1,536.9190063476562,638.875)"
                  >
                    <path
                      stroke-linecap="round"
                      stroke-linejoin="round"
                      fill-opacity="0"
                      stroke="rgb(38,42,51)"
                      stroke-opacity="1"
                      stroke-width="2"
                      d=" M161.0299072265625,-146.56199645996094 C159.44715881347656,-147.42799377441406 156.5006866455078,-148.10899353027344 154.77870178222656,-143.77699279785156"
                    ></path>
                  </g>
                  <g
                    opacity="1"
                    transform="matrix(1,0,0,1,548.81201171875,649.3289794921875)"
                  >
                    <path
                      fill="rgb(255,255,255)"
                      fill-opacity="1"
                      d=" M150.4652099609375,-143.00399780273438 C151.7318878173828,-142.8280029296875 152.3246307373047,-138.9040069580078 152.46286010742188,-136.96499633789062 C152.18438720703125,-136.53399658203125 151.09495544433594,-135.71800231933594 148.9618682861328,-135.89700317382812 C146.82879638671875,-136.0760040283203 144.24180603027344,-140.00599670410156 143.21458435058594,-141.947998046875 C145.10400390625,-142.37399291992188 149.19851684570312,-143.17999267578125 150.4652099609375,-143.00399780273438z"
                    ></path>
                    <path
                      stroke-linecap="round"
                      stroke-linejoin="round"
                      fill-opacity="0"
                      stroke="rgb(38,42,51)"
                      stroke-opacity="1"
                      stroke-width="2"
                      d=" M150.4652099609375,-143.00399780273438 C151.7318878173828,-142.8280029296875 152.3246307373047,-138.9040069580078 152.46286010742188,-136.96499633789062 C152.18438720703125,-136.53399658203125 151.09495544433594,-135.71800231933594 148.9618682861328,-135.89700317382812 C146.82879638671875,-136.0760040283203 144.24180603027344,-140.00599670410156 143.21458435058594,-141.947998046875 C145.10400390625,-142.37399291992188 149.19851684570312,-143.17999267578125 150.4652099609375,-143.00399780273438z"
                    ></path>
                  </g>
                  <g
                    opacity="1"
                    transform="matrix(1,0,0,1,568.864013671875,640.958984375)"
                  >
                    <path
                      fill="rgb(255,255,255)"
                      fill-opacity="1"
                      d=" M136.2451171875,-134.18800354003906 C137.57861328125,-134.1840057373047 138.96673583984375,-132.31199645996094 139.49404907226562,-131.3769989013672 C139.1605682373047,-130.22799682617188 138.1263427734375,-127.84500122070312 136.65921020507812,-127.50499725341797 C135.19207763671875,-127.16500091552734 133.8259735107422,-128.23199462890625 133.32606506347656,-128.80799865722656 C133.74375915527344,-130.60299682617188 134.91162109375,-134.19200134277344 136.2451171875,-134.18800354003906z"
                    ></path>
                    <path
                      stroke-linecap="round"
                      stroke-linejoin="round"
                      fill-opacity="0"
                      stroke="rgb(38,42,51)"
                      stroke-opacity="1"
                      stroke-width="2"
                      d=" M136.2451171875,-134.18800354003906 C137.57861328125,-134.1840057373047 138.96673583984375,-132.31199645996094 139.49404907226562,-131.3769989013672 C139.1605682373047,-130.22799682617188 138.1263427734375,-127.84500122070312 136.65921020507812,-127.50499725341797 C135.19207763671875,-127.16500091552734 133.8259735107422,-128.23199462890625 133.32606506347656,-128.80799865722656 C133.74375915527344,-130.60299682617188 134.91162109375,-134.19200134277344 136.2451171875,-134.18800354003906z"
                    ></path>
                  </g>
                  <g
                    opacity="1"
                    transform="matrix(1,0,0,1,547.8679809570312,650.3809814453125)"
                  >
                    <path
                      fill="rgb(38,42,51)"
                      fill-opacity="1"
                      d=" M150.48960876464844,-140.82699584960938 C150.49000549316406,-142.37899780273438 150.15792846679688,-143.48599243164062 149.99148559570312,-143.84500122070312 C149.99148559570312,-143.84500122070312 146.65753173828125,-143.4239959716797 146.65753173828125,-143.4239959716797 C146.65753173828125,-143.4239959716797 146.15663146972656,-140.1929931640625 146.15663146972656,-140.1929931640625 C147.64256286621094,-137.8159942626953 148.48214721679688,-137.2519989013672 149.9886932373047,-137.3800048828125 C150.15573120117188,-137.88299560546875 150.48919677734375,-139.27499389648438 150.48960876464844,-140.82699584960938z"
                    ></path>
                  </g>
                  <g
                    opacity="1"
                    transform="matrix(1,0,0,1,567.698974609375,640.801025390625)"
                  >
                    <path
                      fill="rgb(38,42,51)"
                      fill-opacity="1"
                      d=" M138.7442169189453,-131.01100158691406 C138.74461364746094,-132.21800231933594 138.4115447998047,-133.3820037841797 138.24510192871094,-133.81399536132812 C137.3787078857422,-135.3679962158203 136.27105712890625,-133.2010040283203 135.63131713867188,-131.69400024414062 C135.4332733154297,-130.23500061035156 135.4458770751953,-129.46099853515625 135.79635620117188,-128.0290069580078 C137.3386993408203,-127.19999694824219 137.5231475830078,-127.18599700927734 138.4097442626953,-127.77899932861328 C138.52076721191406,-128.35299682617188 138.7438201904297,-129.8040008544922 138.7442169189453,-131.01100158691406z"
                    ></path>
                    <path
                      stroke-linecap="butt"
                      stroke-linejoin="miter"
                      fill-opacity="0"
                      stroke-miterlimit="4"
                      stroke="rgb(38,42,51)"
                      stroke-opacity="1"
                      stroke-width="2"
                      d=" M138.7442169189453,-131.01100158691406 C138.74461364746094,-132.21800231933594 138.4115447998047,-133.3820037841797 138.24510192871094,-133.81399536132812 C137.3787078857422,-135.3679962158203 136.27105712890625,-133.2010040283203 135.63131713867188,-131.69400024414062 C135.4332733154297,-130.23500061035156 135.4458770751953,-129.46099853515625 135.79635620117188,-128.0290069580078 C137.3386993408203,-127.19999694824219 137.5231475830078,-127.18599700927734 138.4097442626953,-127.77899932861328 C138.52076721191406,-128.35299682617188 138.7438201904297,-129.8040008544922 138.7442169189453,-131.01100158691406z"
                    ></path>
                  </g>
                </g>
                <g
                  opacity="1"
                  transform="matrix(1,0,0,1,552.0809936523438,657.2000122070312)"
                >
                  <g opacity="1" transform="matrix(1,0,0,1,0,0)">
                    <path
                      stroke-linecap="butt"
                      stroke-linejoin="miter"
                      fill-opacity="0"
                      stroke-miterlimit="4"
                      stroke="rgb(38,42,51)"
                      stroke-opacity="1"
                      stroke-width="2"
                      d=" M144.5113983154297,-180.49899291992188 C136.54200744628906,-180.52200317382812 130.07455444335938,-162.47300720214844 130.06515502929688,-140.18699645996094 C130.06414794921875,-138.1540069580078 130.11636352539062,-136.15699768066406 130.21939086914062,-134.2050018310547 C131.24481201171875,-114.75299835205078 137.23435974121094,-99.81400299072266 144.47659301757812,-99.79299926757812 C152.44598388671875,-99.7699966430664 158.91343688964844,-117.81800079345703 158.9228515625,-140.10400390625 C158.9322509765625,-162.38999938964844 152.4807891845703,-180.4759979248047 144.5113983154297,-180.49899291992188z"
                    ></path>
                  </g>
                </g>
              </g>
              <g
                transform="matrix(-0.9932035207748413,-0.11639083921909332,0.11639083921909332,-0.9932035207748413,868.3280639648438,1101.575439453125)"
                opacity="1"
                style="display: block;"
              >
                <g
                  opacity="1"
                  transform="matrix(1,0,0,1,417.45599365234375,670.6890258789062)"
                >
                  <path
                    fill="rgb(255,255,255)"
                    fill-opacity="1"
                    d=" M4.331263542175293,26.60476303100586 C2.77626371383667,26.594762802124023 -0.04966804385185242,26.509746551513672 -1.6381525993347168,26.273086547851562 C-12.012974739074707,22.857633590698242 -19.82271385192871,12.434516906738281 -19.733713150024414,-1.3594828844070435 C-19.64471435546875,-15.295482635498047 -11.595449447631836,-26.192358016967773 -1.0542409420013428,-28.774391174316406 C0.35330432653427124,-28.926679611206055 3.27362322807312,-28.988595962524414 4.687623023986816,-28.979595184326172 C16.83965492248535,-28.894182205200195 26.480484008789062,-16.362192153930664 26.382484436035156,-1.0131919384002686 C26.28448486328125,14.335807800292969 16.519535064697266,26.698448181152344 4.331263542175293,26.60476303100586z"
                  ></path>
                  <path
                    stroke-linecap="butt"
                    stroke-linejoin="miter"
                    fill-opacity="0"
                    stroke-miterlimit="4"
                    stroke="rgb(38,50,56)"
                    stroke-opacity="1"
                    stroke-width="2"
                    d=" M4.331263542175293,26.60476303100586 C2.77626371383667,26.594762802124023 -0.04966804385185242,26.509746551513672 -1.6381525993347168,26.273086547851562 C-12.012974739074707,22.857633590698242 -19.82271385192871,12.434516906738281 -19.733713150024414,-1.3594828844070435 C-19.64471435546875,-15.295482635498047 -11.595449447631836,-26.192358016967773 -1.0542409420013428,-28.774391174316406 C0.35330432653427124,-28.926679611206055 3.27362322807312,-28.988595962524414 4.687623023986816,-28.979595184326172 C16.83965492248535,-28.894182205200195 26.480484008789062,-16.362192153930664 26.382484436035156,-1.0131919384002686 C26.28448486328125,14.335807800292969 16.519535064697266,26.698448181152344 4.331263542175293,26.60476303100586z"
                  ></path>
                </g>
                <g
                  opacity="1"
                  transform="matrix(1,0,0,1,411.4209899902344,668.5250244140625)"
                >
                  <path
                    fill="rgb(255,255,255)"
                    fill-opacity="1"
                    d=" M2.9220383167266846,28.72599983215332 C-9.13305950164795,28.628000259399414 -18.8431339263916,16.104999542236328 -18.7656307220459,0.7559999823570251 C-18.688127517700195,-14.593000411987305 -8.85313606262207,-26.95599937438965 3.2019617557525635,-26.857999801635742 C15.257060050964355,-26.760000228881836 24.967134475708008,-14.237000465393066 24.889631271362305,1.1119999885559082 C24.8121280670166,16.461000442504883 14.977136611938477,28.823999404907227 2.9220383167266846,28.72599983215332z"
                  ></path>
                  <path
                    stroke-linecap="butt"
                    stroke-linejoin="miter"
                    fill-opacity="0"
                    stroke-miterlimit="4"
                    stroke="rgb(38,50,56)"
                    stroke-opacity="1"
                    stroke-width="2"
                    d=" M2.9220383167266846,28.72599983215332 C-9.13305950164795,28.628000259399414 -18.8431339263916,16.104999542236328 -18.7656307220459,0.7559999823570251 C-18.688127517700195,-14.593000411987305 -8.85313606262207,-26.95599937438965 3.2019617557525635,-26.857999801635742 C15.257060050964355,-26.760000228881836 24.967134475708008,-14.237000465393066 24.889631271362305,1.1119999885559082 C24.8121280670166,16.461000442504883 14.977136611938477,28.823999404907227 2.9220383167266846,28.72599983215332z"
                  ></path>
                </g>
                <g
                  opacity="1"
                  transform="matrix(1,0,0,1,411.1990051269531,668.2659912109375)"
                >
                  <path
                    stroke-linecap="butt"
                    stroke-linejoin="miter"
                    fill-opacity="0"
                    stroke-miterlimit="4"
                    stroke="rgb(38,50,56)"
                    stroke-opacity="1"
                    stroke-width="2.5"
                    d=" M16.05451202392578,-7.60699987411499 C16.065635681152344,-9.75 14.708388328552246,-11.50100040435791 13.024803161621094,-11.515000343322754 C13.024803161621094,-11.515000343322754 -6.793904781341553,-11.675999641418457 -6.793904781341553,-11.675999641418457 C-8.477489471435547,-11.6899995803833 -9.851422309875488,-9.961999893188477 -9.862545013427734,-7.818999767303467 C-9.862545013427734,-7.818999767303467 -9.95017147064209,9.651000022888184 -9.95017147064209,9.651000022888184 C-9.961295127868652,11.793000221252441 -8.604687690734863,13.543999671936035 -6.921103000640869,13.557999610900879 C-6.921103000640869,13.557999610900879 12.898605346679688,13.720000267028809 12.898605346679688,13.720000267028809 C14.58119010925293,13.734000205993652 15.95576286315918,12.005999565124512 15.966886520385742,9.86299991607666 C15.966886520385742,9.86299991607666 16.05451202392578,-7.60699987411499 16.05451202392578,-7.60699987411499z"
                  ></path>
                </g>
                <g
                  opacity="1"
                  transform="matrix(1,0,0,1,411.1990051269531,668.2680053710938)"
                >
                  <path
                    stroke-linecap="butt"
                    stroke-linejoin="miter"
                    fill-opacity="0"
                    stroke-miterlimit="4"
                    stroke="rgb(38,50,56)"
                    stroke-opacity="1"
                    stroke-width="2.5"
                    d=" M3.0184805393218994,7.815999984741211 C5.965485095977783,7.839000225067139 8.369046211242676,4.817999839782715 8.388011932373047,1.065999984741211 C8.406977653503418,-2.686000108718872 6.033504962921143,-5.749000072479248 3.086500883102417,-5.771999835968018 C0.1394965797662735,-5.795000076293945 -2.264705181121826,-2.7739999294281006 -2.2836709022521973,0.9779999852180481 C-2.3026366233825684,4.730000019073486 0.07147632539272308,7.793000221252441 3.0184805393218994,7.815999984741211z"
                  ></path>
                </g>
                <g
                  opacity="1"
                  transform="matrix(1,0,0,1,411.3299865722656,667.969970703125)"
                >
                  <path
                    stroke-linecap="round"
                    stroke-linejoin="miter"
                    fill-opacity="0"
                    stroke-miterlimit="4"
                    stroke="rgb(38,50,56)"
                    stroke-opacity="1"
                    stroke-width="2.5"
                    d=" M4.512140274047852,2.2980000972747803 C4.512140274047852,2.2980000972747803 2.098876476287842,2.2799999713897705 2.098876476287842,2.2799999713897705 C2.098876476287842,2.2799999713897705 2.114741802215576,-0.6320000290870667 2.114741802215576,-0.6320000290870667"
                  ></path>
                </g>
              </g>
              <g
                transform="matrix(-0.4557935893535614,-0.8900854587554932,0.8900854587554932,-0.4557935893535614,92.73359680175781,1394.136474609375)"
                opacity="1"
                style="display: block;"
              >
                <g
                  opacity="1"
                  transform="matrix(1,0,0,1,502.0790100097656,565.9099731445312)"
                >
                  <path
                    fill="rgb(255,255,255)"
                    fill-opacity="1"
                    d=" M-2.6665122509002686,17.423999786376953 C-1.3336782455444336,17.426000595092773 0.4531570374965668,17.23183250427246 1.8641177415847778,16.89805793762207 C8.032751083374023,14.817949295043945 12.995909690856934,8.393488883972168 13.006909370422363,0.6554884314537048 C13.017909049987793,-7.205511569976807 8.343978881835938,-13.75220775604248 2.058468818664551,-15.74835205078125 C0.6693557500839233,-16.02702522277832 -1.4234484434127808,-16.18235969543457 -2.6504392623901367,-16.18436050415039 C-10.694098472595215,-16.19736099243164 -17.199146270751953,-8.670000076293945 -17.210494995117188,0.6060000061988831 C-17.22184181213379,9.881999969482422 -10.710171699523926,17.410999298095703 -2.6665122509002686,17.423999786376953z"
                  ></path>
                  <path
                    stroke-linecap="butt"
                    stroke-linejoin="miter"
                    fill-opacity="0"
                    stroke-miterlimit="4"
                    stroke="rgb(38,50,56)"
                    stroke-opacity="1"
                    stroke-width="2"
                    d=" M-2.6665122509002686,17.423999786376953 C-1.3336782455444336,17.426000595092773 0.4531570374965668,17.23183250427246 1.8641177415847778,16.89805793762207 C8.032751083374023,14.817949295043945 12.995909690856934,8.393488883972168 13.006909370422363,0.6554884314537048 C13.017909049987793,-7.205511569976807 8.343978881835938,-13.75220775604248 2.058468818664551,-15.74835205078125 C0.6693557500839233,-16.02702522277832 -1.4234484434127808,-16.18235969543457 -2.6504392623901367,-16.18436050415039 C-10.694098472595215,-16.19736099243164 -17.199146270751953,-8.670000076293945 -17.210494995117188,0.6060000061988831 C-17.22184181213379,9.881999969482422 -10.710171699523926,17.410999298095703 -2.6665122509002686,17.423999786376953z"
                  ></path>
                </g>
                <g
                  opacity="1"
                  transform="matrix(1,0,0,1,505.8190002441406,566.9219970703125)"
                >
                  <path
                    fill="rgb(255,255,255)"
                    fill-opacity="1"
                    d=" M-1.952878713607788,16.416000366210938 C6.072420597076416,16.429000854492188 12.586281776428223,8.920000076293945 12.597445487976074,-0.35600000619888306 C12.608609199523926,-9.631999969482422 6.112177848815918,-17.160999298095703 -1.913121223449707,-17.173999786376953 C-9.938420295715332,-17.187000274658203 -16.452281951904297,-9.678000450134277 -16.46344566345215,-0.4020000100135803 C-16.474609375,8.87399959564209 -9.978178024291992,16.402999877929688 -1.952878713607788,16.416000366210938z"
                  ></path>
                  <path
                    stroke-linecap="butt"
                    stroke-linejoin="miter"
                    fill-opacity="0"
                    stroke-miterlimit="4"
                    stroke="rgb(38,50,56)"
                    stroke-opacity="1"
                    stroke-width="2"
                    d=" M-1.952878713607788,16.416000366210938 C6.072420597076416,16.429000854492188 12.586281776428223,8.920000076293945 12.597445487976074,-0.35600000619888306 C12.608609199523926,-9.631999969482422 6.112177848815918,-17.160999298095703 -1.913121223449707,-17.173999786376953 C-9.938420295715332,-17.187000274658203 -16.452281951904297,-9.678000450134277 -16.46344566345215,-0.4020000100135803 C-16.474609375,8.87399959564209 -9.978178024291992,16.402999877929688 -1.952878713607788,16.416000366210938z"
                  ></path>
                </g>
                <g
                  opacity="1"
                  transform="matrix(1,0,0,1,507.12701416015625,566.5689697265625)"
                >
                  <path
                    fill="rgb(38,50,56)"
                    fill-opacity="1"
                    d=" M-8.023573875427246,-13.02299976348877 C-8.023573875427246,-13.02299976348877 -8.251955032348633,12.70300006866455 -8.251955032348633,12.70300006866455 C-8.251955032348633,12.70300006866455 -5.275734901428223,12.638999938964844 -5.275734901428223,12.638999938964844 C-5.275734901428223,12.638999938964844 -5.080212593078613,8.159000396728516 -5.080212593078613,8.159000396728516 C-5.080212593078613,8.159000396728516 -3.5168533325195312,8.220999717712402 -3.5168533325195312,8.220999717712402 C-3.5168533325195312,8.220999717712402 -3.900998830795288,12.765999794006348 -3.900998830795288,12.765999794006348 C-3.900998830795288,12.765999794006348 -0.4888956546783447,12.791999816894531 -0.4888956546783447,12.791999816894531 C-0.4888956546783447,12.791999816894531 -0.6844176054000854,8.803999900817871 -0.6844176054000854,8.803999900817871 C1.5277767181396484,8.843000411987305 5.928204536437988,8.022000312805176 5.833892822265625,4.427999973297119 C5.739581108093262,0.8339999914169312 2.323028564453125,-0.41600000858306885 0.6272326707839966,-0.5920000076293945 C2.066053867340088,-0.8859999775886536 4.662394046783447,-2.0829999446868896 4.65976095199585,-4.59499979019165 C4.654678821563721,-8.633999824523926 1.1551623344421387,-9.111000061035156 -1.0908911228179932,-9.416999816894531 C-1.0908911228179932,-9.416999816894531 -1.1160354614257812,-9.420000076293945 -1.1160354614257812,-9.420000076293945 C-1.1160354614257812,-9.420000076293945 -1.0261728763580322,-13.506999969482422 -1.0261728763580322,-13.506999969482422 C-1.0261728763580322,-13.506999969482422 -3.690863847732544,-13.430999755859375 -3.690863847732544,-13.430999755859375 C-3.690863847732544,-13.430999755859375 -3.8188512325286865,-9.092000007629395 -3.8188512325286865,-9.092000007629395 C-3.8188512325286865,-9.092000007629395 -5.600244045257568,-9.199999809265137 -5.600244045257568,-9.199999809265137 C-5.600244045257568,-9.199999809265137 -5.672044277191162,-13.111000061035156 -5.672044277191162,-13.111000061035156 C-5.672044277191162,-13.111000061035156 -8.023573875427246,-13.02299976348877 -8.023573875427246,-13.02299976348877z M-5.216098308563232,-2.0510001182556152 C-5.216098308563232,-2.0510001182556152 -5.294796943664551,-6.796000003814697 -5.294796943664551,-6.796000003814697 C-3.1223602294921875,-7.181000232696533 1.3081103563308716,-7.289000034332275 1.6559476852416992,-4.639999866485596 C2.0037848949432373,-1.9910000562667847 -2.7806050777435303,-1.8109999895095825 -5.216098308563232,-2.0510001182556152z M-5.022392749786377,5.1579999923706055 C-5.022392749786377,5.1579999923706055 -4.887323379516602,1.652999997138977 -4.887323379516602,1.652999997138977 C-2.5834503173828125,1.7799999713897705 2.0289292335510254,2.4609999656677246 2.0530736446380615,4.171000003814697 C2.0772178173065186,5.880000114440918 -2.6536176204681396,5.540999889373779 -5.022392749786377,5.1579999923706055z"
                  ></path>
                </g>
              </g>
            </g>
          </g>
        </svg>