    <svg
      xmlns="http://www.w3.org/2000/svg"
      xmlns:xlink="http://www.w3.org/1999/xlink"
      viewBox="0 0 334 334"
      width="334"
      height="334"
      preserveAspectRatio="xMidYMid meet"
      style="width: 100%; height: 100%; transform: translate3d(0px, 0px, 0px); content-visibility: visible;"
    >
      <defs>
        <clipPath id="__lottie_element_147">
          <rect width="334" height="334" x="0" y="0"></rect>
        </clipPath>
        <clipPath id="__lottie_element_149">
          <path d="M0,0 L1000,0 L1000,1000 L0,1000z"></path>
        </clipPath>
        <g id="__lottie_element_210">
          <g
            transform="matrix(-0.9977134466171265,0.06758636236190796,-0.06758636236190796,-0.9977134466171265,484.5834045410156,498)"
            opacity="1"
            style="display: block;"
          >
            <g opacity="1" transform="matrix(1,0,0,1,0,0)">
              <path
                fill="rgb(226,226,226)"
                fill-opacity="1"
                d=" M118.50199890136719,-112 C155.70199584960938,-154.39999389648438 164.16900634765625,-215.66700744628906 163.0019989013672,-242.5 C163.0019989013672,-242.5 -163.0019989013672,-242.5 -163.0019989013672,-242.5 C-164.16900634765625,-215.66700744628906 -155.70199584960938,-154.39999389648438 -118.50199890136719,-112 C-72.00199890136719,-59 -29.00200080871582,-51.5 -29.00200080871582,0 C-29.00200080871582,51.5 -72.00199890136719,59 -118.50199890136719,112 C-155.70199584960938,154.39999389648438 -164.16900634765625,215.66700744628906 -163.0019989013672,242.5 C-163.0019989013672,242.5 163.0019989013672,242.5 163.0019989013672,242.5 C164.16900634765625,215.66700744628906 155.70199584960938,154.39999389648438 118.50199890136719,112 C72.00199890136719,59 29.00200080871582,51.5 29.00200080871582,0 C29.00200080871582,-51.5 72.00199890136719,-59 118.50199890136719,-112z"
              ></path>
            </g>
          </g>
        </g>
        <mask id="__lottie_element_210_1" mask-type="alpha">
          <use xlink:href="#__lottie_element_210"></use>
        </mask>
        <g id="__lottie_element_216">
          <g
            transform="matrix(-0.9977134466171265,0.06758636236190796,-0.06758636236190796,-0.9977134466171265,484.5834045410156,498)"
            opacity="1"
            style="display: block;"
          >
            <g opacity="1" transform="matrix(1,0,0,1,0,0)">
              <path
                fill="rgb(226,226,226)"
                fill-opacity="1"
                d=" M118.50199890136719,-112 C155.70199584960938,-154.39999389648438 164.16900634765625,-215.66700744628906 163.0019989013672,-242.5 C163.0019989013672,-242.5 -163.0019989013672,-242.5 -163.0019989013672,-242.5 C-164.16900634765625,-215.66700744628906 -155.70199584960938,-154.39999389648438 -118.50199890136719,-112 C-72.00199890136719,-59 -29.00200080871582,-51.5 -29.00200080871582,0 C-29.00200080871582,51.5 -72.00199890136719,59 -118.50199890136719,112 C-155.70199584960938,154.39999389648438 -164.16900634765625,215.66700744628906 -163.0019989013672,242.5 C-163.0019989013672,242.5 163.0019989013672,242.5 163.0019989013672,242.5 C164.16900634765625,215.66700744628906 155.70199584960938,154.39999389648438 118.50199890136719,112 C72.00199890136719,59 29.00200080871582,51.5 29.00200080871582,0 C29.00200080871582,-51.5 72.00199890136719,-59 118.50199890136719,-112z"
              ></path>
            </g>
          </g>
        </g>
        <mask id="__lottie_element_216_1" mask-type="alpha">
          <use xlink:href="#__lottie_element_216"></use>
        </mask>
        <g id="__lottie_element_222">
          <g
            transform="matrix(-0.9977134466171265,0.06758636236190796,-0.06758636236190796,-0.9977134466171265,484.5834045410156,498)"
            opacity="1"
            style="display: block;"
          >
            <g opacity="1" transform="matrix(1,0,0,1,0,0)">
              <path
                fill="rgb(226,226,226)"
                fill-opacity="1"
                d=" M118.50199890136719,-112 C155.70199584960938,-154.39999389648438 164.16900634765625,-215.66700744628906 163.0019989013672,-242.5 C163.0019989013672,-242.5 -163.0019989013672,-242.5 -163.0019989013672,-242.5 C-164.16900634765625,-215.66700744628906 -155.70199584960938,-154.39999389648438 -118.50199890136719,-112 C-72.00199890136719,-59 -29.00200080871582,-51.5 -29.00200080871582,0 C-29.00200080871582,51.5 -72.00199890136719,59 -118.50199890136719,112 C-155.70199584960938,154.39999389648438 -164.16900634765625,215.66700744628906 -163.0019989013672,242.5 C-163.0019989013672,242.5 163.0019989013672,242.5 163.0019989013672,242.5 C164.16900634765625,215.66700744628906 155.70199584960938,154.39999389648438 118.50199890136719,112 C72.00199890136719,59 29.00200080871582,51.5 29.00200080871582,0 C29.00200080871582,-51.5 72.00199890136719,-59 118.50199890136719,-112z"
              ></path>
            </g>
          </g>
        </g>
        <mask id="__lottie_element_222_1" mask-type="alpha">
          <use xlink:href="#__lottie_element_222"></use>
        </mask>
        <g id="__lottie_element_228">
          <g
            transform="matrix(-0.9977134466171265,0.06758636236190796,-0.06758636236190796,-0.9977134466171265,484.5834045410156,498)"
            opacity="1"
            style="display: block;"
          >
            <g opacity="1" transform="matrix(1,0,0,1,0,0)">
              <path
                fill="rgb(226,226,226)"
                fill-opacity="1"
                d=" M118.50199890136719,-112 C155.70199584960938,-154.39999389648438 164.16900634765625,-215.66700744628906 163.0019989013672,-242.5 C163.0019989013672,-242.5 -163.0019989013672,-242.5 -163.0019989013672,-242.5 C-164.16900634765625,-215.66700744628906 -155.70199584960938,-154.39999389648438 -118.50199890136719,-112 C-72.00199890136719,-59 -29.00200080871582,-51.5 -29.00200080871582,0 C-29.00200080871582,51.5 -72.00199890136719,59 -118.50199890136719,112 C-155.70199584960938,154.39999389648438 -164.16900634765625,215.66700744628906 -163.0019989013672,242.5 C-163.0019989013672,242.5 163.0019989013672,242.5 163.0019989013672,242.5 C164.16900634765625,215.66700744628906 155.70199584960938,154.39999389648438 118.50199890136719,112 C72.00199890136719,59 29.00200080871582,51.5 29.00200080871582,0 C29.00200080871582,-51.5 72.00199890136719,-59 118.50199890136719,-112z"
              ></path>
            </g>
          </g>
        </g>
        <mask id="__lottie_element_228_1" mask-type="alpha">
          <use xlink:href="#__lottie_element_228"></use>
        </mask>
      </defs>
      <g clip-path="url(#__lottie_element_147)">
        <g
          clip-path="url(#__lottie_element_149)"
          transform="matrix(0.47999998927116394,0,0,0.47999998927116394,-73,-73)"
          opacity="1"
          style="display: block;"
        >
          <g
            transform="matrix(-0.9977134466171265,0.06758636236190796,-0.06758636236190796,-0.9977134466171265,484.5834045410156,498)"
            opacity="1"
            style="display: block;"
          >
            <g opacity="1" transform="matrix(1,0,0,1,0,0)">
              <path
                fill="rgb(226,226,226)"
                fill-opacity="1"
                d=" M118.50199890136719,-112 C155.70199584960938,-154.39999389648438 164.16900634765625,-215.66700744628906 163.0019989013672,-242.5 C163.0019989013672,-242.5 -163.0019989013672,-242.5 -163.0019989013672,-242.5 C-164.16900634765625,-215.66700744628906 -155.70199584960938,-154.39999389648438 -118.50199890136719,-112 C-72.00199890136719,-59 -29.00200080871582,-51.5 -29.00200080871582,0 C-29.00200080871582,51.5 -72.00199890136719,59 -118.50199890136719,112 C-155.70199584960938,154.39999389648438 -164.16900634765625,215.66700744628906 -163.0019989013672,242.5 C-163.0019989013672,242.5 163.0019989013672,242.5 163.0019989013672,242.5 C164.16900634765625,215.66700744628906 155.70199584960938,154.39999389648438 118.50199890136719,112 C72.00199890136719,59 29.00200080871582,51.5 29.00200080871582,0 C29.00200080871582,-51.5 72.00199890136719,-59 118.50199890136719,-112z"
              ></path>
            </g>
          </g>
          <g mask="url(#__lottie_element_228_1)" style="display: block;">
            <g
              transform="matrix(0.9993840456008911,0.03509359806776047,-0.03509359806776047,0.9993840456008911,494.6976013183594,503.4654235839844)"
              opacity="1"
            >
              <g opacity="1" transform="matrix(1,0,0,1,0,0)">
                <path
                  fill="rgb(243,93,2)"
                  fill-opacity="1"
                  d=" M-243,-175 C-302,-192 -243,-73 -154,-70 C-65,-67 139,-48 172,-92 C205,-136 220,-131 174,-159 C128,-187 22,-187 -53,-165 C-128,-143 -184,-158 -243,-175z"
                ></path>
              </g>
            </g>
          </g>
          <g mask="url(#__lottie_element_222_1)" style="display: block;">
            <g
              transform="matrix(-0.9977134466171265,0.06758636236190796,-0.06758636236190796,-0.9977134466171265,475.9242248535156,372.3329162597656)"
              opacity="1"
            >
              <g opacity="1" transform="matrix(1,0,0,1,0,0)">
                <path
                  fill="rgb(244,94,3)"
                  fill-opacity="1"
                  d=" M-176.92100524902344,-0.5270000100135803 C-172.03599548339844,-31.715999603271484 -169.4029998779297,-37.12699890136719 -140.4029998779297,-60.62699890136719 C-84.43599700927734,-124.60700225830078 -22.09000015258789,-140.8300018310547 2.0950000286102295,-140.1699981689453 C24.534000396728516,-139.55799865722656 34.75699996948242,-140.8820037841797 126.25,-96.8010025024414 C149.72300720214844,-85.49199676513672 179.46099853515625,-65.9489974975586 182.57899475097656,-2.5269999504089355 C182.57899475097656,-2.5269999504089355 -176.92100524902344,-0.5270000100135803 -176.92100524902344,-0.5270000100135803z"
                ></path>
              </g>
            </g>
          </g>
          <g mask="url(#__lottie_element_216_1)" style="display: block;">
            <g
              transform="matrix(0.9998728632926941,0.015945449471473694,-0.015945449471473694,0.9998728632926941,493.2425842285156,623.6671142578125)"
              opacity="1"
            >
              <g opacity="1" transform="matrix(1,0,0,1,0,38)">
                <path
                  fill="rgb(244,94,3)"
                  fill-opacity="1"
                  d=" M-178.25,134.46499633789062 C-207.13900756835938,16.03499984741211 -140.25,14.53499984741211 -111.25,-8.96500015258789 C-54.138999938964844,-43.96500015258789 -16.479000091552734,-50.46699905395508 -4.75,-50.46500015258789 C8.75,-50.4630012512207 70.25,-39.61199951171875 115.75,-8.46500015258789 C137.25,6.252999782562256 194.86099243164062,22.03499984741211 193.25,129.46499633789062 C193.25,129.46499633789062 -178.25,134.46499633789062 -178.25,134.46499633789062z"
                ></path>
              </g>
            </g>
          </g>
          <g mask="url(#__lottie_element_210_1)" style="display: block;">
            <g
              transform="matrix(0.9977134466171265,-0.06758636236190796,0.06758636236190796,0.9977134466171265,493.9386291503906,525.029541015625)"
              opacity="1"
            >
              <g opacity="1" transform="matrix(1,0,0,1,0,0)">
                <path
                  fill="rgb(243,93,2)"
                  fill-opacity="1"
                  d=" M15.650025367736816,-82.5062255859375 C13.430025100708008,-104.98522186279297 -31.53682518005371,-101.57205200195312 -32.359375,-78.7874984741211 C-33.859375,-37.028099060058594 -39.01872634887695,-35.81877517700195 -58.584373474121094,-2.75 C-72.70030212402344,21.113550186157227 -69.02954864501953,44.1015739440918 -61.859375,69.5500259399414 C-53.10627365112305,101.3625259399414 -65.09687805175781,124.72187805175781 -82.6562271118164,152.5999755859375 C-94.13079833984375,170.77975463867188 -98.75530242919922,181.7918243408203 -94.33747863769531,224.0249786376953 C-92.0625,245.78433227539062 -48.36982345581055,246.967529296875 -38.315650939941406,248.12503051757812 C-19.678150177001953,250.3125457763672 -6.722875118255615,254.9124755859375 24.778125762939453,254.91561889648438 C47.637474060058594,254.9187774658203 68.59062194824219,240.1781463623047 69.84062194824219,223.9281463623047 C71.09062194824219,207.6781463623047 75.98747253417969,181.4375 62.34375,156.9750213623047 C46.539398193359375,128.70277404785156 32.02497482299805,105.04377746582031 45.071876525878906,67.22502136230469 C52.490474700927734,45.81669998168945 53.4937744140625,22.068750381469727 41.8375244140625,-0.012524999678134918 C25.049699783325195,-31.523149490356445 19.6500244140625,-42.0062255859375 15.650025367736816,-82.5062255859375z"
                ></path>
              </g>
            </g>
          </g>
          <g
            transform="matrix(-0.9977134466171265,0.06758636236190796,-0.06758636236190796,-0.9977134466171265,484.5834045410156,498)"
            opacity="1"
            style="display: block;"
          >
            <g opacity="1" transform="matrix(1,0,0,1,0,0)">
              <path
                stroke-linecap="butt"
                stroke-linejoin="miter"
                fill-opacity="0"
                stroke-miterlimit="4"
                stroke="rgb(38,50,56)"
                stroke-opacity="1"
                stroke-width="2"
                d=" M118.50199890136719,-112 C155.70199584960938,-154.39999389648438 164.16900634765625,-215.66700744628906 163.0019989013672,-242.5 C163.0019989013672,-242.5 -163.0019989013672,-242.5 -163.0019989013672,-242.5 C-164.16900634765625,-215.66700744628906 -155.70199584960938,-154.39999389648438 -118.50199890136719,-112 C-72.00199890136719,-59 -29.00200080871582,-51.5 -29.00200080871582,0 C-29.00200080871582,51.5 -72.00199890136719,59 -118.50199890136719,112 C-155.70199584960938,154.39999389648438 -164.16900634765625,215.66700744628906 -163.0019989013672,242.5 C-163.0019989013672,242.5 163.0019989013672,242.5 163.0019989013672,242.5 C164.16900634765625,215.66700744628906 155.70199584960938,154.39999389648438 118.50199890136719,112 C72.00199890136719,59 29.00200080871582,51.5 29.00200080871582,0 C29.00200080871582,-51.5 72.00199890136719,-59 118.50199890136719,-112z"
              ></path>
            </g>
          </g>
          <g
            transform="matrix(-0.9977134466171265,0.06758636236190796,-0.06758636236190796,-0.9977134466171265,500.832275390625,728.9298706054688)"
            opacity="1"
            style="display: block;"
          >
            <g opacity="1" transform="matrix(1,0,0,1,0,0)">
              <path
                fill="rgb(217,217,217)"
                fill-opacity="1"
                d=" M-160.5,-11.5 C-160.5,-11.5 160.5,-11.5 160.5,-11.5 C166.0229949951172,-11.5 170.5,-7.0229997634887695 170.5,-1.5 C170.5,-1.5 170.5,1.5 170.5,1.5 C170.5,7.0229997634887695 166.0229949951172,11.5 160.5,11.5 C160.5,11.5 -160.5,11.5 -160.5,11.5 C-166.0229949951172,11.5 -170.5,7.0229997634887695 -170.5,1.5 C-170.5,1.5 -170.5,-1.5 -170.5,-1.5 C-170.5,-7.0229997634887695 -166.0229949951172,-11.5 -160.5,-11.5z"
              ></path>
              <path
                stroke-linecap="butt"
                stroke-linejoin="miter"
                fill-opacity="0"
                stroke-miterlimit="4"
                stroke="rgb(38,50,56)"
                stroke-opacity="1"
                stroke-width="2"
                d=" M-160.5,-11.5 C-160.5,-11.5 160.5,-11.5 160.5,-11.5 C166.0229949951172,-11.5 170.5,-7.0229997634887695 170.5,-1.5 C170.5,-1.5 170.5,1.5 170.5,1.5 C170.5,7.0229997634887695 166.0229949951172,11.5 160.5,11.5 C160.5,11.5 -160.5,11.5 -160.5,11.5 C-166.0229949951172,11.5 -170.5,7.0229997634887695 -170.5,1.5 C-170.5,1.5 -170.5,-1.5 -170.5,-1.5 C-170.5,-7.0229997634887695 -166.0229949951172,-11.5 -160.5,-11.5z"
              ></path>
            </g>
          </g>
          <g
            transform="matrix(-0.9977134466171265,0.06758636236190796,-0.06758636236190796,-0.9977134466171265,469.40460205078125,264.99310302734375)"
            opacity="1"
            style="display: block;"
          >
            <g opacity="1" transform="matrix(1,0,0,1,0,0)">
              <path
                fill="rgb(217,217,217)"
                fill-opacity="1"
                d=" M-160.5,-11.5 C-160.5,-11.5 160.5,-11.5 160.5,-11.5 C166.0229949951172,-11.5 170.5,-7.0229997634887695 170.5,-1.5 C170.5,-1.5 170.5,1.5 170.5,1.5 C170.5,7.0229997634887695 166.0229949951172,11.5 160.5,11.5 C160.5,11.5 -160.5,11.5 -160.5,11.5 C-166.0229949951172,11.5 -170.5,7.0229997634887695 -170.5,1.5 C-170.5,1.5 -170.5,-1.5 -170.5,-1.5 C-170.5,-7.0229997634887695 -166.0229949951172,-11.5 -160.5,-11.5z"
              ></path>
              <path
                stroke-linecap="butt"
                stroke-linejoin="miter"
                fill-opacity="0"
                stroke-miterlimit="4"
                stroke="rgb(38,50,56)"
                stroke-opacity="1"
                stroke-width="2"
                d=" M-160.5,-11.5 C-160.5,-11.5 160.5,-11.5 160.5,-11.5 C166.0229949951172,-11.5 170.5,-7.0229997634887695 170.5,-1.5 C170.5,-1.5 170.5,1.5 170.5,1.5 C170.5,7.0229997634887695 166.0229949951172,11.5 160.5,11.5 C160.5,11.5 -160.5,11.5 -160.5,11.5 C-166.0229949951172,11.5 -170.5,7.0229997634887695 -170.5,1.5 C-170.5,1.5 -170.5,-1.5 -170.5,-1.5 C-170.5,-7.0229997634887695 -166.0229949951172,-11.5 -160.5,-11.5z"
              ></path>
            </g>
          </g>
          <g style="display: none;">
            <g>
              <g>
                <path></path>
              </g>
            </g>
            <g>
              <g>
                <path></path>
              </g>
            </g>
          </g>
          <g
            transform="matrix(0.9977134466171265,-0.06758636236190796,0.06758636236190796,0.9977134466171265,-36.95047378540039,34.18803405761719)"
            opacity="1"
            style="display: block;"
          >
            <g
              opacity="1"
              transform="matrix(1,0,0,1,369.60101318359375,322.0639953613281)"
            >
              <g opacity="1" transform="matrix(1,0,0,1,0,0)">
                <path
                  fill="rgb(255,255,255)"
                  fill-opacity="1"
                  d=" M-12.475000381469727,5.982999801635742 C-20.735000610351562,-11.241000175476074 -21.847000122070312,-27.882999420166016 -14.956999778747559,-31.187000274658203 C-8.067000389099121,-34.49100112915039 4.215000152587891,-23.207000732421875 12.475000381469727,-5.982999801635742 C20.735000610351562,11.241000175476074 21.847000122070312,27.882999420166016 14.956999778747559,31.187000274658203 C8.067000389099121,34.49100112915039 -4.215000152587891,23.207000732421875 -12.475000381469727,5.982999801635742z"
                ></path>
              </g>
            </g>
            <g
              opacity="1"
              transform="matrix(1,0,0,1,395.06201171875,371.6629943847656)"
            >
              <g opacity="1" transform="matrix(1,0,0,1,0,0)">
                <path
                  fill="rgb(255,255,255)"
                  fill-opacity="1"
                  d=" M-7.995999813079834,3.8350000381469727 C-10.406999588012695,-1.1929999589920044 -8.781999588012695,-6.986000061035156 -4.366000175476074,-9.104000091552734 C0.05000000074505806,-11.222000122070312 5.585000038146973,-8.86299991607666 7.995999813079834,-3.8350000381469727 C10.406999588012695,1.1929999589920044 8.781999588012695,6.986000061035156 4.366000175476074,9.104000091552734 C-0.05000000074505806,11.222000122070312 -5.585000038146973,8.86299991607666 -7.995999813079834,3.8350000381469727z"
                ></path>
              </g>
            </g>
          </g>
          <g
            style="display: none;"
            transform="matrix(-0.9987832307815552,-0.04931648075580597,0.04931648075580597,-0.9987832307815552,521.9347534179688,645.6422119140625)"
            opacity="0.0006507964281222201"
          >
            <g opacity="1" transform="matrix(1,0,0,1,0,0)">
              <path
                fill="rgb(255,255,255)"
                fill-opacity="1"
                d=" M0,-0.17830556631088257 C0.09872099757194519,-0.17830556631088257 0.17830556631088257,-0.09872099757194519 0.17830556631088257,0 C0.17830556631088257,0.09872099757194519 0.09872099757194519,0.17830556631088257 0,0.17830556631088257 C-0.09872099757194519,0.17830556631088257 -0.17830556631088257,0.09872099757194519 -0.17830556631088257,0 C-0.17830556631088257,-0.09872099757194519 -0.09872099757194519,-0.17830556631088257 0,-0.17830556631088257z"
              ></path>
              <path
                stroke-linecap="butt"
                stroke-linejoin="miter"
                fill-opacity="0"
                stroke-miterlimit="4"
                stroke="rgb(38,50,56)"
                stroke-opacity="1"
                stroke-width="2"
                d=" M0,-0.17830556631088257 C0.09872099757194519,-0.17830556631088257 0.17830556631088257,-0.09872099757194519 0.17830556631088257,0 C0.17830556631088257,0.09872099757194519 0.09872099757194519,0.17830556631088257 0,0.17830556631088257 C-0.09872099757194519,0.17830556631088257 -0.17830556631088257,0.09872099757194519 -0.17830556631088257,0 C-0.17830556631088257,-0.09872099757194519 -0.09872099757194519,-0.17830556631088257 0,-0.17830556631088257z"
              ></path>
            </g>
          </g>
          <g
            style="display: none;"
            transform="matrix(-0.9975640773773193,0.0697556808590889,-0.0697556808590889,-0.9975640773773193,472.1867980957031,639.0550537109375)"
            opacity="0.0006507964281230727"
          >
            <g opacity="1" transform="matrix(1,0,0,1,0,0)">
              <path
                fill="rgb(255,255,255)"
                fill-opacity="1"
                d=" M0,-0.17830556631088257 C0.09872099757194519,-0.17830556631088257 0.17830556631088257,-0.09872099757194519 0.17830556631088257,0 C0.17830556631088257,0.09872099757194519 0.09872099757194519,0.17830556631088257 0,0.17830556631088257 C-0.09872099757194519,0.17830556631088257 -0.17830556631088257,0.09872099757194519 -0.17830556631088257,0 C-0.17830556631088257,-0.09872099757194519 -0.09872099757194519,-0.17830556631088257 0,-0.17830556631088257z"
              ></path>
              <path
                stroke-linecap="butt"
                stroke-linejoin="miter"
                fill-opacity="0"
                stroke-miterlimit="4"
                stroke="rgb(38,50,56)"
                stroke-opacity="1"
                stroke-width="2"
                d=" M0,-0.17830556631088257 C0.09872099757194519,-0.17830556631088257 0.17830556631088257,-0.09872099757194519 0.17830556631088257,0 C0.17830556631088257,0.09872099757194519 0.09872099757194519,0.17830556631088257 0,0.17830556631088257 C-0.09872099757194519,0.17830556631088257 -0.17830556631088257,0.09872099757194519 -0.17830556631088257,0 C-0.17830556631088257,-0.09872099757194519 -0.09872099757194519,-0.17830556631088257 0,-0.17830556631088257z"
              ></path>
            </g>
          </g>
          <g
            style="display: block;"
            transform="matrix(-0.9977134466171265,0.06758636236190796,-0.06758636236190796,-0.9977134466171265,493.5705871582031,549.540771484375)"
            opacity="1"
          >
            <g opacity="1" transform="matrix(1,0,0,1,0,0)">
              <path
                fill="rgb(255,255,255)"
                fill-opacity="1"
                d=" M0,-7 C3.865999937057495,-7 7,-3.865999937057495 7,0 C7,3.865999937057495 3.865999937057495,7 0,7 C-3.865999937057495,7 -7,3.865999937057495 -7,0 C-7,-3.865999937057495 -3.865999937057495,-7 0,-7z"
              ></path>
              <path
                stroke-linecap="butt"
                stroke-linejoin="miter"
                fill-opacity="0"
                stroke-miterlimit="4"
                stroke="rgb(38,50,56)"
                stroke-opacity="1"
                stroke-width="2"
                d=" M0,-7 C3.865999937057495,-7 7,-3.865999937057495 7,0 C7,3.865999937057495 3.865999937057495,7 0,7 C-3.865999937057495,7 -7,3.865999937057495 -7,0 C-7,-3.865999937057495 -3.865999937057495,-7 0,-7z"
              ></path>
            </g>
          </g>
          <g
            style="display: block;"
            transform="matrix(-0.9977134466171265,0.06758636236190796,-0.06758636236190796,-0.9977134466171265,523.4509887695312,398.81231689453125)"
            opacity="1"
          >
            <g opacity="1" transform="matrix(1,0,0,1,0,0)">
              <path
                fill="rgb(255,255,255)"
                fill-opacity="1"
                d=" M0,-3.5245697498321533 C1.9466944932937622,-3.5245697498321533 3.5245697498321533,-1.9466944932937622 3.5245697498321533,0 C3.5245697498321533,1.9466944932937622 1.9466944932937622,3.5245697498321533 0,3.5245697498321533 C-1.9466944932937622,3.5245697498321533 -3.5245697498321533,1.9466944932937622 -3.5245697498321533,0 C-3.5245697498321533,-1.9466944932937622 -1.9466944932937622,-3.5245697498321533 0,-3.5245697498321533z"
              ></path>
              <path
                stroke-linecap="butt"
                stroke-linejoin="miter"
                fill-opacity="0"
                stroke-miterlimit="4"
                stroke="rgb(38,50,56)"
                stroke-opacity="1"
                stroke-width="2"
                d=" M0,-3.5245697498321533 C1.9466944932937622,-3.5245697498321533 3.5245697498321533,-1.9466944932937622 3.5245697498321533,0 C3.5245697498321533,1.9466944932937622 1.9466944932937622,3.5245697498321533 0,3.5245697498321533 C-1.9466944932937622,3.5245697498321533 -3.5245697498321533,1.9466944932937622 -3.5245697498321533,0 C-3.5245697498321533,-1.9466944932937622 -1.9466944932937622,-3.5245697498321533 0,-3.5245697498321533z"
              ></path>
            </g>
          </g>
          <g
            transform="matrix(-0.9977134466171265,0.06758636236190796,-0.06758636236190796,-0.9977134466171265,546.1197509765625,695.9874877929688)"
            opacity="1"
            style="display: block;"
          >
            <g opacity="1" transform="matrix(1,0,0,1,0,0)">
              <path
                fill="rgb(255,255,255)"
                fill-opacity="1"
                d=" M0,-7 C3.865999937057495,-7 7,-3.865999937057495 7,0 C7,3.865999937057495 3.865999937057495,7 0,7 C-3.865999937057495,7 -7,3.865999937057495 -7,0 C-7,-3.865999937057495 -3.865999937057495,-7 0,-7z"
              ></path>
              <path
                stroke-linecap="butt"
                stroke-linejoin="miter"
                fill-opacity="0"
                stroke-miterlimit="4"
                stroke="rgb(38,50,56)"
                stroke-opacity="1"
                stroke-width="2"
                d=" M0,-7 C3.865999937057495,-7 7,-3.865999937057495 7,0 C7,3.865999937057495 3.865999937057495,7 0,7 C-3.865999937057495,7 -7,3.865999937057495 -7,0 C-7,-3.865999937057495 -3.865999937057495,-7 0,-7z"
              ></path>
            </g>
          </g>
          <g
            transform="matrix(-0.9977134466171265,0.06758636236190796,-0.06758636236190796,-0.9977134466171265,442.2670593261719,384.4443054199219)"
            opacity="1"
            style="display: block;"
          >
            <g opacity="1" transform="matrix(1,0,0,1,0,0)">
              <path
                fill="rgb(255,255,255)"
                fill-opacity="1"
                d=" M0,-7 C3.865999937057495,-7 7,-3.865999937057495 7,0 C7,3.865999937057495 3.865999937057495,7 0,7 C-3.865999937057495,7 -7,3.865999937057495 -7,0 C-7,-3.865999937057495 -3.865999937057495,-7 0,-7z"
              ></path>
              <path
                stroke-linecap="butt"
                stroke-linejoin="miter"
                fill-opacity="0"
                stroke-miterlimit="4"
                stroke="rgb(38,50,56)"
                stroke-opacity="1"
                stroke-width="2"
                d=" M0,-7 C3.865999937057495,-7 7,-3.865999937057495 7,0 C7,3.865999937057495 3.865999937057495,7 0,7 C-3.865999937057495,7 -7,3.865999937057495 -7,0 C-7,-3.865999937057495 -3.865999937057495,-7 0,-7z"
              ></path>
            </g>
          </g>
          <g
            transform="matrix(-0.9977134466171265,0.06758636236190796,-0.06758636236190796,-0.9977134466171265,521.7518920898438,676.366943359375)"
            opacity="1"
            style="display: block;"
          >
            <g opacity="1" transform="matrix(1,0,0,1,0,0)">
              <path
                fill="rgb(255,255,255)"
                fill-opacity="1"
                d=" M0,-4.5 C2.484999895095825,-4.5 4.5,-2.484999895095825 4.5,0 C4.5,2.484999895095825 2.484999895095825,4.5 0,4.5 C-2.484999895095825,4.5 -4.5,2.484999895095825 -4.5,0 C-4.5,-2.484999895095825 -2.484999895095825,-4.5 0,-4.5z"
              ></path>
              <path
                stroke-linecap="butt"
                stroke-linejoin="miter"
                fill-opacity="0"
                stroke-miterlimit="4"
                stroke="rgb(38,50,56)"
                stroke-opacity="1"
                stroke-width="2"
                d=" M0,-4.5 C2.484999895095825,-4.5 4.5,-2.484999895095825 4.5,0 C4.5,2.484999895095825 2.484999895095825,4.5 0,4.5 C-2.484999895095825,4.5 -4.5,2.484999895095825 -4.5,0 C-4.5,-2.484999895095825 -2.484999895095825,-4.5 0,-4.5z"
              ></path>
            </g>
          </g>
          <g
            transform="matrix(-0.9977134466171265,0.06758636236190796,-0.06758636236190796,-0.9977134466171265,553.280029296875,372.11474609375)"
            opacity="1"
            style="display: block;"
          >
            <g opacity="1" transform="matrix(1,0,0,1,0,0)">
              <path
                fill="rgb(255,255,255)"
                fill-opacity="1"
                d=" M0,-4.5 C2.484999895095825,-4.5 4.5,-2.484999895095825 4.5,0 C4.5,2.484999895095825 2.484999895095825,4.5 0,4.5 C-2.484999895095825,4.5 -4.5,2.484999895095825 -4.5,0 C-4.5,-2.484999895095825 -2.484999895095825,-4.5 0,-4.5z"
              ></path>
              <path
                stroke-linecap="butt"
                stroke-linejoin="miter"
                fill-opacity="0"
                stroke-miterlimit="4"
                stroke="rgb(38,50,56)"
                stroke-opacity="1"
                stroke-width="2"
                d=" M0,-4.5 C2.484999895095825,-4.5 4.5,-2.484999895095825 4.5,0 C4.5,2.484999895095825 2.484999895095825,4.5 0,4.5 C-2.484999895095825,4.5 -4.5,2.484999895095825 -4.5,0 C-4.5,-2.484999895095825 -2.484999895095825,-4.5 0,-4.5z"
              ></path>
            </g>
          </g>
          <g
            transform="matrix(-0.9977134466171265,0.06758636236190796,-0.06758636236190796,-0.9977134466171265,438.9642333984375,633.9520874023438)"
            opacity="1"
            style="display: block;"
          >
            <g opacity="1" transform="matrix(1,0,0,1,0,0)">
              <path
                fill="rgb(255,255,255)"
                fill-opacity="1"
                d=" M0,-7 C3.865999937057495,-7 7,-3.865999937057495 7,0 C7,3.865999937057495 3.865999937057495,7 0,7 C-3.865999937057495,7 -7,3.865999937057495 -7,0 C-7,-3.865999937057495 -3.865999937057495,-7 0,-7z"
              ></path>
              <path
                stroke-linecap="butt"
                stroke-linejoin="miter"
                fill-opacity="0"
                stroke-miterlimit="4"
                stroke="rgb(38,50,56)"
                stroke-opacity="1"
                stroke-width="2"
                d=" M0,-7 C3.865999937057495,-7 7,-3.865999937057495 7,0 C7,3.865999937057495 3.865999937057495,7 0,7 C-3.865999937057495,7 -7,3.865999937057495 -7,0 C-7,-3.865999937057495 -3.865999937057495,-7 0,-7z"
              ></path>
            </g>
          </g>
          <g
            transform="matrix(-0.6629431247711182,0.7486697435379028,-0.7486697435379028,-0.6629431247711182,1222.4188232421875,492.55389404296875)"
            opacity="1"
            style="display: block;"
          >
            <g
              opacity="1"
              transform="matrix(1,0,0,1,456.2720031738281,605.1640014648438)"
            >
              <path
                fill="rgb(155,155,155)"
                fill-opacity="1"
                d=" M16.789920806884766,4.490146160125732 C16.85724639892578,19.220521926879883 12.270549774169922,27.400901794433594 8.996424674987793,29.933618545532227 C8.996424674987793,29.933618545532227 -0.7400000095367432,29.868000030517578 -0.7400000095367432,29.868000030517578 C-0.7400000095367432,29.868000030517578 -0.4560000002384186,-22.131000518798828 -0.4560000002384186,-22.131000518798828 C-0.4560000002384186,-22.131000518798828 9.280425071716309,-22.09903335571289 9.280425071716309,-22.09903335571289 C12.376811027526855,-20.330211639404297 16.705360412597656,-11.09991455078125 16.789920806884766,4.490146160125732z"
              ></path>
              <path
                stroke-linecap="butt"
                stroke-linejoin="miter"
                fill-opacity="0"
                stroke-miterlimit="4"
                stroke="rgb(38,50,56)"
                stroke-opacity="1"
                stroke-width="2"
                d=" M16.789920806884766,4.490146160125732 C16.85724639892578,19.220521926879883 12.270549774169922,27.400901794433594 8.996424674987793,29.933618545532227 C8.996424674987793,29.933618545532227 -0.7400000095367432,29.868000030517578 -0.7400000095367432,29.868000030517578 C-0.7400000095367432,29.868000030517578 -0.4560000002384186,-22.131000518798828 -0.4560000002384186,-22.131000518798828 C-0.4560000002384186,-22.131000518798828 9.280425071716309,-22.09903335571289 9.280425071716309,-22.09903335571289 C12.376811027526855,-20.330211639404297 16.705360412597656,-11.09991455078125 16.789920806884766,4.490146160125732z"
              ></path>
            </g>
            <g
              opacity="1"
              transform="matrix(1,0,0,1,453.7969970703125,612.5479736328125)"
            >
              <path
                fill="rgb(255,255,255)"
                fill-opacity="1"
                d=" M10.852273941040039,-3.4040000438690186 C10.901753425598145,-17.82699966430664 6.669074058532715,-29.555999755859375 1.398026704788208,-29.601999282836914 C-3.87239146232605,-29.648000717163086 -8.185423851013184,-17.993000030517578 -8.234903335571289,-3.569999933242798 C-8.284382820129395,10.852999687194824 -4.051074028015137,22.58300018310547 1.2199733257293701,22.628999710083008 C6.490391731262207,22.674999237060547 10.802794456481934,11.019000053405762 10.852273941040039,-3.4040000438690186z"
              ></path>
              <path
                stroke-linecap="butt"
                stroke-linejoin="miter"
                fill-opacity="0"
                stroke-miterlimit="4"
                stroke="rgb(38,50,56)"
                stroke-opacity="1"
                stroke-width="2"
                d=" M10.852273941040039,-3.4040000438690186 C10.901753425598145,-17.82699966430664 6.669074058532715,-29.555999755859375 1.398026704788208,-29.601999282836914 C-3.87239146232605,-29.648000717163086 -8.185423851013184,-17.993000030517578 -8.234903335571289,-3.569999933242798 C-8.284382820129395,10.852999687194824 -4.051074028015137,22.58300018310547 1.2199733257293701,22.628999710083008 C6.490391731262207,22.674999237060547 10.802794456481934,11.019000053405762 10.852273941040039,-3.4040000438690186z"
              ></path>
            </g>
            <g
              opacity="1"
              transform="matrix(1,0,0,1,453.7959899902344,612.5499877929688)"
            >
              <path
                fill="rgb(226,226,226)"
                fill-opacity="1"
                d=" M8.62131404876709,-3.431999921798706 C8.666569709777832,-15.309000015258789 5.163372039794922,-24.542404174804688 1.5625869035720825,-24.57340431213379 C-2.038198232650757,-24.60440444946289 -5.958654880523682,-15.42300033569336 -6.003909587860107,-3.5460000038146973 C-6.049164295196533,8.331000328063965 -2.348937749862671,17.564403533935547 1.251847267150879,17.59540367126465 C4.852632522583008,17.62640380859375 8.576059341430664,8.444999694824219 8.62131404876709,-3.431999921798706z"
              ></path>
              <path
                stroke-linecap="butt"
                stroke-linejoin="miter"
                fill-opacity="0"
                stroke-miterlimit="4"
                stroke="rgb(38,50,56)"
                stroke-opacity="1"
                stroke-width="2"
                d=" M8.62131404876709,-3.431999921798706 C8.666569709777832,-15.309000015258789 5.163372039794922,-24.542404174804688 1.5625869035720825,-24.57340431213379 C-2.038198232650757,-24.60440444946289 -5.958654880523682,-15.42300033569336 -6.003909587860107,-3.5460000038146973 C-6.049164295196533,8.331000328063965 -2.348937749862671,17.564403533935547 1.251847267150879,17.59540367126465 C4.852632522583008,17.62640380859375 8.576059341430664,8.444999694824219 8.62131404876709,-3.431999921798706z"
              ></path>
            </g>
          </g>
          <g
            transform="matrix(-0.5997844338417053,-0.800161600112915,0.800161600112915,-0.5997844338417053,451.845458984375,1535.3380126953125)"
            opacity="1"
            style="display: block;"
          >
            <g
              opacity="1"
              transform="matrix(1,0,0,1,537.2340087890625,661.7139892578125)"
            >
              <g opacity="1" transform="matrix(1,0,0,1,0,0)">
                <path
                  fill="rgb(155,155,155)"
                  fill-opacity="1"
                  d=" M146.183349609375,-96.06544494628906 C138.19505310058594,-96.09244537353516 131.73353576660156,-117.88300323486328 131.7433319091797,-144.72300720214844 C131.75,-164.68800354003906 135.33970642089844,-181.8260040283203 140.46588134765625,-189.28700256347656 C142.23121643066406,-191.8560028076172 144.17221069335938,-193.26644897460938 146.2181396484375,-193.2594451904297 C146.2181396484375,-193.2594451904297 160.0229949951172,-193.26100158691406 160.0229949951172,-193.26100158691406 C160.0229949951172,-193.26100158691406 159.9149932861328,-96.06700134277344 159.9149932861328,-96.06700134277344 C159.9149932861328,-96.06700134277344 146.183349609375,-96.06544494628906 146.183349609375,-96.06544494628906z"
                ></path>
                <path
                  stroke-linecap="butt"
                  stroke-linejoin="miter"
                  fill-opacity="0"
                  stroke-miterlimit="4"
                  stroke="rgb(38,42,51)"
                  stroke-opacity="1"
                  stroke-width="2"
                  d=" M146.183349609375,-96.06544494628906 C138.19505310058594,-96.09244537353516 131.73353576660156,-117.88300323486328 131.7433319091797,-144.72300720214844 C131.75,-164.68800354003906 135.33970642089844,-181.8260040283203 140.46588134765625,-189.28700256347656 C142.23121643066406,-191.8560028076172 144.17221069335938,-193.26644897460938 146.2181396484375,-193.2594451904297 C146.2181396484375,-193.2594451904297 160.0229949951172,-193.26100158691406 160.0229949951172,-193.26100158691406 C160.0229949951172,-193.26100158691406 159.9149932861328,-96.06700134277344 159.9149932861328,-96.06700134277344 C159.9149932861328,-96.06700134277344 146.183349609375,-96.06544494628906 146.183349609375,-96.06544494628906z"
                ></path>
              </g>
            </g>
            <g
              opacity="1"
              transform="matrix(1,0,0,1,552.0789794921875,657.197998046875)"
            >
              <g opacity="1" transform="matrix(1,0,0,1,0,0)">
                <path
                  fill="rgb(255,255,255)"
                  fill-opacity="1"
                  d=" M144.512451171875,-188.7429962158203 C136.7097930908203,-188.77000427246094 130.3771209716797,-167.03500366210938 130.36734008789062,-140.1959991455078 C130.3575439453125,-113.35700225830078 136.67587280273438,-91.5770034790039 144.47854614257812,-91.55000305175781 C152.28121948242188,-91.52300262451172 158.6138916015625,-113.25800323486328 158.62367248535156,-140.0970001220703 C158.63345336914062,-166.93600463867188 152.31512451171875,-188.71600341796875 144.512451171875,-188.7429962158203z"
                ></path>
                <path
                  stroke-linecap="butt"
                  stroke-linejoin="miter"
                  fill-opacity="0"
                  stroke-miterlimit="4"
                  stroke="rgb(38,42,51)"
                  stroke-opacity="1"
                  stroke-width="2"
                  d=" M144.512451171875,-188.7429962158203 C136.7097930908203,-188.77000427246094 130.3771209716797,-167.03500366210938 130.36734008789062,-140.1959991455078 C130.3575439453125,-113.35700225830078 136.67587280273438,-91.5770034790039 144.47854614257812,-91.55000305175781 C152.28121948242188,-91.52300262451172 158.6138916015625,-113.25800323486328 158.62367248535156,-140.0970001220703 C158.63345336914062,-166.93600463867188 152.31512451171875,-188.71600341796875 144.512451171875,-188.7429962158203z"
                ></path>
              </g>
            </g>
            <g
              opacity="1"
              transform="matrix(1,0,0,1,551.7960205078125,657.3510131835938)"
            >
              <g opacity="1" transform="matrix(1,0,0,1,0,0)">
                <path
                  fill="rgb(155,155,155)"
                  fill-opacity="1"
                  d=" M144.69139099121094,-180.76800537109375 C138.17274475097656,-180.79100036621094 132.88128662109375,-162.69200134277344 132.8736114501953,-140.3419952392578 C132.86595153808594,-117.99199676513672 138.144287109375,-99.85600280761719 144.66293334960938,-99.83300018310547 C151.1815948486328,-99.80999755859375 156.47216796875,-117.90899658203125 156.47982788085938,-140.25900268554688 C156.4875030517578,-162.60899353027344 151.21005249023438,-180.7449951171875 144.69139099121094,-180.76800537109375z"
                ></path>
              </g>
            </g>
            <g opacity="1" transform="matrix(1,0,0,1,0,0)">
              <g
                opacity="1"
                transform="matrix(1,0,0,1,551.8109741210938,653.8880004882812)"
              >
                <path
                  stroke-linecap="round"
                  stroke-linejoin="round"
                  fill-opacity="0"
                  stroke="rgb(38,42,51)"
                  stroke-opacity="1"
                  stroke-width="2"
                  d=" M148.33265686035156,-138.50999450683594 C147.06065368652344,-137.58099365234375 144.02627563476562,-136.84500122070312 142.0657958984375,-141.33399963378906"
                ></path>
              </g>
              <g
                opacity="1"
                transform="matrix(1,0,0,1,570.3599853515625,645.083984375)"
              >
                <path
                  stroke-linecap="round"
                  stroke-linejoin="round"
                  fill-opacity="0"
                  stroke="rgb(38,42,51)"
                  stroke-opacity="1"
                  stroke-width="2"
                  d=" M134.89346313476562,-129.9010009765625 C134.39419555664062,-129.11300659179688 132.9844512939453,-128.00999450683594 131.35015869140625,-129.91299438476562"
                ></path>
              </g>
              <g
                opacity="1"
                transform="matrix(1,0,0,1,553.0750122070312,662.802978515625)"
              >
                <path
                  fill="rgb(226,226,226)"
                  fill-opacity="1"
                  d=" M147.6236114501953,-176.7270050048828 C145.8798065185547,-177.76800537109375 144.57945251464844,-175.4459991455078 144.1481170654297,-174.1540069580078 C143.58103942871094,-175.80799865722656 142.62342834472656,-178.8179931640625 140.87950134277344,-178.47999572753906 C138.6990203857422,-178.05799865722656 134.99229431152344,-167.84500122070312 131.71278381347656,-141.12899780273438 C134.13084411621094,-98.67900085449219 145.43423461914062,-105.25299835205078 146.33627319335938,-106.427001953125 C150.13482666015625,-111.37200164794922 151.8850860595703,-122.88400268554688 152.37644958496094,-129.2989959716797 C153.1942138671875,-130.80999755859375 153.4001007080078,-133.8260040283203 152.85504150390625,-135.5469970703125 C153.94639587402344,-138.56500244140625 153.60699462890625,-142.4459991455078 152.38201904296875,-145.89300537109375 C152.859375,-147.39999389648438 153.62344360351562,-152.531005859375 152.8627166748047,-158.39599609375 C152.21914672851562,-163.35499572753906 150.89012145996094,-166.80799865722656 150.14138793945312,-168.31399536132812 C150.02865600585938,-170.68600463867188 149.367431640625,-175.68600463867188 147.6236114501953,-176.7270050048828z"
                ></path>
                <path
                  stroke-linecap="round"
                  stroke-linejoin="round"
                  fill-opacity="0"
                  stroke="rgb(38,42,51)"
                  stroke-opacity="1"
                  stroke-width="2"
                  d=" M147.6236114501953,-176.7270050048828 C145.8798065185547,-177.76800537109375 144.57945251464844,-175.4459991455078 144.1481170654297,-174.1540069580078 C143.58103942871094,-175.80799865722656 142.62342834472656,-178.8179931640625 140.87950134277344,-178.47999572753906 C138.6990203857422,-178.05799865722656 134.99229431152344,-167.84500122070312 131.71278381347656,-141.12899780273438 C134.13084411621094,-98.67900085449219 145.43423461914062,-105.25299835205078 146.33627319335938,-106.427001953125 C150.13482666015625,-111.37200164794922 151.8850860595703,-122.88400268554688 152.37644958496094,-129.2989959716797 C153.1942138671875,-130.80999755859375 153.4001007080078,-133.8260040283203 152.85504150390625,-135.5469970703125 C153.94639587402344,-138.56500244140625 153.60699462890625,-142.4459991455078 152.38201904296875,-145.89300537109375 C152.859375,-147.39999389648438 153.62344360351562,-152.531005859375 152.8627166748047,-158.39599609375 C152.21914672851562,-163.35499572753906 150.89012145996094,-166.80799865722656 150.14138793945312,-168.31399536132812 C150.02865600585938,-170.68600463867188 149.367431640625,-175.68600463867188 147.6236114501953,-176.7270050048828z"
                ></path>
              </g>
              <g
                opacity="1"
                transform="matrix(1,0,0,1,562.864013671875,659.3380126953125)"
              >
                <path
                  fill="rgb(255,255,255)"
                  fill-opacity="1"
                  d=" M140.3403778076172,-131.87899780273438 C142.41802978515625,-131.8719940185547 143.24880981445312,-136.53799438476562 143.40866088867188,-139.19500732421875 C144.02154541015625,-137.03799438476562 143.60899353027344,-133.24099731445312 143.13174438476562,-132.09300231933594 C143.40333557128906,-130.8260040283203 143.51695251464844,-128.23199462890625 143.03968811035156,-126.94000244140625 C142.6730499267578,-125.9489974975586 141.9734649658203,-123.68299865722656 138.90728759765625,-123.69400024414062 C131.34442138671875,-123.72100067138672 127.66959381103516,-133.86199951171875 128.55628967285156,-137.0919952392578 C129.44297790527344,-140.32200622558594 133.7320098876953,-131.90199279785156 140.3403778076172,-131.87899780273438z"
                ></path>
                <path
                  stroke-linecap="round"
                  stroke-linejoin="round"
                  fill-opacity="0"
                  stroke="rgb(38,42,51)"
                  stroke-opacity="1"
                  stroke-width="2"
                  d=" M140.3403778076172,-131.87899780273438 C142.41802978515625,-131.8719940185547 143.24880981445312,-136.53799438476562 143.40866088867188,-139.19500732421875 C144.02154541015625,-137.03799438476562 143.60899353027344,-133.24099731445312 143.13174438476562,-132.09300231933594 C143.40333557128906,-130.8260040283203 143.51695251464844,-128.23199462890625 143.03968811035156,-126.94000244140625 C142.6730499267578,-125.9489974975586 141.9734649658203,-123.68299865722656 138.90728759765625,-123.69400024414062 C131.34442138671875,-123.72100067138672 127.66959381103516,-133.86199951171875 128.55628967285156,-137.0919952392578 C129.44297790527344,-140.32200622558594 133.7320098876953,-131.90199279785156 140.3403778076172,-131.87899780273438z"
                ></path>
              </g>
              <g
                opacity="1"
                transform="matrix(1,0,0,1,546.364990234375,647.5640258789062)"
              >
                <path
                  stroke-linecap="round"
                  stroke-linejoin="round"
                  fill-opacity="0"
                  stroke="rgb(38,42,51)"
                  stroke-opacity="1"
                  stroke-width="2"
                  d=" M154.16497802734375,-140.1820068359375 C153.3484344482422,-143.41700744628906 152.0546417236328,-145.8990020751953 150.30760192871094,-146.63299560546875 C148.23651123046875,-147.5030059814453 146.44668579101562,-143.98800659179688 145.80967712402344,-142.1230010986328"
                ></path>
              </g>
              <g
                opacity="1"
                transform="matrix(1,0,0,1,566.0239868164062,636.7570190429688)"
              >
                <path
                  stroke-linecap="round"
                  stroke-linejoin="round"
                  fill-opacity="0"
                  stroke="rgb(38,42,51)"
                  stroke-opacity="1"
                  stroke-width="2"
                  d=" M139.77786254882812,-133.4219970703125 C138.71063232421875,-134.21600341796875 136.40208435058594,-135.57400512695312 135.2548065185547,-128.50900268554688"
                ></path>
              </g>
              <g
                opacity="1"
                transform="matrix(1,0,0,1,563.8679809570312,660.7420043945312)"
              >
                <path
                  stroke-linecap="round"
                  stroke-linejoin="round"
                  fill-opacity="0"
                  stroke="rgb(38,42,51)"
                  stroke-opacity="1"
                  stroke-width="2"
                  d=" M142.23924255371094,-133.73899841308594 C141.8812713623047,-132.85000610351562 140.71665954589844,-130.0469970703125 138.31495666503906,-130.05599975585938 C135.3168182373047,-130.06700134277344 131.02578735351562,-132.88400268554688 128.64263916015625,-136.12399291992188"
                ></path>
              </g>
              <g
                opacity="1"
                transform="matrix(1,0,0,1,547.531982421875,634.9349975585938)"
              >
                <path
                  stroke-linecap="round"
                  stroke-linejoin="round"
                  fill-opacity="0"
                  stroke="rgb(38,42,51)"
                  stroke-opacity="1"
                  stroke-width="2"
                  d=" M149.69000244140625,-146.5050048828125 C150.03041076660156,-145.4250030517578 150.16525268554688,-142.62399291992188 150.16525268554688,-142.62399291992188 C150.84617614746094,-142.1909942626953 152.2908172607422,-139.5989990234375 152.61488342285156,-132.7010040283203"
                ></path>
              </g>
              <g
                opacity="1"
                transform="matrix(1,0,0,1,552.3800048828125,631.0709838867188)"
              >
                <path
                  stroke-linecap="round"
                  stroke-linejoin="round"
                  fill-opacity="0"
                  stroke="rgb(38,42,51)"
                  stroke-opacity="1"
                  stroke-width="2"
                  d=" M149.85775756835938,-136.80299377441406 C149.17684936523438,-137.5240020751953 147.9211883544922,-138.53399658203125 146.61204528808594,-136.81399536132812"
                ></path>
              </g>
              <g
                opacity="1"
                transform="matrix(1,0,0,1,536.9190063476562,638.875)"
              >
                <path
                  stroke-linecap="round"
                  stroke-linejoin="round"
                  fill-opacity="0"
                  stroke="rgb(38,42,51)"
                  stroke-opacity="1"
                  stroke-width="2"
                  d=" M160.77914428710938,-146.56199645996094 C159.48524475097656,-147.42799377441406 157.07608032226562,-148.10899353027344 155.66835021972656,-143.77699279785156"
                ></path>
              </g>
              <g
                opacity="1"
                transform="matrix(1,0,0,1,548.81201171875,649.3289794921875)"
              >
                <path
                  fill="rgb(255,255,255)"
                  fill-opacity="1"
                  d=" M149.9720458984375,-143.00399780273438 C151.00759887695312,-142.8280029296875 151.49241638183594,-138.9040069580078 151.60523986816406,-136.96499633789062 C151.37757873535156,-136.53399658203125 150.48666381835938,-135.71800231933594 148.7428436279297,-135.89700317382812 C146.99903869628906,-136.0760040283203 144.8841552734375,-140.00599670410156 144.0444793701172,-141.947998046875 C145.58908081054688,-142.37399291992188 148.93650817871094,-143.17999267578125 149.9720458984375,-143.00399780273438z"
                ></path>
                <path
                  stroke-linecap="round"
                  stroke-linejoin="round"
                  fill-opacity="0"
                  stroke="rgb(38,42,51)"
                  stroke-opacity="1"
                  stroke-width="2"
                  d=" M149.9720458984375,-143.00399780273438 C151.00759887695312,-142.8280029296875 151.49241638183594,-138.9040069580078 151.60523986816406,-136.96499633789062 C151.37757873535156,-136.53399658203125 150.48666381835938,-135.71800231933594 148.7428436279297,-135.89700317382812 C146.99903869628906,-136.0760040283203 144.8841552734375,-140.00599670410156 144.0444793701172,-141.947998046875 C145.58908081054688,-142.37399291992188 148.93650817871094,-143.17999267578125 149.9720458984375,-143.00399780273438z"
                ></path>
              </g>
              <g
                opacity="1"
                transform="matrix(1,0,0,1,568.864013671875,640.958984375)"
              >
                <path
                  fill="rgb(255,255,255)"
                  fill-opacity="1"
                  d=" M134.6874542236328,-134.18800354003906 C135.77769470214844,-134.1840057373047 136.91273498535156,-132.31199645996094 137.34396362304688,-131.3769989013672 C137.07138061523438,-130.22799682617188 136.2261505126953,-127.84500122070312 135.02651977539062,-127.50499725341797 C133.82688903808594,-127.16500091552734 132.7095184326172,-128.23199462890625 132.30108642578125,-128.80799865722656 C132.64259338378906,-130.60299682617188 133.5972137451172,-134.19200134277344 134.6874542236328,-134.18800354003906z"
                ></path>
                <path
                  stroke-linecap="round"
                  stroke-linejoin="round"
                  fill-opacity="0"
                  stroke="rgb(38,42,51)"
                  stroke-opacity="1"
                  stroke-width="2"
                  d=" M134.6874542236328,-134.18800354003906 C135.77769470214844,-134.1840057373047 136.91273498535156,-132.31199645996094 137.34396362304688,-131.3769989013672 C137.07138061523438,-130.22799682617188 136.2261505126953,-127.84500122070312 135.02651977539062,-127.50499725341797 C133.82688903808594,-127.16500091552734 132.7095184326172,-128.23199462890625 132.30108642578125,-128.80799865722656 C132.64259338378906,-130.60299682617188 133.5972137451172,-134.19200134277344 134.6874542236328,-134.18800354003906z"
                ></path>
              </g>
              <g
                opacity="1"
                transform="matrix(1,0,0,1,547.8679809570312,650.3809814453125)"
              >
                <path
                  fill="rgb(38,42,51)"
                  fill-opacity="1"
                  d=" M150.1641082763672,-140.82699584960938 C150.16421508789062,-142.37899780273438 149.89273071289062,-143.48599243164062 149.7568817138672,-143.84500122070312 C149.7568817138672,-143.84500122070312 147.03123474121094,-143.4239959716797 147.03123474121094,-143.4239959716797 C147.03123474121094,-143.4239959716797 146.62179565429688,-140.1929931640625 146.62179565429688,-140.1929931640625 C147.83676147460938,-137.8159942626953 148.52313232421875,-137.2519989013672 149.75466918945312,-137.3800048828125 C149.8914031982422,-137.88299560546875 150.1639862060547,-139.27499389648438 150.1641082763672,-140.82699584960938z"
                ></path>
              </g>
              <g
                opacity="1"
                transform="matrix(1,0,0,1,567.698974609375,640.801025390625)"
              >
                <path
                  fill="rgb(38,42,51)"
                  fill-opacity="1"
                  d=" M136.94358825683594,-131.01100158691406 C136.94369506835938,-132.21800231933594 136.6712188720703,-133.3820037841797 136.53536987304688,-133.81399536132812 C135.8271026611328,-135.3679962158203 134.92173767089844,-133.2010040283203 134.39857482910156,-131.69400024414062 C134.23660278320312,-130.23500061035156 134.24661254882812,-129.46099853515625 134.53330993652344,-128.0290069580078 C135.7943115234375,-127.19999694824219 135.94528198242188,-127.18599700927734 136.6699981689453,-127.77899932861328 C136.7608184814453,-128.35299682617188 136.94346618652344,-129.8040008544922 136.94358825683594,-131.01100158691406z"
                ></path>
                <path
                  stroke-linecap="butt"
                  stroke-linejoin="miter"
                  fill-opacity="0"
                  stroke-miterlimit="4"
                  stroke="rgb(38,42,51)"
                  stroke-opacity="1"
                  stroke-width="2"
                  d=" M136.94358825683594,-131.01100158691406 C136.94369506835938,-132.21800231933594 136.6712188720703,-133.3820037841797 136.53536987304688,-133.81399536132812 C135.8271026611328,-135.3679962158203 134.92173767089844,-133.2010040283203 134.39857482910156,-131.69400024414062 C134.23660278320312,-130.23500061035156 134.24661254882812,-129.46099853515625 134.53330993652344,-128.0290069580078 C135.7943115234375,-127.19999694824219 135.94528198242188,-127.18599700927734 136.6699981689453,-127.77899932861328 C136.7608184814453,-128.35299682617188 136.94346618652344,-129.8040008544922 136.94358825683594,-131.01100158691406z"
                ></path>
              </g>
            </g>
            <g
              opacity="1"
              transform="matrix(1,0,0,1,552.0809936523438,657.2000122070312)"
            >
              <g opacity="1" transform="matrix(1,0,0,1,0,0)">
                <path
                  stroke-linecap="butt"
                  stroke-linejoin="miter"
                  fill-opacity="0"
                  stroke-miterlimit="4"
                  stroke="rgb(38,42,51)"
                  stroke-opacity="1"
                  stroke-width="2"
                  d=" M144.5082244873047,-180.49899291992188 C137.99290466308594,-180.52200317382812 132.70567321777344,-162.47300720214844 132.69801330566406,-140.18699645996094 C132.69700622558594,-138.1540069580078 132.7397003173828,-136.15699768066406 132.82395935058594,-134.2050018310547 C133.6623992919922,-114.75299835205078 138.55886840820312,-99.81400299072266 144.47976684570312,-99.79299926757812 C150.99508666992188,-99.7699966430664 156.28231811523438,-117.81800079345703 156.2899932861328,-140.10400390625 C156.29766845703125,-162.38999938964844 151.02354431152344,-180.4759979248047 144.5082244873047,-180.49899291992188z"
                ></path>
              </g>
            </g>
          </g>
          <g
            transform="matrix(-0.9983169436454773,-0.05799423158168793,0.05799423158168793,-0.9983169436454773,883.4925537109375,1075.8572998046875)"
            opacity="1"
            style="display: block;"
          >
            <g
              opacity="1"
              transform="matrix(1,0,0,1,417.45599365234375,670.6890258789062)"
            >
              <path
                fill="rgb(255,255,255)"
                fill-opacity="1"
                d=" M5.284041881561279,26.601810455322266 C3.729041814804077,26.59181022644043 -0.253741055727005,26.552398681640625 -1.9357317686080933,26.33247184753418 C-9.830509185791016,21.891075134277344 -15.713038444519043,12.436813354492188 -15.624037742614746,-1.357186198234558 C-15.535037994384766,-15.29318618774414 -9.514691352844238,-25.67626953125 -1.5070074796676636,-28.845914840698242 C-0.05516977608203888,-28.96014404296875 4.226729393005371,-28.99187660217285 5.6407294273376465,-28.982877731323242 C14.948862075805664,-28.908945083618164 22.168046951293945,-16.36875343322754 22.07004737854004,-1.0197536945343018 C21.972047805786133,14.329246520996094 14.660568237304688,26.691558837890625 5.284041881561279,26.601810455322266z"
              ></path>
              <path
                stroke-linecap="butt"
                stroke-linejoin="miter"
                fill-opacity="0"
                stroke-miterlimit="4"
                stroke="rgb(38,50,56)"
                stroke-opacity="1"
                stroke-width="2"
                d=" M5.284041881561279,26.601810455322266 C3.729041814804077,26.59181022644043 -0.253741055727005,26.552398681640625 -1.9357317686080933,26.33247184753418 C-9.830509185791016,21.891075134277344 -15.713038444519043,12.436813354492188 -15.624037742614746,-1.357186198234558 C-15.535037994384766,-15.29318618774414 -9.514691352844238,-25.67626953125 -1.5070074796676636,-28.845914840698242 C-0.05516977608203888,-28.96014404296875 4.226729393005371,-28.99187660217285 5.6407294273376465,-28.982877731323242 C14.948862075805664,-28.908945083618164 22.168046951293945,-16.36875343322754 22.07004737854004,-1.0197536945343018 C21.972047805786133,14.329246520996094 14.660568237304688,26.691558837890625 5.284041881561279,26.601810455322266z"
              ></path>
            </g>
            <g
              opacity="1"
              transform="matrix(1,0,0,1,411.4209899902344,668.5250244140625)"
            >
              <path
                fill="rgb(255,255,255)"
                fill-opacity="1"
                d=" M2.95583176612854,28.72599983215332 C-6.1687517166137695,28.628000259399414 -13.518534660339355,16.104999542236328 -13.459733009338379,0.7559999823570251 C-13.400931358337402,-14.593000411987305 -5.956415176391602,-26.95599937438965 3.168168306350708,-26.857999801635742 C12.292752265930176,-26.760000228881836 19.642534255981445,-14.237000465393066 19.58373260498047,1.1119999885559082 C19.524930953979492,16.461000442504883 12.080415725708008,28.823999404907227 2.95583176612854,28.72599983215332z"
              ></path>
              <path
                stroke-linecap="butt"
                stroke-linejoin="miter"
                fill-opacity="0"
                stroke-miterlimit="4"
                stroke="rgb(38,50,56)"
                stroke-opacity="1"
                stroke-width="2"
                d=" M2.95583176612854,28.72599983215332 C-6.1687517166137695,28.628000259399414 -13.518534660339355,16.104999542236328 -13.459733009338379,0.7559999823570251 C-13.400931358337402,-14.593000411987305 -5.956415176391602,-26.95599937438965 3.168168306350708,-26.857999801635742 C12.292752265930176,-26.760000228881836 19.642534255981445,-14.237000465393066 19.58373260498047,1.1119999885559082 C19.524930953979492,16.461000442504883 12.080415725708008,28.823999404907227 2.95583176612854,28.72599983215332z"
              ></path>
            </g>
            <g
              opacity="1"
              transform="matrix(1,0,0,1,411.1990051269531,668.2659912109375)"
            >
              <path
                stroke-linecap="butt"
                stroke-linejoin="miter"
                fill-opacity="0"
                stroke-miterlimit="4"
                stroke="rgb(38,50,56)"
                stroke-opacity="1"
                stroke-width="2.5"
                d=" M12.950109481811523,-7.60699987411499 C12.958608627319336,-9.75 11.931421279907227,-11.50100040435791 10.656966209411621,-11.515000343322754 C10.656966209411621,-11.515000343322754 -4.344044208526611,-11.675999641418457 -4.344044208526611,-11.675999641418457 C-5.618499279022217,-11.6899995803833 -6.6584343910217285,-9.961999893188477 -6.666933059692383,-7.818999767303467 C-6.666933059692383,-7.818999767303467 -6.7332329750061035,9.651000022888184 -6.7332329750061035,9.651000022888184 C-6.741731643676758,11.793000221252441 -5.7148566246032715,13.543999671936035 -4.440402030944824,13.557999610900879 C-4.440402030944824,13.557999610900879 10.56160831451416,13.720000267028809 10.56160831451416,13.720000267028809 C11.835062980651855,13.734000205993652 12.875310897827148,12.005999565124512 12.883809089660645,9.86299991607666 C12.883809089660645,9.86299991607666 12.950109481811523,-7.60699987411499 12.950109481811523,-7.60699987411499z"
              ></path>
            </g>
            <g
              opacity="1"
              transform="matrix(1,0,0,1,411.1990051269531,668.2680053710938)"
            >
              <path
                stroke-linecap="butt"
                stroke-linejoin="miter"
                fill-opacity="0"
                stroke-miterlimit="4"
                stroke="rgb(38,50,56)"
                stroke-opacity="1"
                stroke-width="2.5"
                d=" M3.0827865600585938,7.815999984741211 C5.3135666847229,7.839000225067139 7.1327972412109375,4.817999839782715 7.147169589996338,1.065999984741211 C7.161541938781738,-2.686000108718872 5.365182399749756,-5.749000072479248 3.134402275085449,-5.771999835968018 C0.903622031211853,-5.795000076293945 -0.9159204959869385,-2.7739999294281006 -0.9302929043769836,0.9779999852180481 C-0.9446653127670288,4.730000019073486 0.8520063161849976,7.793000221252441 3.0827865600585938,7.815999984741211z"
              ></path>
            </g>
            <g
              opacity="1"
              transform="matrix(1,0,0,1,411.3299865722656,667.969970703125)"
            >
              <path
                stroke-linecap="round"
                stroke-linejoin="miter"
                fill-opacity="0"
                stroke-miterlimit="4"
                stroke="rgb(38,50,56)"
                stroke-opacity="1"
                stroke-width="2.5"
                d=" M4.199141025543213,2.2980000972747803 C4.199141025543213,2.2980000972747803 2.3416640758514404,2.2799999713897705 2.3416640758514404,2.2799999713897705 C2.3416640758514404,2.2799999713897705 2.3539204597473145,-0.6320000290870667 2.3539204597473145,-0.6320000290870667"
              ></path>
            </g>
          </g>
          <g
            transform="matrix(-0.5071650743484497,-0.8618489503860474,0.8618489503860474,-0.5071650743484497,131.9959259033203,1421.659912109375)"
            opacity="1"
            style="display: block;"
          >
            <g
              opacity="1"
              transform="matrix(1,0,0,1,502.0790100097656,565.9099731445312)"
            >
              <path
                fill="rgb(255,255,255)"
                fill-opacity="1"
                d=" M-3.826805591583252,17.423999786376953 C-2.9048781394958496,17.426000595092773 0.48567479848861694,17.253633499145508 1.8885060548782349,17.0229549407959 C6.136373519897461,14.656838417053223 9.532026290893555,8.400508880615234 9.5430269241333,0.6625093221664429 C9.55402660369873,-7.198490619659424 6.325290203094482,-13.625831604003906 2.061424970626831,-15.934220314025879 C0.5171133875846863,-16.107580184936523 -3.022362470626831,-16.21931266784668 -3.870964765548706,-16.221311569213867 C-9.434404373168945,-16.234312057495117 -13.87863826751709,-8.670000076293945 -13.8866605758667,0.6060000061988831 C-13.894681930541992,9.881999969482422 -9.39024543762207,17.410999298095703 -3.826805591583252,17.423999786376953z"
              ></path>
              <path
                stroke-linecap="butt"
                stroke-linejoin="miter"
                fill-opacity="0"
                stroke-miterlimit="4"
                stroke="rgb(38,50,56)"
                stroke-opacity="1"
                stroke-width="2"
                d=" M-3.826805591583252,17.423999786376953 C-2.9048781394958496,17.426000595092773 0.48567479848861694,17.253633499145508 1.8885060548782349,17.0229549407959 C6.136373519897461,14.656838417053223 9.532026290893555,8.400508880615234 9.5430269241333,0.6625093221664429 C9.55402660369873,-7.198490619659424 6.325290203094482,-13.625831604003906 2.061424970626831,-15.934220314025879 C0.5171133875846863,-16.107580184936523 -3.022362470626831,-16.21931266784668 -3.870964765548706,-16.221311569213867 C-9.434404373168945,-16.234312057495117 -13.87863826751709,-8.670000076293945 -13.8866605758667,0.6060000061988831 C-13.894681930541992,9.881999969482422 -9.39024543762207,17.410999298095703 -3.826805591583252,17.423999786376953z"
              ></path>
            </g>
            <g
              opacity="1"
              transform="matrix(1,0,0,1,505.8190002441406,566.9219970703125)"
            >
              <path
                fill="rgb(255,255,255)"
                fill-opacity="1"
                d=" M-1.9465968608856201,16.416000366210938 C3.561530351638794,16.429000854492188 8.03231430053711,8.920000076293945 8.039783477783203,-0.35600000619888306 C8.04725170135498,-9.631999969482422 3.588724374771118,-17.160999298095703 -1.919403076171875,-17.173999786376953 C-7.427530288696289,-17.187000274658203 -11.898314476013184,-9.678000450134277 -11.905782699584961,-0.4020000100135803 C-11.913251876831055,8.87399959564209 -7.454724311828613,16.402999877929688 -1.9465968608856201,16.416000366210938z"
              ></path>
              <path
                stroke-linecap="butt"
                stroke-linejoin="miter"
                fill-opacity="0"
                stroke-miterlimit="4"
                stroke="rgb(38,50,56)"
                stroke-opacity="1"
                stroke-width="2"
                d=" M-1.9465968608856201,16.416000366210938 C3.561530351638794,16.429000854492188 8.03231430053711,8.920000076293945 8.039783477783203,-0.35600000619888306 C8.04725170135498,-9.631999969482422 3.588724374771118,-17.160999298095703 -1.919403076171875,-17.173999786376953 C-7.427530288696289,-17.187000274658203 -11.898314476013184,-9.678000450134277 -11.905782699584961,-0.4020000100135803 C-11.913251876831055,8.87399959564209 -7.454724311828613,16.402999877929688 -1.9465968608856201,16.416000366210938z"
              ></path>
            </g>
            <g
              opacity="1"
              transform="matrix(1,0,0,1,507.12701416015625,566.5689697265625)"
            >
              <path
                fill="rgb(38,50,56)"
                fill-opacity="1"
                d=" M-6.523321151733398,-13.02299976348877 C-6.523321151733398,-13.02299976348877 -6.680015563964844,12.70300006866455 -6.680015563964844,12.70300006866455 C-6.680015563964844,12.70300006866455 -4.637203693389893,12.638999938964844 -4.637203693389893,12.638999938964844 C-4.637203693389893,12.638999938964844 -4.503022193908691,8.159000396728516 -4.503022193908691,8.159000396728516 C-4.503022193908691,8.159000396728516 -3.430016040802002,8.220999717712402 -3.430016040802002,8.220999717712402 C-3.430016040802002,8.220999717712402 -3.6936981678009033,12.765999794006348 -3.6936981678009033,12.765999794006348 C-3.6936981678009033,12.765999794006348 -1.3520948886871338,12.791999816894531 -1.3520948886871338,12.791999816894531 C-1.3520948886871338,12.791999816894531 -1.4862765073776245,8.803999900817871 -1.4862765073776245,8.803999900817871 C0.03195882588624954,8.843000411987305 3.052598237991333,8.022000312805176 2.9878480434417725,4.427999973297119 C2.923097848892212,0.8339999914169312 0.5781540274620056,-0.41600000858306885 -0.585902214050293,-0.5920000076293945 C0.4017348289489746,-0.8859999775886536 2.18365216255188,-2.0829999446868896 2.181758403778076,-4.59499979019165 C2.1785240173339844,-8.633999824523926 -0.22314812242984772,-9.111000061035156 -1.764896035194397,-9.416999816894531 C-1.764896035194397,-9.416999816894531 -1.782280445098877,-9.420000076293945 -1.782280445098877,-9.420000076293945 C-1.782280445098877,-9.420000076293945 -1.720870852470398,-13.506999969482422 -1.720870852470398,-13.506999969482422 C-1.720870852470398,-13.506999969482422 -3.5497071743011475,-13.430999755859375 -3.5497071743011475,-13.430999755859375 C-3.5497071743011475,-13.430999755859375 -3.6374166011810303,-9.092000007629395 -3.6374166011810303,-9.092000007629395 C-3.6374166011810303,-9.092000007629395 -4.860095024108887,-9.199999809265137 -4.860095024108887,-9.199999809265137 C-4.860095024108887,-9.199999809265137 -4.9093546867370605,-13.111000061035156 -4.9093546867370605,-13.111000061035156 C-4.9093546867370605,-13.111000061035156 -6.523321151733398,-13.02299976348877 -6.523321151733398,-13.02299976348877z M-4.5964131355285645,-2.0510001182556152 C-4.5964131355285645,-2.0510001182556152 -4.650353908538818,-6.796000003814697 -4.650353908538818,-6.796000003814697 C-3.1593122482299805,-7.181000232696533 -0.11860720813274384,-7.289000034332275 0.1202215626835823,-4.639999866485596 C0.35905033349990845,-1.9910000562667847 -2.924717903137207,-1.8109999895095825 -4.5964131355285645,-2.0510001182556152z M-4.463678359985352,5.1579999923706055 C-4.463678359985352,5.1579999923706055 -4.370734214782715,1.652999997138977 -4.370734214782715,1.652999997138977 C-2.789642572402954,1.7799999713897705 0.3764347434043884,2.4609999656677246 0.3928191661834717,4.171000003814697 C0.40920358896255493,5.880000114440918 -2.838008403778076,5.540999889373779 -4.463678359985352,5.1579999923706055z"
              ></path>
            </g>
          </g>
        </g>
      </g>
    </svg>