<?xml version="1.0" encoding="UTF-8"?>
<!DOCTYPE svg PUBLIC "-//W3C//DTD SVG 1.1//EN" "http://www.w3.org/Graphics/SVG/1.1/DTD/svg11.dtd">
<!-- Creator: CorelDRAW -->
<svg xmlns="http://www.w3.org/2000/svg" xml:space="preserve" width="42.4185mm" height="39.7465mm" version="1.1" style="shape-rendering:geometricPrecision; text-rendering:geometricPrecision; image-rendering:optimizeQuality; fill-rule:evenodd; clip-rule:evenodd"
viewBox="0 0 111.97 104.92"
 xmlns:xlink="http://www.w3.org/1999/xlink"
 xmlns:xodm="http://www.corel.com/coreldraw/odm/2003">
 <defs>
  <style type="text/css">
   <![CDATA[
    .fil3 {fill:#629346;fill-rule:nonzero}
    .fil2 {fill:#70A84F;fill-rule:nonzero}
    .fil1 {fill:#70A84F;fill-rule:nonzero;fill-opacity:0.270588}
    .fil0 {fill:#70A84F;fill-rule:nonzero;fill-opacity:0.631373}
   ]]>
  </style>
 </defs>
 <g id="Layer_x0020_1">
  <metadata id="CorelCorpID_0Corel-Layer"/>
  <g id="_105553159349152">
   <path class="fil0" d="M7.05 52.46c0,25.08 21.91,45.41 48.93,45.41 27.03,0 48.93,-20.33 48.93,-45.41 0,-25.08 -21.91,-45.41 -48.93,-45.41 -27.03,0 -48.93,20.33 -48.93,45.41z"/>
   <path class="fil1" d="M-0 52.46c0,28.97 25.07,52.46 55.99,52.46 30.92,0 55.99,-23.49 55.99,-52.46 0,-28.97 -25.07,-52.46 -55.99,-52.46 -30.92,0 -55.99,23.49 -55.99,52.46z"/>
   <path class="fil2" d="M13.58 52.09c0,21.75 18.86,39.37 42.12,39.37 23.26,0 42.12,-17.63 42.12,-39.37 0,-21.75 -18.86,-39.37 -42.12,-39.37 -23.26,0 -42.12,17.63 -42.12,39.37z"/>
   <path class="fil3" d="M83.47 49.04c-0.39,0.86 -1.05,1.57 -1.51,2.4 -1.64,2.97 -0.37,6.63 -0.49,10.02 -0.13,3.66 -2.11,7.26 -5.24,9.15 -3.13,1.9 -7.35,1.95 -10.43,-0.05 -1.55,-1.01 -2.77,-2.46 -3.73,-4.05 -4.4,-7.28 -2.94,-17.41 2.91,-23.58 2.33,-2.46 5.41,-4.39 8.79,-4.63 4.64,-0.34 12.14,5.39 9.69,10.73z"/>
   <path class="fil3" d="M54.62 21.82c0.76,0.53 1.84,0.16 2.55,-0.43 0.71,-0.59 1.27,-1.39 2.07,-1.85 1.94,-1.1 4.61,0.45 5.17,2.61 0.55,2.16 -0.57,4.47 -2.23,5.95 -1.68,1.49 -4.11,2.34 -6.22,1.59 -2.07,-0.73 -3.41,-2.85 -3.74,-5.02 -0.14,-0.92 -0.1,-1.93 0.48,-2.66 0.58,-0.72 1.83,-0.93 2.41,-0.2l-0.48 0.01z"/>
   <path class="fil3" d="M33.6 31.63c1.89,0.87 2.66,3.28 2.28,5.33 -0.38,2.05 -1.62,3.81 -2.84,5.5 -0.4,0.56 -0.82,1.14 -1.43,1.47 -1.03,0.56 -2.33,0.27 -3.34,-0.33 -2.45,-1.46 -3.63,-4.52 -3.47,-7.37 0.06,-1.01 0.28,-2.05 0.9,-2.85 0.8,-1.03 2.11,-1.48 3.35,-1.88 1.04,-0.34 2.12,-0.68 3.21,-0.61 1.09,0.07 2.23,0.65 2.62,1.68l-1.29 -0.93z"/>
   <path class="fil3" d="M39.95 60.68c0.41,1.94 0.77,4.12 -0.34,5.76 -0.62,0.92 -1.62,1.51 -2.6,2.02 -1.66,0.86 -3.56,1.59 -5.36,1.1 -0.91,-0.25 -1.72,-0.79 -2.41,-1.43 -2.63,-2.41 -3.78,-6.5 -2.3,-9.75 3.24,-7.1 11.68,-4.09 13.02,2.3z"/>
  </g>
 </g>
</svg>
