     <svg
          xmlns="http://www.w3.org/2000/svg"
          xmlns:xlink="http://www.w3.org/1999/xlink"
          viewBox="0 0 334 334"
          width="334"
          height="334"
          preserveAspectRatio="xMidYMid meet"
          style="width: 100%; height: 100%; transform: translate3d(0px, 0px, 0px); content-visibility: visible;"
        >
          <defs>
            <clipPath id="__lottie_element_147">
              <rect width="334" height="334" x="0" y="0"></rect>
            </clipPath>
            <clipPath id="__lottie_element_149">
              <path d="M0,0 L1000,0 L1000,1000 L0,1000z"></path>
            </clipPath>
            <g id="__lottie_element_210">
              <g
                transform="matrix(-0.9975641965866089,-0.0697546973824501,0.0697546973824501,-0.9975641965866089,498.07598876953125,498)"
                opacity="1"
                style="display: block;"
              >
                <g opacity="1" transform="matrix(1,0,0,1,0,0)">
                  <path
                    fill="rgb(226,226,226)"
                    fill-opacity="1"
                    d=" M118.50199890136719,-112 C155.70199584960938,-154.39999389648438 164.16900634765625,-215.66700744628906 163.0019989013672,-242.5 C163.0019989013672,-242.5 -163.0019989013672,-242.5 -163.0019989013672,-242.5 C-164.16900634765625,-215.66700744628906 -155.70199584960938,-154.39999389648438 -118.50199890136719,-112 C-72.00199890136719,-59 -29.00200080871582,-51.5 -29.00200080871582,0 C-29.00200080871582,51.5 -72.00199890136719,59 -118.50199890136719,112 C-155.70199584960938,154.39999389648438 -164.16900634765625,215.66700744628906 -163.0019989013672,242.5 C-163.0019989013672,242.5 163.0019989013672,242.5 163.0019989013672,242.5 C164.16900634765625,215.66700744628906 155.70199584960938,154.39999389648438 118.50199890136719,112 C72.00199890136719,59 29.00200080871582,51.5 29.00200080871582,0 C29.00200080871582,-51.5 72.00199890136719,-59 118.50199890136719,-112z"
                  ></path>
                </g>
              </g>
            </g>
            <mask id="__lottie_element_210_1" mask-type="alpha">
              <use xlink:href="#__lottie_element_210"></use>
            </mask>
            <g id="__lottie_element_216">
              <g
                transform="matrix(-0.9975641965866089,-0.0697546973824501,0.0697546973824501,-0.9975641965866089,498.07598876953125,498)"
                opacity="1"
                style="display: block;"
              >
                <g opacity="1" transform="matrix(1,0,0,1,0,0)">
                  <path
                    fill="rgb(226,226,226)"
                    fill-opacity="1"
                    d=" M118.50199890136719,-112 C155.70199584960938,-154.39999389648438 164.16900634765625,-215.66700744628906 163.0019989013672,-242.5 C163.0019989013672,-242.5 -163.0019989013672,-242.5 -163.0019989013672,-242.5 C-164.16900634765625,-215.66700744628906 -155.70199584960938,-154.39999389648438 -118.50199890136719,-112 C-72.00199890136719,-59 -29.00200080871582,-51.5 -29.00200080871582,0 C-29.00200080871582,51.5 -72.00199890136719,59 -118.50199890136719,112 C-155.70199584960938,154.39999389648438 -164.16900634765625,215.66700744628906 -163.0019989013672,242.5 C-163.0019989013672,242.5 163.0019989013672,242.5 163.0019989013672,242.5 C164.16900634765625,215.66700744628906 155.70199584960938,154.39999389648438 118.50199890136719,112 C72.00199890136719,59 29.00200080871582,51.5 29.00200080871582,0 C29.00200080871582,-51.5 72.00199890136719,-59 118.50199890136719,-112z"
                  ></path>
                </g>
              </g>
            </g>
            <mask id="__lottie_element_216_1" mask-type="alpha">
              <use xlink:href="#__lottie_element_216"></use>
            </mask>
            <g id="__lottie_element_222">
              <g
                transform="matrix(-0.9975641965866089,-0.0697546973824501,0.0697546973824501,-0.9975641965866089,498.07598876953125,498)"
                opacity="1"
                style="display: block;"
              >
                <g opacity="1" transform="matrix(1,0,0,1,0,0)">
                  <path
                    fill="rgb(226,226,226)"
                    fill-opacity="1"
                    d=" M118.50199890136719,-112 C155.70199584960938,-154.39999389648438 164.16900634765625,-215.66700744628906 163.0019989013672,-242.5 C163.0019989013672,-242.5 -163.0019989013672,-242.5 -163.0019989013672,-242.5 C-164.16900634765625,-215.66700744628906 -155.70199584960938,-154.39999389648438 -118.50199890136719,-112 C-72.00199890136719,-59 -29.00200080871582,-51.5 -29.00200080871582,0 C-29.00200080871582,51.5 -72.00199890136719,59 -118.50199890136719,112 C-155.70199584960938,154.39999389648438 -164.16900634765625,215.66700744628906 -163.0019989013672,242.5 C-163.0019989013672,242.5 163.0019989013672,242.5 163.0019989013672,242.5 C164.16900634765625,215.66700744628906 155.70199584960938,154.39999389648438 118.50199890136719,112 C72.00199890136719,59 29.00200080871582,51.5 29.00200080871582,0 C29.00200080871582,-51.5 72.00199890136719,-59 118.50199890136719,-112z"
                  ></path>
                </g>
              </g>
            </g>
            <mask id="__lottie_element_222_1" mask-type="alpha">
              <use xlink:href="#__lottie_element_222"></use>
            </mask>
            <g id="__lottie_element_228">
              <g
                transform="matrix(-0.9975641965866089,-0.0697546973824501,0.0697546973824501,-0.9975641965866089,498.07598876953125,498)"
                opacity="1"
                style="display: block;"
              >
                <g opacity="1" transform="matrix(1,0,0,1,0,0)">
                  <path
                    fill="rgb(226,226,226)"
                    fill-opacity="1"
                    d=" M118.50199890136719,-112 C155.70199584960938,-154.39999389648438 164.16900634765625,-215.66700744628906 163.0019989013672,-242.5 C163.0019989013672,-242.5 -163.0019989013672,-242.5 -163.0019989013672,-242.5 C-164.16900634765625,-215.66700744628906 -155.70199584960938,-154.39999389648438 -118.50199890136719,-112 C-72.00199890136719,-59 -29.00200080871582,-51.5 -29.00200080871582,0 C-29.00200080871582,51.5 -72.00199890136719,59 -118.50199890136719,112 C-155.70199584960938,154.39999389648438 -164.16900634765625,215.66700744628906 -163.0019989013672,242.5 C-163.0019989013672,242.5 163.0019989013672,242.5 163.0019989013672,242.5 C164.16900634765625,215.66700744628906 155.70199584960938,154.39999389648438 118.50199890136719,112 C72.00199890136719,59 29.00200080871582,51.5 29.00200080871582,0 C29.00200080871582,-51.5 72.00199890136719,-59 118.50199890136719,-112z"
                  ></path>
                </g>
              </g>
            </g>
            <mask id="__lottie_element_228_1" mask-type="alpha">
              <use xlink:href="#__lottie_element_228"></use>
            </mask>
          </defs>
          <g clip-path="url(#__lottie_element_147)">
            <g
              clip-path="url(#__lottie_element_149)"
              transform="matrix(0.47999998927116394,0,0,0.47999998927116394,-73,-73)"
              opacity="1"
              style="display: block;"
            >
              <g
                transform="matrix(-0.9975641965866089,-0.0697546973824501,0.0697546973824501,-0.9975641965866089,498.07598876953125,498)"
                opacity="1"
                style="display: block;"
              >
                <g opacity="1" transform="matrix(1,0,0,1,0,0)">
                  <path
                    fill="rgb(226,226,226)"
                    fill-opacity="1"
                    d=" M118.50199890136719,-112 C155.70199584960938,-154.39999389648438 164.16900634765625,-215.66700744628906 163.0019989013672,-242.5 C163.0019989013672,-242.5 -163.0019989013672,-242.5 -163.0019989013672,-242.5 C-164.16900634765625,-215.66700744628906 -155.70199584960938,-154.39999389648438 -118.50199890136719,-112 C-72.00199890136719,-59 -29.00200080871582,-51.5 -29.00200080871582,0 C-29.00200080871582,51.5 -72.00199890136719,59 -118.50199890136719,112 C-155.70199584960938,154.39999389648438 -164.16900634765625,215.66700744628906 -163.0019989013672,242.5 C-163.0019989013672,242.5 163.0019989013672,242.5 163.0019989013672,242.5 C164.16900634765625,215.66700744628906 155.70199584960938,154.39999389648438 118.50199890136719,112 C72.00199890136719,59 29.00200080871582,51.5 29.00200080871582,0 C29.00200080871582,-51.5 72.00199890136719,-59 118.50199890136719,-112z"
                  ></path>
                </g>
              </g>
              <g mask="url(#__lottie_element_228_1)" style="display: block;">
                <g
                  transform="matrix(0.9998024702072144,-0.019876591861248016,0.019876591861248016,0.9998024702072144,530.5149536132812,497.6368103027344)"
                  opacity="1"
                >
                  <g opacity="1" transform="matrix(1,0,0,1,0,0)">
                    <path
                      fill="rgb(243,93,2)"
                      fill-opacity="1"
                      d=" M-243,-175 C-302,-192 -243,-73 -154,-70 C-65,-67 139,-48 172,-92 C205,-136 220,-131 174,-159 C128,-187 22,-187 -53,-165 C-128,-143 -184,-158 -243,-175z"
                    ></path>
                  </g>
                </g>
              </g>
              <g mask="url(#__lottie_element_222_1)" style="display: block;">
                <g
                  transform="matrix(-0.9975641965866089,-0.0697546973824501,0.0697546973824501,-0.9975641965866089,506.7170104980469,372.3316650390625)"
                  opacity="1"
                >
                  <g opacity="1" transform="matrix(1,0,0,1,0,0)">
                    <path
                      fill="rgb(244,94,3)"
                      fill-opacity="1"
                      d=" M-176.92100524902344,-0.5270000100135803 C-172.03599548339844,-31.715999603271484 -169.4029998779297,-37.12699890136719 -140.4029998779297,-60.62699890136719 C-84.43599700927734,-124.60700225830078 -22.09000015258789,-140.8300018310547 2.0950000286102295,-140.1699981689453 C24.534000396728516,-139.55799865722656 34.75699996948242,-140.8820037841797 126.25,-96.8010025024414 C149.72300720214844,-85.49199676513672 179.46099853515625,-65.9489974975586 182.57899475097656,-2.5269999504089355 C182.57899475097656,-2.5269999504089355 -176.92100524902344,-0.5270000100135803 -176.92100524902344,-0.5270000100135803z"
                    ></path>
                  </g>
                </g>
              </g>
              <g mask="url(#__lottie_element_216_1)" style="display: block;">
                <g
                  transform="matrix(0.9996415376663208,-0.02677387371659279,0.02677387371659279,0.9996415376663208,489.43499755859375,623.6683349609375)"
                  opacity="1"
                >
                  <g opacity="1" transform="matrix(1,0,0,1,0,38)">
                    <path
                      fill="rgb(244,94,3)"
                      fill-opacity="1"
                      d=" M-178.25,134.46499633789062 C-207.13900756835938,16.03499984741211 -140.25,14.53499984741211 -111.25,-8.96500015258789 C-54.138999938964844,-43.96500015258789 -16.479000091552734,-50.46699905395508 -4.75,-50.46500015258789 C8.75,-50.4630012512207 70.25,-39.61199951171875 115.75,-8.46500015258789 C137.25,6.252999782562256 194.86099243164062,22.03499984741211 193.25,129.46499633789062 C193.25,129.46499633789062 -178.25,134.46499633789062 -178.25,134.46499633789062z"
                    ></path>
                  </g>
                </g>
              </g>
              <g mask="url(#__lottie_element_210_1)" style="display: block;">
                <g
                  transform="matrix(0.9975641965866089,0.0697546973824501,-0.0697546973824501,0.9975641965866089,503.63946533203125,526.0564575195312)"
                  opacity="1"
                >
                  <g opacity="1" transform="matrix(1,0,0,1,0,0)">
                    <path
                      fill="rgb(243,93,2)"
                      fill-opacity="1"
                      d=" M15.75,-82.5 C13.529999732971191,-104.97899627685547 -31.68600082397461,-101.53500366210938 -32.5,-78.75 C-34,-36.75 -36.9095573425293,-36.7042350769043 -42.305030822753906,1 C-47.21527862548828,38.988407135009766 -63.73925018310547,37.84926223754883 -73.02647399902344,70.25 C-87.23239135742188,117.5938720703125 -66.1183090209961,120.14340209960938 -70.22215270996094,158.5 C-72.3713150024414,179.85830688476562 -102.60974884033203,190.33599853515625 -97.1657485961914,223 C-94.1657485961914,241 -52.530155181884766,243.40509033203125 -42.47215270996094,244.61209106445312 C-23.72215461730957,246.86209106445312 -8.25,258.3328857421875 22.75,256.3328857421875 C45.452999114990234,254.8678741455078 72.03675079345703,241.9080047607422 74.1657485961914,225.75 C78.4157485961914,193.5 52.38387680053711,183.1736602783203 49.446346282958984,160.97352600097656 C44.014686584472656,117.1178970336914 67.34481048583984,130.4152374267578 53.97077941894531,68 C50.66299819946289,49.34662628173828 27.60247039794922,36.536094665527344 26.081499099731445,3 C23.976730346679688,-32.27829360961914 19.75,-42 15.75,-82.5z"
                    ></path>
                  </g>
                </g>
              </g>
              <g
                transform="matrix(-0.9975641965866089,-0.0697546973824501,0.0697546973824501,-0.9975641965866089,498.07598876953125,498)"
                opacity="1"
                style="display: block;"
              >
                <g opacity="1" transform="matrix(1,0,0,1,0,0)">
                  <path
                    stroke-linecap="butt"
                    stroke-linejoin="miter"
                    fill-opacity="0"
                    stroke-miterlimit="4"
                    stroke="rgb(38,50,56)"
                    stroke-opacity="1"
                    stroke-width="2"
                    d=" M118.50199890136719,-112 C155.70199584960938,-154.39999389648438 164.16900634765625,-215.66700744628906 163.0019989013672,-242.5 C163.0019989013672,-242.5 -163.0019989013672,-242.5 -163.0019989013672,-242.5 C-164.16900634765625,-215.66700744628906 -155.70199584960938,-154.39999389648438 -118.50199890136719,-112 C-72.00199890136719,-59 -29.00200080871582,-51.5 -29.00200080871582,0 C-29.00200080871582,51.5 -72.00199890136719,59 -118.50199890136719,112 C-155.70199584960938,154.39999389648438 -164.16900634765625,215.66700744628906 -163.0019989013672,242.5 C-163.0019989013672,242.5 163.0019989013672,242.5 163.0019989013672,242.5 C164.16900634765625,215.66700744628906 155.70199584960938,154.39999389648438 118.50199890136719,112 C72.00199890136719,59 29.00200080871582,51.5 29.00200080871582,0 C29.00200080871582,-51.5 72.00199890136719,-59 118.50199890136719,-112z"
                  ></path>
                </g>
              </g>
              <g
                transform="matrix(-0.9975641965866089,-0.0697546973824501,0.0697546973824501,-0.9975641965866089,482.5303039550781,728.978271484375)"
                opacity="1"
                style="display: block;"
              >
                <g opacity="1" transform="matrix(1,0,0,1,0,0)">
                  <path
                    fill="rgb(217,217,217)"
                    fill-opacity="1"
                    d=" M-160.5,-11.5 C-160.5,-11.5 160.5,-11.5 160.5,-11.5 C166.0229949951172,-11.5 170.5,-7.0229997634887695 170.5,-1.5 C170.5,-1.5 170.5,1.5 170.5,1.5 C170.5,7.0229997634887695 166.0229949951172,11.5 160.5,11.5 C160.5,11.5 -160.5,11.5 -160.5,11.5 C-166.0229949951172,11.5 -170.5,7.0229997634887695 -170.5,1.5 C-170.5,1.5 -170.5,-1.5 -170.5,-1.5 C-170.5,-7.0229997634887695 -166.0229949951172,-11.5 -160.5,-11.5z"
                  ></path>
                  <path
                    stroke-linecap="butt"
                    stroke-linejoin="miter"
                    fill-opacity="0"
                    stroke-miterlimit="4"
                    stroke="rgb(38,50,56)"
                    stroke-opacity="1"
                    stroke-width="2"
                    d=" M-160.5,-11.5 C-160.5,-11.5 160.5,-11.5 160.5,-11.5 C166.0229949951172,-11.5 170.5,-7.0229997634887695 170.5,-1.5 C170.5,-1.5 170.5,1.5 170.5,1.5 C170.5,7.0229997634887695 166.0229949951172,11.5 160.5,11.5 C160.5,11.5 -160.5,11.5 -160.5,11.5 C-166.0229949951172,11.5 -170.5,7.0229997634887695 -170.5,1.5 C-170.5,1.5 -170.5,-1.5 -170.5,-1.5 C-170.5,-7.0229997634887695 -166.0229949951172,-11.5 -160.5,-11.5z"
                  ></path>
                </g>
              </g>
              <g
                transform="matrix(-0.9975641965866089,-0.0697546973824501,0.0697546973824501,-0.9975641965866089,514.9662475585938,265.11090087890625)"
                opacity="1"
                style="display: block;"
              >
                <g opacity="1" transform="matrix(1,0,0,1,0,0)">
                  <path
                    fill="rgb(217,217,217)"
                    fill-opacity="1"
                    d=" M-160.5,-11.5 C-160.5,-11.5 160.5,-11.5 160.5,-11.5 C166.0229949951172,-11.5 170.5,-7.0229997634887695 170.5,-1.5 C170.5,-1.5 170.5,1.5 170.5,1.5 C170.5,7.0229997634887695 166.0229949951172,11.5 160.5,11.5 C160.5,11.5 -160.5,11.5 -160.5,11.5 C-166.0229949951172,11.5 -170.5,7.0229997634887695 -170.5,1.5 C-170.5,1.5 -170.5,-1.5 -170.5,-1.5 C-170.5,-7.0229997634887695 -166.0229949951172,-11.5 -160.5,-11.5z"
                  ></path>
                  <path
                    stroke-linecap="butt"
                    stroke-linejoin="miter"
                    fill-opacity="0"
                    stroke-miterlimit="4"
                    stroke="rgb(38,50,56)"
                    stroke-opacity="1"
                    stroke-width="2"
                    d=" M-160.5,-11.5 C-160.5,-11.5 160.5,-11.5 160.5,-11.5 C166.0229949951172,-11.5 170.5,-7.0229997634887695 170.5,-1.5 C170.5,-1.5 170.5,1.5 170.5,1.5 C170.5,7.0229997634887695 166.0229949951172,11.5 160.5,11.5 C160.5,11.5 -160.5,11.5 -160.5,11.5 C-166.0229949951172,11.5 -170.5,7.0229997634887695 -170.5,1.5 C-170.5,1.5 -170.5,-1.5 -170.5,-1.5 C-170.5,-7.0229997634887695 -166.0229949951172,-11.5 -160.5,-11.5z"
                  ></path>
                </g>
              </g>
              <g style="display: none;">
                <g>
                  <g>
                    <path></path>
                  </g>
                </g>
                <g>
                  <g>
                    <path></path>
                  </g>
                </g>
              </g>
              <g
                transform="matrix(0.9975641965866089,0.0697546973824501,-0.0697546973824501,0.9975641965866089,45.01093673706055,-32.89658737182617)"
                opacity="1"
                style="display: block;"
              >
                <g
                  opacity="1"
                  transform="matrix(1,0,0,1,369.60101318359375,322.0639953613281)"
                >
                  <g opacity="1" transform="matrix(1,0,0,1,0,0)">
                    <path
                      fill="rgb(255,255,255)"
                      fill-opacity="1"
                      d=" M-12.475000381469727,5.982999801635742 C-20.735000610351562,-11.241000175476074 -21.847000122070312,-27.882999420166016 -14.956999778747559,-31.187000274658203 C-8.067000389099121,-34.49100112915039 4.215000152587891,-23.207000732421875 12.475000381469727,-5.982999801635742 C20.735000610351562,11.241000175476074 21.847000122070312,27.882999420166016 14.956999778747559,31.187000274658203 C8.067000389099121,34.49100112915039 -4.215000152587891,23.207000732421875 -12.475000381469727,5.982999801635742z"
                    ></path>
                  </g>
                </g>
                <g
                  opacity="1"
                  transform="matrix(1,0,0,1,395.06201171875,371.6629943847656)"
                >
                  <g opacity="1" transform="matrix(1,0,0,1,0,0)">
                    <path
                      fill="rgb(255,255,255)"
                      fill-opacity="1"
                      d=" M-7.995999813079834,3.8350000381469727 C-10.406999588012695,-1.1929999589920044 -8.781999588012695,-6.986000061035156 -4.366000175476074,-9.104000091552734 C0.05000000074505806,-11.222000122070312 5.585000038146973,-8.86299991607666 7.995999813079834,-3.8350000381469727 C10.406999588012695,1.1929999589920044 8.781999588012695,6.986000061035156 4.366000175476074,9.104000091552734 C-0.05000000074505806,11.222000122070312 -5.585000038146973,8.86299991607666 -7.995999813079834,3.8350000381469727z"
                    ></path>
                  </g>
                </g>
              </g>
              <g
                style="display: block;"
                transform="matrix(-0.9975641965866089,-0.0697546973824501,0.0697546973824501,-0.9975641965866089,512.1439819335938,616.8682250976562)"
                opacity="1"
              >
                <g opacity="1" transform="matrix(1,0,0,1,0,0)">
                  <path
                    fill="rgb(255,255,255)"
                    fill-opacity="1"
                    d=" M0,-7 C3.865999937057495,-7 7,-3.865999937057495 7,0 C7,3.865999937057495 3.865999937057495,7 0,7 C-3.865999937057495,7 -7,3.865999937057495 -7,0 C-7,-3.865999937057495 -3.865999937057495,-7 0,-7z"
                  ></path>
                  <path
                    stroke-linecap="butt"
                    stroke-linejoin="miter"
                    fill-opacity="0"
                    stroke-miterlimit="4"
                    stroke="rgb(38,50,56)"
                    stroke-opacity="1"
                    stroke-width="2"
                    d=" M0,-7 C3.865999937057495,-7 7,-3.865999937057495 7,0 C7,3.865999937057495 3.865999937057495,7 0,7 C-3.865999937057495,7 -7,3.865999937057495 -7,0 C-7,-3.865999937057495 -3.865999937057495,-7 0,-7z"
                  ></path>
                </g>
              </g>
              <g
                style="display: block;"
                transform="matrix(-0.9975641965866089,-0.0697546973824501,0.0697546973824501,-0.9975641965866089,523.4595336914062,441.0130310058594)"
                opacity="1"
              >
                <g opacity="1" transform="matrix(1,0,0,1,0,0)">
                  <path
                    fill="rgb(255,255,255)"
                    fill-opacity="1"
                    d=" M0,-7 C3.865999937057495,-7 7,-3.865999937057495 7,0 C7,3.865999937057495 3.865999937057495,7 0,7 C-3.865999937057495,7 -7,3.865999937057495 -7,0 C-7,-3.865999937057495 -3.865999937057495,-7 0,-7z"
                  ></path>
                  <path
                    stroke-linecap="butt"
                    stroke-linejoin="miter"
                    fill-opacity="0"
                    stroke-miterlimit="4"
                    stroke="rgb(38,50,56)"
                    stroke-opacity="1"
                    stroke-width="2"
                    d=" M0,-7 C3.865999937057495,-7 7,-3.865999937057495 7,0 C7,3.865999937057495 3.865999937057495,7 0,7 C-3.865999937057495,7 -7,3.865999937057495 -7,0 C-7,-3.865999937057495 -3.865999937057495,-7 0,-7z"
                  ></path>
                </g>
              </g>
              <g
                style="display: none;"
                transform="matrix(-0.9999833703041077,0.005763437133282423,-0.005763437133282423,-0.9999833703041077,528.2466430664062,643.6981201171875)"
                opacity="0.0018861795454708386"
              >
                <g opacity="1" transform="matrix(1,0,0,1,0,0)">
                  <path
                    fill="rgb(255,255,255)"
                    fill-opacity="1"
                    d=" M0,-0.18070398271083832 C0.10004551708698273,-0.18070398271083832 0.18070398271083832,-0.10004551708698273 0.18070398271083832,0 C0.18070398271083832,0.10004551708698273 0.10004551708698273,0.18070398271083832 0,0.18070398271083832 C-0.10004551708698273,0.18070398271083832 -0.18070398271083832,0.10004551708698273 -0.18070398271083832,0 C-0.18070398271083832,-0.10004551708698273 -0.10004551708698273,-0.18070398271083832 0,-0.18070398271083832z"
                  ></path>
                  <path
                    stroke-linecap="butt"
                    stroke-linejoin="miter"
                    fill-opacity="0"
                    stroke-miterlimit="4"
                    stroke="rgb(38,50,56)"
                    stroke-opacity="1"
                    stroke-width="2"
                    d=" M0,-0.18070398271083832 C0.10004551708698273,-0.18070398271083832 0.18070398271083832,-0.10004551708698273 0.18070398271083832,0 C0.18070398271083832,0.10004551708698273 0.10004551708698273,0.18070398271083832 0,0.18070398271083832 C-0.10004551708698273,0.18070398271083832 -0.18070398271083832,0.10004551708698273 -0.18070398271083832,0 C-0.18070398271083832,-0.10004551708698273 -0.10004551708698273,-0.18070398271083832 0,-0.18070398271083832z"
                  ></path>
                </g>
              </g>
              <g
                style="display: none;"
                transform="matrix(-1,0.000001883413801806455,-0.000001883413801806455,-1,467.9140319824219,637.920654296875)"
                opacity="0.002502635911840798"
              >
                <g opacity="1" transform="matrix(1,0,0,1,0,0)">
                  <path
                    fill="rgb(255,255,255)"
                    fill-opacity="1"
                    d=" M0,-0.18187610805034637 C0.10069283097982407,-0.18187610805034637 0.18187610805034637,-0.10069283097982407 0.18187610805034637,0 C0.18187610805034637,0.10069283097982407 0.10069283097982407,0.18187610805034637 0,0.18187610805034637 C-0.10069283097982407,0.18187610805034637 -0.18187610805034637,0.10069283097982407 -0.18187610805034637,0 C-0.18187610805034637,-0.10069283097982407 -0.10069283097982407,-0.18187610805034637 0,-0.18187610805034637z"
                  ></path>
                  <path
                    stroke-linecap="butt"
                    stroke-linejoin="miter"
                    fill-opacity="0"
                    stroke-miterlimit="4"
                    stroke="rgb(38,50,56)"
                    stroke-opacity="1"
                    stroke-width="2"
                    d=" M0,-0.18187610805034637 C0.10069283097982407,-0.18187610805034637 0.18187610805034637,-0.10069283097982407 0.18187610805034637,0 C0.18187610805034637,0.10069283097982407 0.10069283097982407,0.18187610805034637 0,0.18187610805034637 C-0.10069283097982407,0.18187610805034637 -0.18187610805034637,0.10069283097982407 -0.18187610805034637,0 C-0.18187610805034637,-0.10069283097982407 -0.10069283097982407,-0.18187610805034637 0,-0.18187610805034637z"
                  ></path>
                </g>
              </g>
              <g
                transform="matrix(-0.9975641965866089,-0.0697546973824501,0.0697546973824501,-0.9975641965866089,590.2074584960938,707.5713500976562)"
                opacity="1"
                style="display: block;"
              >
                <g opacity="1" transform="matrix(1,0,0,1,0,0)">
                  <path
                    fill="rgb(255,255,255)"
                    fill-opacity="1"
                    d=" M0,-7 C3.865999937057495,-7 7,-3.865999937057495 7,0 C7,3.865999937057495 3.865999937057495,7 0,7 C-3.865999937057495,7 -7,3.865999937057495 -7,0 C-7,-3.865999937057495 -3.865999937057495,-7 0,-7z"
                  ></path>
                  <path
                    stroke-linecap="butt"
                    stroke-linejoin="miter"
                    fill-opacity="0"
                    stroke-miterlimit="4"
                    stroke="rgb(38,50,56)"
                    stroke-opacity="1"
                    stroke-width="2"
                    d=" M0,-7 C3.865999937057495,-7 7,-3.865999937057495 7,0 C7,3.865999937057495 3.865999937057495,7 0,7 C-3.865999937057495,7 -7,3.865999937057495 -7,0 C-7,-3.865999937057495 -3.865999937057495,-7 0,-7z"
                  ></path>
                </g>
              </g>
              <g
                transform="matrix(-0.9975641965866089,-0.0697546973824501,0.0697546973824501,-0.9975641965866089,510.09912109375,379.1427917480469)"
                opacity="1"
                style="display: block;"
              >
                <g opacity="1" transform="matrix(1,0,0,1,0,0)">
                  <path
                    fill="rgb(255,255,255)"
                    fill-opacity="1"
                    d=" M0,-7 C3.865999937057495,-7 7,-3.865999937057495 7,0 C7,3.865999937057495 3.865999937057495,7 0,7 C-3.865999937057495,7 -7,3.865999937057495 -7,0 C-7,-3.865999937057495 -3.865999937057495,-7 0,-7z"
                  ></path>
                  <path
                    stroke-linecap="butt"
                    stroke-linejoin="miter"
                    fill-opacity="0"
                    stroke-miterlimit="4"
                    stroke="rgb(38,50,56)"
                    stroke-opacity="1"
                    stroke-width="2"
                    d=" M0,-7 C3.865999937057495,-7 7,-3.865999937057495 7,0 C7,3.865999937057495 3.865999937057495,7 0,7 C-3.865999937057495,7 -7,3.865999937057495 -7,0 C-7,-3.865999937057495 -3.865999937057495,-7 0,-7z"
                  ></path>
                </g>
              </g>
              <g
                transform="matrix(-0.9975641965866089,-0.0697546973824501,0.0697546973824501,-0.9975641965866089,564.457763671875,684.8477783203125)"
                opacity="1"
                style="display: block;"
              >
                <g opacity="1" transform="matrix(1,0,0,1,0,0)">
                  <path
                    fill="rgb(255,255,255)"
                    fill-opacity="1"
                    d=" M0,-4.5 C2.484999895095825,-4.5 4.5,-2.484999895095825 4.5,0 C4.5,2.484999895095825 2.484999895095825,4.5 0,4.5 C-2.484999895095825,4.5 -4.5,2.484999895095825 -4.5,0 C-4.5,-2.484999895095825 -2.484999895095825,-4.5 0,-4.5z"
                  ></path>
                  <path
                    stroke-linecap="butt"
                    stroke-linejoin="miter"
                    fill-opacity="0"
                    stroke-miterlimit="4"
                    stroke="rgb(38,50,56)"
                    stroke-opacity="1"
                    stroke-width="2"
                    d=" M0,-4.5 C2.484999895095825,-4.5 4.5,-2.484999895095825 4.5,0 C4.5,2.484999895095825 2.484999895095825,4.5 0,4.5 C-2.484999895095825,4.5 -4.5,2.484999895095825 -4.5,0 C-4.5,-2.484999895095825 -2.484999895095825,-4.5 0,-4.5z"
                  ></path>
                </g>
              </g>
              <g
                transform="matrix(-0.9975641965866089,-0.0697546973824501,0.0697546973824501,-0.9975641965866089,616.0531616210938,370.9097900390625)"
                opacity="1"
                style="display: block;"
              >
                <g opacity="1" transform="matrix(1,0,0,1,0,0)">
                  <path
                    fill="rgb(255,255,255)"
                    fill-opacity="1"
                    d=" M0,-4.5 C2.484999895095825,-4.5 4.5,-2.484999895095825 4.5,0 C4.5,2.484999895095825 2.484999895095825,4.5 0,4.5 C-2.484999895095825,4.5 -4.5,2.484999895095825 -4.5,0 C-4.5,-2.484999895095825 -2.484999895095825,-4.5 0,-4.5z"
                  ></path>
                  <path
                    stroke-linecap="butt"
                    stroke-linejoin="miter"
                    fill-opacity="0"
                    stroke-miterlimit="4"
                    stroke="rgb(38,50,56)"
                    stroke-opacity="1"
                    stroke-width="2"
                    d=" M0,-4.5 C2.484999895095825,-4.5 4.5,-2.484999895095825 4.5,0 C4.5,2.484999895095825 2.484999895095825,4.5 0,4.5 C-2.484999895095825,4.5 -4.5,2.484999895095825 -4.5,0 C-4.5,-2.484999895095825 -2.484999895095825,-4.5 0,-4.5z"
                  ></path>
                </g>
              </g>
              <g
                transform="matrix(-0.9975641965866089,-0.0697546973824501,0.0697546973824501,-0.9975641965866089,465.10302734375,626.174560546875)"
                opacity="1"
                style="display: block;"
              >
                <g opacity="1" transform="matrix(1,0,0,1,0,0)">
                  <path
                    fill="rgb(255,255,255)"
                    fill-opacity="1"
                    d=" M0,-7 C3.865999937057495,-7 7,-3.865999937057495 7,0 C7,3.865999937057495 3.865999937057495,7 0,7 C-3.865999937057495,7 -7,3.865999937057495 -7,0 C-7,-3.865999937057495 -3.865999937057495,-7 0,-7z"
                  ></path>
                  <path
                    stroke-linecap="butt"
                    stroke-linejoin="miter"
                    fill-opacity="0"
                    stroke-miterlimit="4"
                    stroke="rgb(38,50,56)"
                    stroke-opacity="1"
                    stroke-width="2"
                    d=" M0,-7 C3.865999937057495,-7 7,-3.865999937057495 7,0 C7,3.865999937057495 3.865999937057495,7 0,7 C-3.865999937057495,7 -7,3.865999937057495 -7,0 C-7,-3.865999937057495 -3.865999937057495,-7 0,-7z"
                  ></path>
                </g>
              </g>
              <g
                transform="matrix(-0.9264906644821167,0.3763178884983063,-0.3763178884983063,-0.9264906644821167,1167.33349609375,822.17578125)"
                opacity="1"
                style="display: block;"
              >
                <g
                  opacity="1"
                  transform="matrix(1,0,0,1,456.2720031738281,605.1640014648438)"
                >
                  <path
                    fill="rgb(155,155,155)"
                    fill-opacity="1"
                    d=" M13.994709014892578,4.490973949432373 C14.016336441040039,19.1046199798584 10.91533088684082,26.920408248901367 8.62868595123291,29.938255310058594 C8.62868595123291,29.938255310058594 -0.7400000095367432,29.868000030517578 -0.7400000095367432,29.868000030517578 C-0.7400000095367432,29.868000030517578 -0.4560000002384186,-22.131000518798828 -0.4560000002384186,-22.131000518798828 C-0.4560000002384186,-22.131000518798828 8.912686347961426,-22.100358963012695 8.912686347961426,-22.100358963012695 C10.987980842590332,-20.007675170898438 13.961311340332031,-10.71230697631836 13.994709014892578,4.490973949432373z"
                  ></path>
                  <path
                    stroke-linecap="butt"
                    stroke-linejoin="miter"
                    fill-opacity="0"
                    stroke-miterlimit="4"
                    stroke="rgb(38,50,56)"
                    stroke-opacity="1"
                    stroke-width="2"
                    d=" M13.994709014892578,4.490973949432373 C14.016336441040039,19.1046199798584 10.91533088684082,26.920408248901367 8.62868595123291,29.938255310058594 C8.62868595123291,29.938255310058594 -0.7400000095367432,29.868000030517578 -0.7400000095367432,29.868000030517578 C-0.7400000095367432,29.868000030517578 -0.4560000002384186,-22.131000518798828 -0.4560000002384186,-22.131000518798828 C-0.4560000002384186,-22.131000518798828 8.912686347961426,-22.100358963012695 8.912686347961426,-22.100358963012695 C10.987980842590332,-20.007675170898438 13.961311340332031,-10.71230697631836 13.994709014892578,4.490973949432373z"
                  ></path>
                </g>
                <g
                  opacity="1"
                  transform="matrix(1,0,0,1,453.7969970703125,612.5479736328125)"
                >
                  <path
                    fill="rgb(255,255,255)"
                    fill-opacity="1"
                    d=" M7.851916790008545,-3.4040000438690186 C7.885997772216797,-17.82699966430664 4.98403263092041,-29.555999755859375 1.3698792457580566,-29.601999282836914 C-2.2434794902801514,-29.648000717163086 -5.2006306648254395,-17.993000030517578 -5.234711647033691,-3.569999933242798 C-5.268792629241943,10.852999687194824 -2.366032600402832,22.58300018310547 1.2481207847595215,22.628999710083008 C4.86147928237915,22.674999237060547 7.817835807800293,11.019000053405762 7.851916790008545,-3.4040000438690186z"
                  ></path>
                  <path
                    stroke-linecap="butt"
                    stroke-linejoin="miter"
                    fill-opacity="0"
                    stroke-miterlimit="4"
                    stroke="rgb(38,50,56)"
                    stroke-opacity="1"
                    stroke-width="2"
                    d=" M7.851916790008545,-3.4040000438690186 C7.885997772216797,-17.82699966430664 4.98403263092041,-29.555999755859375 1.3698792457580566,-29.601999282836914 C-2.2434794902801514,-29.648000717163086 -5.2006306648254395,-17.993000030517578 -5.234711647033691,-3.569999933242798 C-5.268792629241943,10.852999687194824 -2.366032600402832,22.58300018310547 1.2481207847595215,22.628999710083008 C4.86147928237915,22.674999237060547 7.817835807800293,11.019000053405762 7.851916790008545,-3.4040000438690186z"
                  ></path>
                </g>
                <g
                  opacity="1"
                  transform="matrix(1,0,0,1,453.7959899902344,612.5499877929688)"
                >
                  <path
                    fill="rgb(226,226,226)"
                    fill-opacity="1"
                    d=" M6.322988986968994,-3.431999921798706 C6.353838920593262,-15.309000015258789 3.9520363807678223,-24.674861907958984 1.4832772016525269,-24.705862045288086 C-0.985481858253479,-24.736862182617188 -3.673574924468994,-15.42300033569336 -3.7044248580932617,-3.5460000038146973 C-3.7352750301361084,8.331000328063965 -1.1985331773757935,17.696863174438477 1.2702258825302124,17.727863311767578 C3.738985061645508,17.75886344909668 6.292139053344727,8.444999694824219 6.322988986968994,-3.431999921798706z"
                  ></path>
                  <path
                    stroke-linecap="butt"
                    stroke-linejoin="miter"
                    fill-opacity="0"
                    stroke-miterlimit="4"
                    stroke="rgb(38,50,56)"
                    stroke-opacity="1"
                    stroke-width="2"
                    d=" M6.322988986968994,-3.431999921798706 C6.353838920593262,-15.309000015258789 3.9520363807678223,-24.674861907958984 1.4832772016525269,-24.705862045288086 C-0.985481858253479,-24.736862182617188 -3.673574924468994,-15.42300033569336 -3.7044248580932617,-3.5460000038146973 C-3.7352750301361084,8.331000328063965 -1.1985331773757935,17.696863174438477 1.2702258825302124,17.727863311767578 C3.738985061645508,17.75886344909668 6.292139053344727,8.444999694824219 6.322988986968994,-3.431999921798706z"
                  ></path>
                </g>
              </g>
              <g
                transform="matrix(0.26428771018981934,-0.9644439220428467,0.9644439220428467,0.26428771018981934,-196.28826904296875,1204.1231689453125)"
                opacity="1"
                style="display: block;"
              >
                <g
                  opacity="1"
                  transform="matrix(1,0,0,1,537.2340087890625,661.7139892578125)"
                >
                  <g opacity="1" transform="matrix(1,0,0,1,0,0)">
                    <path
                      fill="rgb(155,155,155)"
                      fill-opacity="1"
                      d=" M146.22064208984375,-96.06554412841797 C138.082763671875,-96.09254455566406 131.5000762939453,-117.88300323486328 131.51004028320312,-144.72300720214844 C131.51686096191406,-164.68800354003906 135.17376708984375,-181.8260040283203 140.39590454101562,-189.28700256347656 C142.19427490234375,-191.8560028076172 144.17181396484375,-193.26654052734375 146.2560577392578,-193.25955200195312 C146.2560577392578,-193.25955200195312 160.0229949951172,-193.26100158691406 160.0229949951172,-193.26100158691406 C160.0229949951172,-193.26100158691406 159.9149932861328,-96.06700134277344 159.9149932861328,-96.06700134277344 C159.9149932861328,-96.06700134277344 146.22064208984375,-96.06554412841797 146.22064208984375,-96.06554412841797z"
                    ></path>
                    <path
                      stroke-linecap="butt"
                      stroke-linejoin="miter"
                      fill-opacity="0"
                      stroke-miterlimit="4"
                      stroke="rgb(38,42,51)"
                      stroke-opacity="1"
                      stroke-width="2"
                      d=" M146.22064208984375,-96.06554412841797 C138.082763671875,-96.09254455566406 131.5000762939453,-117.88300323486328 131.51004028320312,-144.72300720214844 C131.51686096191406,-164.68800354003906 135.17376708984375,-181.8260040283203 140.39590454101562,-189.28700256347656 C142.19427490234375,-191.8560028076172 144.17181396484375,-193.26654052734375 146.2560577392578,-193.25955200195312 C146.2560577392578,-193.25955200195312 160.0229949951172,-193.26100158691406 160.0229949951172,-193.26100158691406 C160.0229949951172,-193.26100158691406 159.9149932861328,-96.06700134277344 159.9149932861328,-96.06700134277344 C159.9149932861328,-96.06700134277344 146.22064208984375,-96.06554412841797 146.22064208984375,-96.06554412841797z"
                    ></path>
                  </g>
                </g>
                <g
                  opacity="1"
                  transform="matrix(1,0,0,1,552.0789794921875,657.197998046875)"
                >
                  <g opacity="1" transform="matrix(1,0,0,1,0,0)">
                    <path
                      fill="rgb(255,255,255)"
                      fill-opacity="1"
                      d=" M144.5127716064453,-188.7429962158203 C136.55886840820312,-188.77000427246094 130.10342407226562,-167.03500366210938 130.09347534179688,-140.1959991455078 C130.08351135253906,-113.35700225830078 136.52430725097656,-91.5770034790039 144.4782257080078,-91.55000305175781 C152.43212890625,-91.52300262451172 158.8875732421875,-113.25800323486328 158.89752197265625,-140.0970001220703 C158.90748596191406,-166.93600463867188 152.46669006347656,-188.71600341796875 144.5127716064453,-188.7429962158203z"
                    ></path>
                    <path
                      stroke-linecap="butt"
                      stroke-linejoin="miter"
                      fill-opacity="0"
                      stroke-miterlimit="4"
                      stroke="rgb(38,42,51)"
                      stroke-opacity="1"
                      stroke-width="2"
                      d=" M144.5127716064453,-188.7429962158203 C136.55886840820312,-188.77000427246094 130.10342407226562,-167.03500366210938 130.09347534179688,-140.1959991455078 C130.08351135253906,-113.35700225830078 136.52430725097656,-91.5770034790039 144.4782257080078,-91.55000305175781 C152.43212890625,-91.52300262451172 158.8875732421875,-113.25800323486328 158.89752197265625,-140.0970001220703 C158.90748596191406,-166.93600463867188 152.46669006347656,-188.71600341796875 144.5127716064453,-188.7429962158203z"
                    ></path>
                  </g>
                </g>
                <g
                  opacity="1"
                  transform="matrix(1,0,0,1,551.7960205078125,657.3510131835938)"
                >
                  <g opacity="1" transform="matrix(1,0,0,1,0,0)">
                    <path
                      fill="rgb(155,155,155)"
                      fill-opacity="1"
                      d=" M144.689697265625,-180.76800537109375 C138.044677734375,-180.79100036621094 132.6506805419922,-162.69200134277344 132.64285278320312,-140.3419952392578 C132.63504028320312,-117.99199676513672 138.0156707763672,-99.85600280761719 144.6606903076172,-99.83300018310547 C151.30569458007812,-99.80999755859375 156.69883728027344,-117.90899658203125 156.70664978027344,-140.25900268554688 C156.7144775390625,-162.60899353027344 151.33470153808594,-180.7449951171875 144.689697265625,-180.76800537109375z"
                    ></path>
                  </g>
                </g>
                <g opacity="1" transform="matrix(1,0,0,1,0,0)">
                  <g
                    opacity="1"
                    transform="matrix(1,0,0,1,551.8109741210938,653.8880004882812)"
                  >
                    <path
                      stroke-linecap="round"
                      stroke-linejoin="round"
                      fill-opacity="0"
                      stroke="rgb(38,42,51)"
                      stroke-opacity="1"
                      stroke-width="2"
                      d=" M148.40185546875,-138.50999450683594 C147.10519409179688,-137.58099365234375 144.01199340820312,-136.84500122070312 142.01351928710938,-141.33399963378906"
                    ></path>
                  </g>
                  <g
                    opacity="1"
                    transform="matrix(1,0,0,1,570.3599853515625,645.083984375)"
                  >
                    <path
                      stroke-linecap="round"
                      stroke-linejoin="round"
                      fill-opacity="0"
                      stroke="rgb(38,42,51)"
                      stroke-opacity="1"
                      stroke-width="2"
                      d=" M135.0616912841797,-129.9010009765625 C134.552734375,-129.11300659179688 133.11569213867188,-128.00999450683594 131.44972229003906,-129.91299438476562"
                    ></path>
                  </g>
                  <g
                    opacity="1"
                    transform="matrix(1,0,0,1,553.0750122070312,662.802978515625)"
                  >
                    <path
                      fill="rgb(226,226,226)"
                      fill-opacity="1"
                      d=" M147.7035675048828,-176.7270050048828 C145.9259490966797,-177.76800537109375 144.60040283203125,-175.4459991455078 144.16070556640625,-174.1540069580078 C143.58262634277344,-175.80799865722656 142.6064910888672,-178.8179931640625 140.8287353515625,-178.47999572753906 C138.6060028076172,-178.05799865722656 134.82737731933594,-167.84500122070312 131.48431396484375,-141.12899780273438 C133.94923400878906,-98.67900085449219 145.4717254638672,-105.25299835205078 146.39125061035156,-106.427001953125 C150.26345825195312,-111.37200164794922 152.0474853515625,-122.88400268554688 152.54849243164062,-129.2989959716797 C153.3821258544922,-130.80999755859375 153.59202575683594,-133.8260040283203 153.03640747070312,-135.5469970703125 C154.14891052246094,-138.56500244140625 153.80291748046875,-142.4459991455078 152.55418395996094,-145.89300537109375 C153.0408172607422,-147.39999389648438 153.81968688964844,-152.531005859375 153.04421997070312,-158.39599609375 C152.38821411132812,-163.35499572753906 151.03338623046875,-166.80799865722656 150.27015686035156,-168.31399536132812 C150.15524291992188,-170.68600463867188 149.48117065429688,-175.68600463867188 147.7035675048828,-176.7270050048828z"
                    ></path>
                    <path
                      stroke-linecap="round"
                      stroke-linejoin="round"
                      fill-opacity="0"
                      stroke="rgb(38,42,51)"
                      stroke-opacity="1"
                      stroke-width="2"
                      d=" M147.7035675048828,-176.7270050048828 C145.9259490966797,-177.76800537109375 144.60040283203125,-175.4459991455078 144.16070556640625,-174.1540069580078 C143.58262634277344,-175.80799865722656 142.6064910888672,-178.8179931640625 140.8287353515625,-178.47999572753906 C138.6060028076172,-178.05799865722656 134.82737731933594,-167.84500122070312 131.48431396484375,-141.12899780273438 C133.94923400878906,-98.67900085449219 145.4717254638672,-105.25299835205078 146.39125061035156,-106.427001953125 C150.26345825195312,-111.37200164794922 152.0474853515625,-122.88400268554688 152.54849243164062,-129.2989959716797 C153.3821258544922,-130.80999755859375 153.59202575683594,-133.8260040283203 153.03640747070312,-135.5469970703125 C154.14891052246094,-138.56500244140625 153.80291748046875,-142.4459991455078 152.55418395996094,-145.89300537109375 C153.0408172607422,-147.39999389648438 153.81968688964844,-152.531005859375 153.04421997070312,-158.39599609375 C152.38821411132812,-163.35499572753906 151.03338623046875,-166.80799865722656 150.27015686035156,-168.31399536132812 C150.15524291992188,-170.68600463867188 149.48117065429688,-175.68600463867188 147.7035675048828,-176.7270050048828z"
                    ></path>
                  </g>
                  <g
                    opacity="1"
                    transform="matrix(1,0,0,1,562.864013671875,659.3380126953125)"
                  >
                    <path
                      fill="rgb(255,255,255)"
                      fill-opacity="1"
                      d=" M140.4689178466797,-131.87899780273438 C142.5868377685547,-131.8719940185547 143.43370056152344,-136.53799438476562 143.59666442871094,-139.19500732421875 C144.22140502929688,-137.03799438476562 143.80088806152344,-133.24099731445312 143.3143768310547,-132.09300231933594 C143.5912628173828,-130.8260040283203 143.70703125,-128.23199462890625 143.2205352783203,-126.94000244140625 C142.8468017578125,-125.9489974975586 142.1336212158203,-123.68299865722656 139.0080108642578,-123.69400024414062 C131.29855346679688,-123.72100067138672 127.552490234375,-133.86199951171875 128.4563751220703,-137.0919952392578 C129.36024475097656,-140.32200622558594 133.7324676513672,-131.90199279785156 140.4689178466797,-131.87899780273438z"
                    ></path>
                    <path
                      stroke-linecap="round"
                      stroke-linejoin="round"
                      fill-opacity="0"
                      stroke="rgb(38,42,51)"
                      stroke-opacity="1"
                      stroke-width="2"
                      d=" M140.4689178466797,-131.87899780273438 C142.5868377685547,-131.8719940185547 143.43370056152344,-136.53799438476562 143.59666442871094,-139.19500732421875 C144.22140502929688,-137.03799438476562 143.80088806152344,-133.24099731445312 143.3143768310547,-132.09300231933594 C143.5912628173828,-130.8260040283203 143.70703125,-128.23199462890625 143.2205352783203,-126.94000244140625 C142.8468017578125,-125.9489974975586 142.1336212158203,-123.68299865722656 139.0080108642578,-123.69400024414062 C131.29855346679688,-123.72100067138672 127.552490234375,-133.86199951171875 128.4563751220703,-137.0919952392578 C129.36024475097656,-140.32200622558594 133.7324676513672,-131.90199279785156 140.4689178466797,-131.87899780273438z"
                    ></path>
                  </g>
                  <g
                    opacity="1"
                    transform="matrix(1,0,0,1,546.364990234375,647.5640258789062)"
                  >
                    <path
                      stroke-linecap="round"
                      stroke-linejoin="round"
                      fill-opacity="0"
                      stroke="rgb(38,42,51)"
                      stroke-opacity="1"
                      stroke-width="2"
                      d=" M154.24163818359375,-140.1820068359375 C153.40927124023438,-143.41700744628906 152.09042358398438,-145.8990020751953 150.30953979492188,-146.63299560546875 C148.19830322265625,-147.5030059814453 146.37376403808594,-143.98800659179688 145.72442626953125,-142.1230010986328"
                    ></path>
                  </g>
                  <g
                    opacity="1"
                    transform="matrix(1,0,0,1,566.0239868164062,636.7570190429688)"
                  >
                    <path
                      stroke-linecap="round"
                      stroke-linejoin="round"
                      fill-opacity="0"
                      stroke="rgb(38,42,51)"
                      stroke-opacity="1"
                      stroke-width="2"
                      d=" M139.95672607421875,-133.4219970703125 C138.8688201904297,-134.21600341796875 136.51553344726562,-135.57400512695312 135.34600830078125,-128.50900268554688"
                    ></path>
                  </g>
                  <g
                    opacity="1"
                    transform="matrix(1,0,0,1,563.8679809570312,660.7420043945312)"
                  >
                    <path
                      stroke-linecap="round"
                      stroke-linejoin="round"
                      fill-opacity="0"
                      stroke="rgb(38,42,51)"
                      stroke-opacity="1"
                      stroke-width="2"
                      d=" M142.42401123046875,-133.73899841308594 C142.05911254882812,-132.85000610351562 140.87193298339844,-130.0469970703125 138.4236602783203,-130.05599975585938 C135.36744689941406,-130.06700134277344 130.99322509765625,-132.88400268554688 128.56387329101562,-136.12399291992188"
                    ></path>
                  </g>
                  <g
                    opacity="1"
                    transform="matrix(1,0,0,1,547.531982421875,634.9349975585938)"
                  >
                    <path
                      stroke-linecap="round"
                      stroke-linejoin="round"
                      fill-opacity="0"
                      stroke="rgb(38,42,51)"
                      stroke-opacity="1"
                      stroke-width="2"
                      d=" M149.7025604248047,-146.5050048828125 C150.049560546875,-145.4250030517578 150.18692016601562,-142.62399291992188 150.18692016601562,-142.62399291992188 C150.88104248046875,-142.1909942626953 152.3536376953125,-139.5989990234375 152.6841278076172,-132.7010040283203"
                    ></path>
                  </g>
                  <g
                    opacity="1"
                    transform="matrix(1,0,0,1,552.3800048828125,631.0709838867188)"
                  >
                    <path
                      stroke-linecap="round"
                      stroke-linejoin="round"
                      fill-opacity="0"
                      stroke="rgb(38,42,51)"
                      stroke-opacity="1"
                      stroke-width="2"
                      d=" M149.96754455566406,-136.80299377441406 C149.2734375,-137.5240020751953 147.993408203125,-138.53399658203125 146.65892028808594,-136.81399536132812"
                    ></path>
                  </g>
                  <g
                    opacity="1"
                    transform="matrix(1,0,0,1,536.9190063476562,638.875)"
                  >
                    <path
                      stroke-linecap="round"
                      stroke-linejoin="round"
                      fill-opacity="0"
                      stroke="rgb(38,42,51)"
                      stroke-opacity="1"
                      stroke-width="2"
                      d=" M160.80091857910156,-146.56199645996094 C159.48193359375,-147.42799377441406 157.026123046875,-148.10899353027344 155.59107971191406,-143.77699279785156"
                    ></path>
                  </g>
                  <g
                    opacity="1"
                    transform="matrix(1,0,0,1,548.81201171875,649.3289794921875)"
                  >
                    <path
                      fill="rgb(255,255,255)"
                      fill-opacity="1"
                      d=" M150.01487731933594,-143.00399780273438 C151.07049560546875,-142.8280029296875 151.56468200683594,-138.9040069580078 151.6797332763672,-136.96499633789062 C151.44764709472656,-136.53399658203125 150.53948974609375,-135.71800231933594 148.76187133789062,-135.89700317382812 C146.9842529296875,-136.0760040283203 144.828369140625,-140.00599670410156 143.972412109375,-141.947998046875 C145.5469512939453,-142.37399291992188 148.95925903320312,-143.17999267578125 150.01487731933594,-143.00399780273438z"
                    ></path>
                    <path
                      stroke-linecap="round"
                      stroke-linejoin="round"
                      fill-opacity="0"
                      stroke="rgb(38,42,51)"
                      stroke-opacity="1"
                      stroke-width="2"
                      d=" M150.01487731933594,-143.00399780273438 C151.07049560546875,-142.8280029296875 151.56468200683594,-138.9040069580078 151.6797332763672,-136.96499633789062 C151.44764709472656,-136.53399658203125 150.53948974609375,-135.71800231933594 148.76187133789062,-135.89700317382812 C146.9842529296875,-136.0760040283203 144.828369140625,-140.00599670410156 143.972412109375,-141.947998046875 C145.5469512939453,-142.37399291992188 148.95925903320312,-143.17999267578125 150.01487731933594,-143.00399780273438z"
                    ></path>
                  </g>
                  <g
                    opacity="1"
                    transform="matrix(1,0,0,1,568.864013671875,640.958984375)"
                  >
                    <path
                      fill="rgb(255,255,255)"
                      fill-opacity="1"
                      d=" M134.82273864746094,-134.18800354003906 C135.93409729003906,-134.1840057373047 137.09112548828125,-132.31199645996094 137.5306854248047,-131.3769989013672 C137.2528076171875,-130.22799682617188 136.39117431640625,-127.84500122070312 135.16831970214844,-127.50499725341797 C133.94544982910156,-127.16500091552734 132.80648803710938,-128.23199462890625 132.39010620117188,-128.80799865722656 C132.7382354736328,-130.60299682617188 133.71136474609375,-134.19200134277344 134.82273864746094,-134.18800354003906z"
                    ></path>
                    <path
                      stroke-linecap="round"
                      stroke-linejoin="round"
                      fill-opacity="0"
                      stroke="rgb(38,42,51)"
                      stroke-opacity="1"
                      stroke-width="2"
                      d=" M134.82273864746094,-134.18800354003906 C135.93409729003906,-134.1840057373047 137.09112548828125,-132.31199645996094 137.5306854248047,-131.3769989013672 C137.2528076171875,-130.22799682617188 136.39117431640625,-127.84500122070312 135.16831970214844,-127.50499725341797 C133.94544982910156,-127.16500091552734 132.80648803710938,-128.23199462890625 132.39010620117188,-128.80799865722656 C132.7382354736328,-130.60299682617188 133.71136474609375,-134.19200134277344 134.82273864746094,-134.18800354003906z"
                    ></path>
                  </g>
                  <g
                    opacity="1"
                    transform="matrix(1,0,0,1,547.8679809570312,650.3809814453125)"
                  >
                    <path
                      fill="rgb(38,42,51)"
                      fill-opacity="1"
                      d=" M150.19236755371094,-140.82699584960938 C150.1925048828125,-142.37899780273438 149.915771484375,-143.48599243164062 149.7772674560547,-143.84500122070312 C149.7772674560547,-143.84500122070312 146.998779296875,-143.4239959716797 146.998779296875,-143.4239959716797 C146.998779296875,-143.4239959716797 146.58139038085938,-140.1929931640625 146.58139038085938,-140.1929931640625 C147.8199005126953,-137.8159942626953 148.51956176757812,-137.2519989013672 149.77499389648438,-137.3800048828125 C149.9143524169922,-137.88299560546875 150.19223022460938,-139.27499389648438 150.19236755371094,-140.82699584960938z"
                    ></path>
                  </g>
                  <g
                    opacity="1"
                    transform="matrix(1,0,0,1,567.698974609375,640.801025390625)"
                  >
                    <path
                      fill="rgb(38,42,51)"
                      fill-opacity="1"
                      d=" M137.09996032714844,-131.01100158691406 C137.10009765625,-132.21800231933594 136.82235717773438,-133.3820037841797 136.68385314941406,-133.81399536132812 C135.96185302734375,-135.3679962158203 135.03892517089844,-133.2010040283203 134.50563049316406,-131.69400024414062 C134.3405303955078,-130.23500061035156 134.3507537841797,-129.46099853515625 134.64300537109375,-128.0290069580078 C135.92843627929688,-127.19999694824219 136.08230590820312,-127.18599700927734 136.8210906982422,-127.77899932861328 C136.91366577148438,-128.35299682617188 137.09982299804688,-129.8040008544922 137.09996032714844,-131.01100158691406z"
                    ></path>
                    <path
                      stroke-linecap="butt"
                      stroke-linejoin="miter"
                      fill-opacity="0"
                      stroke-miterlimit="4"
                      stroke="rgb(38,42,51)"
                      stroke-opacity="1"
                      stroke-width="2"
                      d=" M137.09996032714844,-131.01100158691406 C137.10009765625,-132.21800231933594 136.82235717773438,-133.3820037841797 136.68385314941406,-133.81399536132812 C135.96185302734375,-135.3679962158203 135.03892517089844,-133.2010040283203 134.50563049316406,-131.69400024414062 C134.3405303955078,-130.23500061035156 134.3507537841797,-129.46099853515625 134.64300537109375,-128.0290069580078 C135.92843627929688,-127.19999694824219 136.08230590820312,-127.18599700927734 136.8210906982422,-127.77899932861328 C136.91366577148438,-128.35299682617188 137.09982299804688,-129.8040008544922 137.09996032714844,-131.01100158691406z"
                    ></path>
                  </g>
                </g>
                <g
                  opacity="1"
                  transform="matrix(1,0,0,1,552.0809936523438,657.2000122070312)"
                >
                  <g opacity="1" transform="matrix(1,0,0,1,0,0)">
                    <path
                      stroke-linecap="butt"
                      stroke-linejoin="miter"
                      fill-opacity="0"
                      stroke-miterlimit="4"
                      stroke="rgb(38,42,51)"
                      stroke-opacity="1"
                      stroke-width="2"
                      d=" M144.5084991455078,-180.49899291992188 C137.8668975830078,-180.52200317382812 132.4771728515625,-162.47300720214844 132.4693603515625,-140.18699645996094 C132.46835327148438,-138.1540069580078 132.51187133789062,-136.15699768066406 132.59776306152344,-134.2050018310547 C133.45245361328125,-114.75299835205078 138.44384765625,-99.81400299072266 144.4794921875,-99.79299926757812 C151.12109375,-99.7699966430664 156.5108184814453,-117.81800079345703 156.51864624023438,-140.10400390625 C156.52645874023438,-162.38999938964844 151.1501007080078,-180.4759979248047 144.5084991455078,-180.49899291992188z"
                    ></path>
                  </g>
                </g>
              </g>
              <g
                transform="matrix(-0.8465679287910461,-0.5322807431221008,0.5322807431221008,-0.8465679287910461,562.7348022460938,1174.6123046875)"
                opacity="1"
                style="display: block;"
              >
                <g
                  opacity="1"
                  transform="matrix(1,0,0,1,417.45599365234375,670.6890258789062)"
                >
                  <path
                    fill="rgb(255,255,255)"
                    fill-opacity="1"
                    d=" M4.171832084655762,26.605199813842773 C2.6168320178985596,26.595199584960938 -0.014681436121463776,26.502065658569336 -1.5879669189453125,26.26293182373047 C-12.37759017944336,23.019102096557617 -20.510082244873047,12.43417739868164 -20.421083450317383,-1.3598222732543945 C-20.332082748413086,-15.295822143554688 -11.942964553833008,-26.27828598022461 -0.9783612489700317,-28.762441635131836 C0.42194822430610657,-28.921043395996094 3.114143133163452,-28.98811149597168 4.528142929077148,-28.979110717773438 C17.15564727783203,-28.89130973815918 27.201269149780273,-16.361221313476562 27.103267669677734,-1.0122219324111938 C27.005268096923828,14.336777687072754 16.830135345458984,26.70015525817871 4.171832084655762,26.605199813842773z"
                  ></path>
                  <path
                    stroke-linecap="butt"
                    stroke-linejoin="miter"
                    fill-opacity="0"
                    stroke-miterlimit="4"
                    stroke="rgb(38,50,56)"
                    stroke-opacity="1"
                    stroke-width="2"
                    d=" M4.171832084655762,26.605199813842773 C2.6168320178985596,26.595199584960938 -0.014681436121463776,26.502065658569336 -1.5879669189453125,26.26293182373047 C-12.37759017944336,23.019102096557617 -20.510082244873047,12.43417739868164 -20.421083450317383,-1.3598222732543945 C-20.332082748413086,-15.295822143554688 -11.942964553833008,-26.27828598022461 -0.9783612489700317,-28.762441635131836 C0.42194822430610657,-28.921043395996094 3.114143133163452,-28.98811149597168 4.528142929077148,-28.979110717773438 C17.15564727783203,-28.89130973815918 27.201269149780273,-16.361221313476562 27.103267669677734,-1.0122219324111938 C27.005268096923828,14.336777687072754 16.830135345458984,26.70015525817871 4.171832084655762,26.605199813842773z"
                  ></path>
                </g>
                <g
                  opacity="1"
                  transform="matrix(1,0,0,1,411.4209899902344,668.5250244140625)"
                >
                  <path
                    fill="rgb(255,255,255)"
                    fill-opacity="1"
                    d=" M2.9163544178009033,28.72599983215332 C-9.628396987915039,28.628000259399414 -19.732816696166992,16.104999542236328 -19.652549743652344,0.7559999823570251 C-19.572280883789062,-14.593000411987305 -9.337105751037598,-26.95599937438965 3.2076456546783447,-26.857999801635742 C15.752396583557129,-26.760000228881836 25.856815338134766,-14.237000465393066 25.776548385620117,1.1119999885559082 C25.69628143310547,16.461000442504883 15.461105346679688,28.823999404907227 2.9163544178009033,28.72599983215332z"
                  ></path>
                  <path
                    stroke-linecap="butt"
                    stroke-linejoin="miter"
                    fill-opacity="0"
                    stroke-miterlimit="4"
                    stroke="rgb(38,50,56)"
                    stroke-opacity="1"
                    stroke-width="2"
                    d=" M2.9163544178009033,28.72599983215332 C-9.628396987915039,28.628000259399414 -19.732816696166992,16.104999542236328 -19.652549743652344,0.7559999823570251 C-19.572280883789062,-14.593000411987305 -9.337105751037598,-26.95599937438965 3.2076456546783447,-26.857999801635742 C15.752396583557129,-26.760000228881836 25.856815338134766,-14.237000465393066 25.776548385620117,1.1119999885559082 C25.69628143310547,16.461000442504883 15.461105346679688,28.823999404907227 2.9163544178009033,28.72599983215332z"
                  ></path>
                </g>
                <g
                  opacity="1"
                  transform="matrix(1,0,0,1,411.1990051269531,668.2659912109375)"
                >
                  <path
                    stroke-linecap="butt"
                    stroke-linejoin="miter"
                    fill-opacity="0"
                    stroke-miterlimit="4"
                    stroke="rgb(38,50,56)"
                    stroke-opacity="1"
                    stroke-width="2.5"
                    d=" M16.573312759399414,-7.60699987411499 C16.584823608398438,-9.75 15.172590255737305,-11.50100040435791 13.420952796936035,-11.515000343322754 C13.420952796936035,-11.515000343322754 -7.203556060791016,-11.675999641418457 -7.203556060791016,-11.675999641418457 C-8.955193519592285,-11.6899995803833 -10.385382652282715,-9.961999893188477 -10.396894454956055,-7.818999767303467 C-10.396894454956055,-7.818999767303467 -10.488361358642578,9.651000022888184 -10.488361358642578,9.651000022888184 C-10.499873161315918,11.793000221252441 -9.086949348449707,13.543999671936035 -7.335312843322754,13.557999610900879 C-7.335312843322754,13.557999610900879 13.288818359375,13.720000267028809 13.288818359375,13.720000267028809 C15.03945541381836,13.734000205993652 16.470335006713867,12.005999565124512 16.48184585571289,9.86299991607666 C16.48184585571289,9.86299991607666 16.573312759399414,-7.60699987411499 16.573312759399414,-7.60699987411499z"
                  ></path>
                </g>
                <g
                  opacity="1"
                  transform="matrix(1,0,0,1,411.1990051269531,668.2680053710938)"
                >
                  <path
                    stroke-linecap="butt"
                    stroke-linejoin="miter"
                    fill-opacity="0"
                    stroke-miterlimit="4"
                    stroke="rgb(38,50,56)"
                    stroke-opacity="1"
                    stroke-width="2.5"
                    d=" M3.0075976848602295,7.815999984741211 C6.074245929718018,7.839000225067139 8.575889587402344,4.817999839782715 8.595534324645996,1.065999984741211 C8.615179061889648,-2.686000108718872 6.145380020141602,-5.749000072479248 3.0787315368652344,-5.771999835968018 C0.0120832659304142,-5.795000076293945 -2.4902491569519043,-2.7739999294281006 -2.5098936557769775,0.9779999852180481 C-2.52953839302063,4.730000019073486 -0.05905067175626755,7.793000221252441 3.0075976848602295,7.815999984741211z"
                  ></path>
                </g>
                <g
                  opacity="1"
                  transform="matrix(1,0,0,1,411.3299865722656,667.969970703125)"
                >
                  <path
                    stroke-linecap="round"
                    stroke-linejoin="miter"
                    fill-opacity="0"
                    stroke-miterlimit="4"
                    stroke="rgb(38,50,56)"
                    stroke-opacity="1"
                    stroke-width="2.5"
                    d=" M4.390361785888672,2.2980000972747803 C4.390361785888672,2.2980000972747803 2.193326950073242,2.2799999713897705 2.193326950073242,2.2799999713897705 C2.193326950073242,2.2799999713897705 2.2077279090881348,-0.6320000290870667 2.2077279090881348,-0.6320000290870667"
                  ></path>
                </g>
              </g>
              <g
                transform="matrix(0.47177430987358093,-0.8817193508148193,0.8817193508148193,0.47177430987358093,-334.96307373046875,854.73681640625)"
                opacity="1"
                style="display: block;"
              >
                <g
                  opacity="1"
                  transform="matrix(1,0,0,1,502.0790100097656,565.9099731445312)"
                >
                  <path
                    fill="rgb(255,255,255)"
                    fill-opacity="1"
                    d=" M-3.6229658126831055,17.423999786376953 C-2.6288504600524902,17.426000595092773 0.4799621105194092,17.24980354309082 1.8842215538024902,17.001012802124023 C6.469528675079346,14.685142517089844 10.140560150146484,8.399275779724121 10.151559829711914,0.6612759232521057 C10.16256046295166,-7.199724197387695 6.679932594299316,-13.64803409576416 2.060905694961548,-15.901567459106445 C0.5438592433929443,-16.093429565429688 -2.7414658069610596,-16.212820053100586 -3.656543254852295,-16.214820861816406 C-9.655707359313965,-16.227821350097656 -14.461983680725098,-8.670000076293945 -14.470590591430664,0.6060000061988831 C-14.479196548461914,9.881999969482422 -9.622129440307617,17.410999298095703 -3.6229658126831055,17.423999786376953z"
                  ></path>
                  <path
                    stroke-linecap="butt"
                    stroke-linejoin="miter"
                    fill-opacity="0"
                    stroke-miterlimit="4"
                    stroke="rgb(38,50,56)"
                    stroke-opacity="1"
                    stroke-width="2"
                    d=" M-3.6229658126831055,17.423999786376953 C-2.6288504600524902,17.426000595092773 0.4799621105194092,17.24980354309082 1.8842215538024902,17.001012802124023 C6.469528675079346,14.685142517089844 10.140560150146484,8.399275779724121 10.151559829711914,0.6612759232521057 C10.16256046295166,-7.199724197387695 6.679932594299316,-13.64803409576416 2.060905694961548,-15.901567459106445 C0.5438592433929443,-16.093429565429688 -2.7414658069610596,-16.212820053100586 -3.656543254852295,-16.214820861816406 C-9.655707359313965,-16.227821350097656 -14.461983680725098,-8.670000076293945 -14.470590591430664,0.6060000061988831 C-14.479196548461914,9.881999969482422 -9.622129440307617,17.410999298095703 -3.6229658126831055,17.423999786376953z"
                  ></path>
                </g>
                <g
                  opacity="1"
                  transform="matrix(1,0,0,1,505.8190002441406,566.9219970703125)"
                >
                  <path
                    fill="rgb(255,255,255)"
                    fill-opacity="1"
                    d=" M-1.9477005004882812,16.416000366210938 C4.002642631530762,16.429000854492188 8.832353591918945,8.920000076293945 8.840471267700195,-0.35600000619888306 C8.848589897155762,-9.631999969482422 4.03204345703125,-17.160999298095703 -1.9182994365692139,-17.173999786376953 C-7.868642807006836,-17.187000274658203 -12.69835376739502,-9.678000450134277 -12.70647144317627,-0.4020000100135803 C-12.71458911895752,8.87399959564209 -7.898043632507324,16.402999877929688 -1.9477005004882812,16.416000366210938z"
                  ></path>
                  <path
                    stroke-linecap="butt"
                    stroke-linejoin="miter"
                    fill-opacity="0"
                    stroke-miterlimit="4"
                    stroke="rgb(38,50,56)"
                    stroke-opacity="1"
                    stroke-width="2"
                    d=" M-1.9477005004882812,16.416000366210938 C4.002642631530762,16.429000854492188 8.832353591918945,8.920000076293945 8.840471267700195,-0.35600000619888306 C8.848589897155762,-9.631999969482422 4.03204345703125,-17.160999298095703 -1.9182994365692139,-17.173999786376953 C-7.868642807006836,-17.187000274658203 -12.69835376739502,-9.678000450134277 -12.70647144317627,-0.4020000100135803 C-12.71458911895752,8.87399959564209 -7.898043632507324,16.402999877929688 -1.9477005004882812,16.416000366210938z"
                  ></path>
                </g>
                <g
                  opacity="1"
                  transform="matrix(1,0,0,1,507.12701416015625,566.5689697265625)"
                >
                  <path
                    fill="rgb(38,50,56)"
                    fill-opacity="1"
                    d=" M-6.7868852615356445,-13.02299976348877 C-6.7868852615356445,-13.02299976348877 -6.956172943115234,12.70300006866455 -6.956172943115234,12.70300006866455 C-6.956172943115234,12.70300006866455 -4.749380588531494,12.638999938964844 -4.749380588531494,12.638999938964844 C-4.749380588531494,12.638999938964844 -4.604422569274902,8.159000396728516 -4.604422569274902,8.159000396728516 C-4.604422569274902,8.159000396728516 -3.4452717304229736,8.220999717712402 -3.4452717304229736,8.220999717712402 C-3.4452717304229736,8.220999717712402 -3.730116605758667,12.765999794006348 -3.730116605758667,12.765999794006348 C-3.730116605758667,12.765999794006348 -1.2004483938217163,12.791999816894531 -1.2004483938217163,12.791999816894531 C-1.2004483938217163,12.791999816894531 -1.3454062938690186,8.803999900817871 -1.3454062938690186,8.803999900817871 C0.29474353790283203,8.843000411987305 3.557783603668213,8.022000312805176 3.487840175628662,4.427999973297119 C3.4178965091705322,0.8339999914169312 0.884692907333374,-0.41600000858306885 -0.37277913093566895,-0.5920000076293945 C0.694121778011322,-0.8859999775886536 2.6191165447235107,-2.0829999446868896 2.6170928478240967,-4.59499979019165 C2.6135339736938477,-8.633999824523926 0.01899293065071106,-9.111000061035156 -1.6464871168136597,-9.416999816894531 C-1.6464871168136597,-9.416999816894531 -1.6652348041534424,-9.420000076293945 -1.6652348041534424,-9.420000076293945 C-1.6652348041534424,-9.420000076293945 -1.5988266468048096,-13.506999969482422 -1.5988266468048096,-13.506999969482422 C-1.5988266468048096,-13.506999969482422 -3.57450532913208,-13.430999755859375 -3.57450532913208,-13.430999755859375 C-3.57450532913208,-13.430999755859375 -3.6692910194396973,-9.092000007629395 -3.6692910194396973,-9.092000007629395 C-3.6692910194396973,-9.092000007629395 -4.990124225616455,-9.199999809265137 -4.990124225616455,-9.199999809265137 C-4.990124225616455,-9.199999809265137 -5.043343544006348,-13.111000061035156 -5.043343544006348,-13.111000061035156 C-5.043343544006348,-13.111000061035156 -6.7868852615356445,-13.02299976348877 -6.7868852615356445,-13.02299976348877z M-4.705279350280762,-2.0510001182556152 C-4.705279350280762,-2.0510001182556152 -4.763569355010986,-6.796000003814697 -4.763569355010986,-6.796000003814697 C-3.152820587158203,-7.181000232696533 0.13203799724578857,-7.289000034332275 0.3900173306465149,-4.639999866485596 C0.6479966640472412,-1.9910000562667847 -2.899400234222412,-1.8109999895095825 -4.705279350280762,-2.0510001182556152z M-4.561832904815674,5.1579999923706055 C-4.561832904815674,5.1579999923706055 -4.461488723754883,1.652999997138977 -4.461488723754883,1.652999997138977 C-2.7534186840057373,1.7799999713897705 0.6667443513870239,2.4609999656677246 0.6844919919967651,4.171000003814697 C0.7022396922111511,5.880000114440918 -2.805614709854126,5.540999889373779 -4.561832904815674,5.1579999923706055z"
                  ></path>
                </g>
              </g>
            </g>
          </g>
        </svg>